  0
SECTION
  2
HEADER
  9
$ACADVER
  1
AC1024
  9
$ACADMAINTVER
 70
     6
  9
$DWGCODEPAGE
  3
UNDEFINED
  9
$INSBASE
 10
0.0
 20
0.0
 30
0.0
  9
$EXTMIN
 10
1.000000000000000E+20
 20
1.000000000000000E+20
 30
1.000000000000000E+20
  9
$EXTMAX
 10
-1.000000000000000E+20
 20
-1.000000000000000E+20
 30
-1.000000000000000E+20
  9
$LIMMIN
 10
0.0
 20
0.0
  9
$LIMMAX
 10
12.0
 20
9.0
  9
$ORTHOMODE
 70
     0
  9
$REGENMODE
 70
     1
  9
$FILLMODE
 70
     1
  9
$QTEXTMODE
 70
     0
  9
$MIRRTEXT
 70
     1
  9
$LTSCALE
 40
1.0
  9
$ATTMODE
 70
     1
  9
$TEXTSIZE
 40
0.2
  9
$TRACEWID
 40
0.05
  9
$TEXTSTYLE
  7
Standard
  9
$CLAYER
  8
0
  9
$CELTYPE
  6
ByLayer
  9
$CECOLOR
 62
   256
  9
$CELTSCALE
 40
1.0
  9
$DISPSILH
 70
     0
  9
$DIMSCALE
 40
1.0
  9
$DIMASZ
 40
0.18
  9
$DIMEXO
 40
0.0625
  9
$DIMDLI
 40
0.38
  9
$DIMRND
 40
0.0
  9
$DIMDLE
 40
0.0
  9
$DIMEXE
 40
0.18
  9
$DIMTP
 40
0.0
  9
$DIMTM
 40
0.0
  9
$DIMTXT
 40
0.18
  9
$DIMCEN
 40
0.09
  9
$DIMTSZ
 40
0.0
  9
$DIMTOL
 70
     0
  9
$DIMLIM
 70
     0
  9
$DIMTIH
 70
     1
  9
$DIMTOH
 70
     1
  9
$DIMSE1
 70
     0
  9
$DIMSE2
 70
     0
  9
$DIMTAD
 70
     0
  9
$DIMZIN
 70
     0
  9
$DIMBLK
  1

  9
$DIMASO
 70
     1
  9
$DIMSHO
 70
     1
  9
$DIMPOST
  1

  9
$DIMAPOST
  1

  9
$DIMALT
 70
     0
  9
$DIMALTD
 70
     2
  9
$DIMALTF
 40
25.4
  9
$DIMLFAC
 40
1.0
  9
$DIMTOFL
 70
     0
  9
$DIMTVP
 40
0.0
  9
$DIMTIX
 70
     0
  9
$DIMSOXD
 70
     0
  9
$DIMSAH
 70
     0
  9
$DIMBLK1
  1

  9
$DIMBLK2
  1

  9
$DIMSTYLE
  2
Standard
  9
$DIMCLRD
 70
     0
  9
$DIMCLRE
 70
     0
  9
$DIMCLRT
 70
     0
  9
$DIMTFAC
 40
1.0
  9
$DIMGAP
 40
0.09
  9
$DIMJUST
 70
     0
  9
$DIMSD1
 70
     0
  9
$DIMSD2
 70
     0
  9
$DIMTOLJ
 70
     1
  9
$DIMTZIN
 70
     0
  9
$DIMALTZ
 70
     0
  9
$DIMALTTZ
 70
     0
  9
$DIMUPT
 70
     0
  9
$DIMDEC
 70
     4
  9
$DIMTDEC
 70
     4
  9
$DIMALTU
 70
     2
  9
$DIMALTTD
 70
     2
  9
$DIMTXSTY
  7
Standard
  9
$DIMAUNIT
 70
     0
  9
$DIMADEC
 70
     0
  9
$DIMALTRND
 40
0.0
  9
$DIMAZIN
 70
     0
  9
$DIMDSEP
 70
    46
  9
$DIMATFIT
 70
     3
  9
$DIMFRAC
 70
     0
  9
$DIMLDRBLK
  1

  9
$DIMLUNIT
 70
     2
  9
$DIMLWD
 70
    -2
  9
$DIMLWE
 70
    -2
  9
$DIMTMOVE
 70
     0
  9
$DIMFXL
 40
1.0
  9
$DIMFXLON
 70
     0
  9
$DIMJOGANG
 40
0.7853981633974483
  9
$DIMTFILL
 70
     0
  9
$DIMTFILLCLR
 70
     0
  9
$DIMARCSYM
 70
     0
  9
$DIMLTYPE
  6

  9
$DIMLTEX1
  6

  9
$DIMLTEX2
  6

  9
$DIMTXTDIRECTION
 70
     0
  9
$LUNITS
 70
     2
  9
$LUPREC
 70
     4
  9
$SKETCHINC
 40
0.1
  9
$FILLETRAD
 40
0.5
  9
$AUNITS
 70
     0
  9
$AUPREC
 70
     0
  9
$MENU
  1
.
  9
$ELEVATION
 40
0.0
  9
$PELEVATION
 40
0.0
  9
$THICKNESS
 40
0.0
  9
$LIMCHECK
 70
     0
  9
$CHAMFERA
 40
0.5
  9
$CHAMFERB
 40
0.5
  9
$CHAMFERC
 40
1.0
  9
$CHAMFERD
 40
0.0
  9
$SKPOLY
 70
     0
  9
$TDCREATE
 40
2458401.914780081
  9
$TDUCREATE
 40
2458401.873113426
  9
$TDUPDATE
 40
2458401.914780081
  9
$TDUUPDATE
 40
2458401.873113426
  9
$TDINDWG
 40
0.0000000116
  9
$TDUSRTIMER
 40
0.0000000116
  9
$USRTIMER
 70
     1
  9
$ANGBASE
 50
0.0
  9
$ANGDIR
 70
     0
  9
$PDMODE
 70
     0
  9
$PDSIZE
 40
0.0
  9
$PLINEWID
 40
0.0
  9
$SPLFRAME
 70
     0
  9
$SPLINETYPE
 70
     6
  9
$SPLINESEGS
 70
     8
  9
$HANDSEED
  5
31D
  9
$SURFTAB1
 70
     6
  9
$SURFTAB2
 70
     6
  9
$SURFTYPE
 70
     6
  9
$SURFU
 70
     6
  9
$SURFV
 70
     6
  9
$UCSBASE
  2

  9
$UCSNAME
  2

  9
$UCSORG
 10
0.0
 20
0.0
 30
0.0
  9
$UCSXDIR
 10
1.0
 20
0.0
 30
0.0
  9
$UCSYDIR
 10
0.0
 20
1.0
 30
0.0
  9
$UCSORTHOREF
  2

  9
$UCSORTHOVIEW
 70
     0
  9
$UCSORGTOP
 10
0.0
 20
0.0
 30
0.0
  9
$UCSORGBOTTOM
 10
0.0
 20
0.0
 30
0.0
  9
$UCSORGLEFT
 10
0.0
 20
0.0
 30
0.0
  9
$UCSORGRIGHT
 10
0.0
 20
0.0
 30
0.0
  9
$UCSORGFRONT
 10
0.0
 20
0.0
 30
0.0
  9
$UCSORGBACK
 10
0.0
 20
0.0
 30
0.0
  9
$PUCSBASE
  2

  9
$PUCSNAME
  2

  9
$PUCSORG
 10
0.0
 20
0.0
 30
0.0
  9
$PUCSXDIR
 10
1.0
 20
0.0
 30
0.0
  9
$PUCSYDIR
 10
0.0
 20
1.0
 30
0.0
  9
$PUCSORTHOREF
  2

  9
$PUCSORTHOVIEW
 70
     0
  9
$PUCSORGTOP
 10
0.0
 20
0.0
 30
0.0
  9
$PUCSORGBOTTOM
 10
0.0
 20
0.0
 30
0.0
  9
$PUCSORGLEFT
 10
0.0
 20
0.0
 30
0.0
  9
$PUCSORGRIGHT
 10
0.0
 20
0.0
 30
0.0
  9
$PUCSORGFRONT
 10
0.0
 20
0.0
 30
0.0
  9
$PUCSORGBACK
 10
0.0
 20
0.0
 30
0.0
  9
$USERI1
 70
     0
  9
$USERI2
 70
     0
  9
$USERI3
 70
     0
  9
$USERI4
 70
     0
  9
$USERI5
 70
     0
  9
$USERR1
 40
0.0
  9
$USERR2
 40
0.0
  9
$USERR3
 40
0.0
  9
$USERR4
 40
0.0
  9
$USERR5
 40
0.0
  9
$WORLDVIEW
 70
     1
  9
$SHADEDGE
 70
     3
  9
$SHADEDIF
 70
    70
  9
$TILEMODE
 70
     1
  9
$MAXACTVP
 70
    64
  9
$PINSBASE
 10
0.0
 20
0.0
 30
0.0
  9
$PLIMCHECK
 70
     0
  9
$PEXTMIN
 10
1.000000000000000E+20
 20
1.000000000000000E+20
 30
1.000000000000000E+20
  9
$PEXTMAX
 10
-1.000000000000000E+20
 20
-1.000000000000000E+20
 30
-1.000000000000000E+20
  9
$PLIMMIN
 10
0.0
 20
0.0
  9
$PLIMMAX
 10
12.0
 20
9.0
  9
$UNITMODE
 70
     0
  9
$VISRETAIN
 70
     1
  9
$PLINEGEN
 70
     0
  9
$PSLTSCALE
 70
     1
  9
$TREEDEPTH
 70
  3020
  9
$CMLSTYLE
  2
Standard
  9
$CMLJUST
 70
     0
  9
$CMLSCALE
 40
1.0
  9
$PROXYGRAPHICS
 70
     1
  9
$MEASUREMENT
 70
     0
  9
$CELWEIGHT
370
    -1
  9
$ENDCAPS
280
     0
  9
$JOINSTYLE
280
     0
  9
$LWDISPLAY
290
     1
  9
$INSUNITS
 70
     1
  9
$HYPERLINKBASE
  1

  9
$STYLESHEET
  1

  9
$XEDIT
290
     1
  9
$CEPSNTYPE
380
     0
  9
$PSTYLEMODE
290
     1
  9
$FINGERPRINTGUID
  2
{CA4D232E-4DE9-26E4-9B6C-E8D2E8FE0BD9}
  9
$VERSIONGUID
  2
{FAEB1C32-E019-11D5-929B-00C0DF256EC4}
  9
$EXTNAMES
290
     1
  9
$PSVPSCALE
 40
0.0
  9
$OLESTARTUP
290
     0
  9
$SORTENTS
280
   127
  9
$INDEXCTL
280
     0
  9
$HIDETEXT
280
     1
  9
$XCLIPFRAME
280
     2
  9
$HALOGAP
280
     0
  9
$OBSCOLOR
 70
   257
  9
$OBSLTYPE
280
     0
  9
$INTERSECTIONDISPLAY
280
     0
  9
$INTERSECTIONCOLOR
 70
   257
  9
$DIMASSOC
280
     2
  9
$PROJECTNAME
  1

  9
$CAMERADISPLAY
290
     0
  9
$LENSLENGTH
 40
50.0
  9
$CAMERAHEIGHT
 40
0.0
  9
$STEPSPERSEC
 40
2.0
  9
$STEPSIZE
 40
6.0
  9
$3DDWFPREC
 40
2.0
  9
$PSOLWIDTH
 40
0.25
  9
$PSOLHEIGHT
 40
4.0
  9
$LOFTANG1
 40
1.570796326794897
  9
$LOFTANG2
 40
1.570796326794897
  9
$LOFTMAG1
 40
0.0
  9
$LOFTMAG2
 40
0.0
  9
$LOFTPARAM
 70
     7
  9
$LOFTNORMALS
280
     1
  9
$LATITUDE
 40
37.795
  9
$LONGITUDE
 40
-122.394
  9
$NORTHDIRECTION
 40
0.0
  9
$TIMEZONE
 70
 -8000
  9
$LIGHTGLYPHDISPLAY
280
     1
  9
$TILEMODELIGHTSYNCH
280
     1
  9
$CMATERIAL
347
3C
  9
$SOLIDHIST
280
     1
  9
$SHOWHIST
280
     1
  9
$DWFFRAME
280
     2
  9
$DGNFRAME
280
     2
  9
$REALWORLDSCALE
290
     1
  9
$INTERFERECOLOR
 62
   256
  9
$CSHADOW
280
     0
  9
$SHADOWPLANELOCATION
 40
0.0
  0
ENDSEC
  0
SECTION
  2
CLASSES
  0
CLASS
  1
ACDBDICTIONARYWDFLT
  2
AcDbDictionaryWithDefault
  3
ObjectDBX Classes
 90
        0
 91
        4
280
     0
281
     0
  0
CLASS
  1
VISUALSTYLE
  2
AcDbVisualStyle
  3
ObjectDBX Classes
 90
     4095
 91
        4
280
     0
281
     0
  0
CLASS
  1
MATERIAL
  2
AcDbMaterial
  3
ObjectDBX Classes
 90
     1153
 91
        4
280
     0
281
     0
  0
CLASS
  1
SUN
  2
AcDbSun
  3
SCENEOE
 90
     1024
 91
        4
280
     0
281
     0
  0
ENDSEC
  0
SECTION
  2
TABLES
  0
TABLE
  2
VPORT
  5
8
330
0
100
AcDbSymbolTable
 70
     1
  0
VPORT
  5
29
330
8
100
AcDbSymbolTableRecord
100
AcDbViewportTableRecord
  2
*Active
 70
     0
 10
0.0
 20
0.0
 11
1.0
 21
1.0
 12
0.0
 22
0.0
 13
0.0
 23
0.0
 14
0.5
 24
0.5
 15
0.5
 25
0.5
 16
0.0
 26
0.0
 36
1.0
 17
148.5000416295416
 27
-209.9997916141666
 37
0.0
 40
419.9995832283332
 41
0.7071437570870605
 42
50.0
 43
0.0
 44
0.0
 50
0.0
 51
0.0
 71
     0
 72
   100
 73
     1
 74
     3
 75
     0
 76
     0
 77
     0
 78
     0
281
     0
 65
     1
110
0.0
120
0.0
130
0.0
111
1.0
121
0.0
131
0.0
112
0.0
122
1.0
132
0.0
 79
     0
146
0.0
 60
     3
 61
     5
292
     1
282
     1
141
0.0
142
0.0
 63
   250
361
3F
  0
ENDTAB
  0
TABLE
  2
LTYPE
  5
5
330
0
100
AcDbSymbolTable
 70
     1
  0
LTYPE
  5
14
330
5
100
AcDbSymbolTableRecord
100
AcDbLinetypeTableRecord
  2
ByBlock
 70
     0
  3

 72
    65
 73
     0
 40
0.0
  0
LTYPE
  5
15
330
5
100
AcDbSymbolTableRecord
100
AcDbLinetypeTableRecord
  2
ByLayer
 70
     0
  3

 72
    65
 73
     0
 40
0.0
  0
LTYPE
  5
16
330
5
100
AcDbSymbolTableRecord
100
AcDbLinetypeTableRecord
  2
Continuous
 70
     0
  3
Solid line
 72
    65
 73
     0
 40
0.0
  0
ENDTAB
  0
TABLE
  2
LAYER
  5
2
330
0
100
AcDbSymbolTable
 70
     2
  0
LAYER
  5
10
330
2
100
AcDbSymbolTableRecord
100
AcDbLayerTableRecord
  2
0
 70
     0
 62
     7
  6
Continuous
370
    -3
390
F
347
3E
  0
LAYER
  5
40
330
2
100
AcDbSymbolTableRecord
100
AcDbLayerTableRecord
  2
Layer 1
 70
     0
 62
     7
  6
Continuous
370
    -3
390
F
347
3E
  0
ENDTAB
  0
TABLE
  2
STYLE
  5
3
330
0
100
AcDbSymbolTable
 70
     1
  0
STYLE
  5
11
330
3
100
AcDbSymbolTableRecord
100
AcDbTextStyleTableRecord
  2
Standard
 70
     0
 40
0.0
 41
1.0
 50
0.0
 71
     0
 42
0.2
  3
txt
  4

  0
ENDTAB
  0
TABLE
  2
VIEW
  5
6
330
0
100
AcDbSymbolTable
 70
     0
  0
ENDTAB
  0
TABLE
  2
UCS
  5
7
330
0
100
AcDbSymbolTable
 70
     0
  0
ENDTAB
  0
TABLE
  2
APPID
  5
9
330
0
100
AcDbSymbolTable
 70
     1
  0
APPID
  5
12
330
9
100
AcDbSymbolTableRecord
100
AcDbRegAppTableRecord
  2
ACAD
 70
     0
  0
ENDTAB
  0
TABLE
  2
DIMSTYLE
  5
A
330
0
100
AcDbSymbolTable
 70
     1
100
AcDbDimStyleTable
  0
DIMSTYLE
105
27
330
A
100
AcDbSymbolTableRecord
100
AcDbDimStyleTableRecord
  2
Standard
 70
     0
178
     0
340
11
  0
ENDTAB
  0
TABLE
  2
BLOCK_RECORD
  5
1
330
0
100
AcDbSymbolTable
 70
    51
  0
BLOCK_RECORD
  5
1F
330
1
100
AcDbSymbolTableRecord
100
AcDbBlockTableRecord
  2
*Model_Space
340
22
 70
     0
280
     1
281
     0
  0
BLOCK_RECORD
  5
1B
330
1
100
AcDbSymbolTableRecord
100
AcDbBlockTableRecord
  2
*Paper_Space
340
1E
 70
     0
280
     1
281
     0
  0
BLOCK_RECORD
  5
23
330
1
100
AcDbSymbolTableRecord
100
AcDbBlockTableRecord
  2
*Paper_Space0
340
26
 70
     0
280
     1
281
     0
  0
BLOCK_RECORD
  5
41
330
1
100
AcDbSymbolTableRecord
100
AcDbBlockTableRecord
  2
block 2
340
0
102
{BLKREFS
331
42
102
}
 70
     0
280
     1
281
     0
  0
BLOCK_RECORD
  5
49
330
1
100
AcDbSymbolTableRecord
100
AcDbBlockTableRecord
  2
block 3
340
0
102
{BLKREFS
331
4A
102
}
 70
     0
280
     1
281
     0
  0
BLOCK_RECORD
  5
80
330
1
100
AcDbSymbolTableRecord
100
AcDbBlockTableRecord
  2
block 4
340
0
102
{BLKREFS
331
81
102
}
 70
     0
280
     1
281
     0
  0
BLOCK_RECORD
  5
88
330
1
100
AcDbSymbolTableRecord
100
AcDbBlockTableRecord
  2
block 5
340
0
102
{BLKREFS
331
89
102
}
 70
     0
280
     1
281
     0
  0
BLOCK_RECORD
  5
A8
330
1
100
AcDbSymbolTableRecord
100
AcDbBlockTableRecord
  2
block 6
340
0
102
{BLKREFS
331
A9
102
}
 70
     0
280
     1
281
     0
  0
BLOCK_RECORD
  5
B0
330
1
100
AcDbSymbolTableRecord
100
AcDbBlockTableRecord
  2
block 7
340
0
102
{BLKREFS
331
B1
102
}
 70
     0
280
     1
281
     0
  0
BLOCK_RECORD
  5
D0
330
1
100
AcDbSymbolTableRecord
100
AcDbBlockTableRecord
  2
block 8
340
0
102
{BLKREFS
331
D1
102
}
 70
     0
280
     1
281
     0
  0
BLOCK_RECORD
  5
D8
330
1
100
AcDbSymbolTableRecord
100
AcDbBlockTableRecord
  2
block 9
340
0
102
{BLKREFS
331
D9
102
}
 70
     0
280
     1
281
     0
  0
BLOCK_RECORD
  5
E0
330
1
100
AcDbSymbolTableRecord
100
AcDbBlockTableRecord
  2
block 10
340
0
102
{BLKREFS
331
E1
102
}
 70
     0
280
     1
281
     0
  0
BLOCK_RECORD
  5
100
330
1
100
AcDbSymbolTableRecord
100
AcDbBlockTableRecord
  2
block 11
340
0
102
{BLKREFS
331
101
102
}
 70
     0
280
     1
281
     0
  0
BLOCK_RECORD
  5
108
330
1
100
AcDbSymbolTableRecord
100
AcDbBlockTableRecord
  2
block 12
340
0
102
{BLKREFS
331
109
102
}
 70
     0
280
     1
281
     0
  0
BLOCK_RECORD
  5
128
330
1
100
AcDbSymbolTableRecord
100
AcDbBlockTableRecord
  2
block 13
340
0
102
{BLKREFS
331
129
102
}
 70
     0
280
     1
281
     0
  0
BLOCK_RECORD
  5
130
330
1
100
AcDbSymbolTableRecord
100
AcDbBlockTableRecord
  2
block 14
340
0
102
{BLKREFS
331
131
102
}
 70
     0
280
     1
281
     0
  0
BLOCK_RECORD
  5
165
330
1
100
AcDbSymbolTableRecord
100
AcDbBlockTableRecord
  2
block 15
340
0
102
{BLKREFS
331
166
102
}
 70
     0
280
     1
281
     0
  0
BLOCK_RECORD
  5
16D
330
1
100
AcDbSymbolTableRecord
100
AcDbBlockTableRecord
  2
block 16
340
0
102
{BLKREFS
331
16E
102
}
 70
     0
280
     1
281
     0
  0
BLOCK_RECORD
  5
172
330
1
100
AcDbSymbolTableRecord
100
AcDbBlockTableRecord
  2
block 17
340
0
102
{BLKREFS
331
173
102
}
 70
     0
280
     1
281
     0
  0
BLOCK_RECORD
  5
177
330
1
100
AcDbSymbolTableRecord
100
AcDbBlockTableRecord
  2
block 18
340
0
102
{BLKREFS
331
178
102
}
 70
     0
280
     1
281
     0
  0
BLOCK_RECORD
  5
17F
330
1
100
AcDbSymbolTableRecord
100
AcDbBlockTableRecord
  2
block 19
340
0
102
{BLKREFS
331
180
102
}
 70
     0
280
     1
281
     0
  0
BLOCK_RECORD
  5
22A
330
1
100
AcDbSymbolTableRecord
100
AcDbBlockTableRecord
  2
block 20
340
0
102
{BLKREFS
331
22B
102
}
 70
     0
280
     1
281
     0
  0
BLOCK_RECORD
  5
232
330
1
100
AcDbSymbolTableRecord
100
AcDbBlockTableRecord
  2
block 21
340
0
102
{BLKREFS
331
233
102
}
 70
     0
280
     1
281
     0
  0
BLOCK_RECORD
  5
23A
330
1
100
AcDbSymbolTableRecord
100
AcDbBlockTableRecord
  2
block 22
340
0
102
{BLKREFS
331
23B
102
}
 70
     0
280
     1
281
     0
  0
BLOCK_RECORD
  5
23F
330
1
100
AcDbSymbolTableRecord
100
AcDbBlockTableRecord
  2
block 23
340
0
102
{BLKREFS
331
240
102
}
 70
     0
280
     1
281
     0
  0
BLOCK_RECORD
  5
247
330
1
100
AcDbSymbolTableRecord
100
AcDbBlockTableRecord
  2
block 24
340
0
102
{BLKREFS
331
248
102
}
 70
     0
280
     1
281
     0
  0
BLOCK_RECORD
  5
24C
330
1
100
AcDbSymbolTableRecord
100
AcDbBlockTableRecord
  2
block 25
340
0
102
{BLKREFS
331
24D
102
}
 70
     0
280
     1
281
     0
  0
BLOCK_RECORD
  5
254
330
1
100
AcDbSymbolTableRecord
100
AcDbBlockTableRecord
  2
block 26
340
0
102
{BLKREFS
331
255
102
}
 70
     0
280
     1
281
     0
  0
BLOCK_RECORD
  5
25C
330
1
100
AcDbSymbolTableRecord
100
AcDbBlockTableRecord
  2
block 27
340
0
102
{BLKREFS
331
25D
102
}
 70
     0
280
     1
281
     0
  0
BLOCK_RECORD
  5
261
330
1
100
AcDbSymbolTableRecord
100
AcDbBlockTableRecord
  2
block 28
340
0
102
{BLKREFS
331
262
102
}
 70
     0
280
     1
281
     0
  0
BLOCK_RECORD
  5
269
330
1
100
AcDbSymbolTableRecord
100
AcDbBlockTableRecord
  2
block 29
340
0
102
{BLKREFS
331
26A
102
}
 70
     0
280
     1
281
     0
  0
BLOCK_RECORD
  5
26E
330
1
100
AcDbSymbolTableRecord
100
AcDbBlockTableRecord
  2
block 30
340
0
102
{BLKREFS
331
26F
102
}
 70
     0
280
     1
281
     0
  0
BLOCK_RECORD
  5
276
330
1
100
AcDbSymbolTableRecord
100
AcDbBlockTableRecord
  2
block 31
340
0
102
{BLKREFS
331
277
102
}
 70
     0
280
     1
281
     0
  0
BLOCK_RECORD
  5
27E
330
1
100
AcDbSymbolTableRecord
100
AcDbBlockTableRecord
  2
block 32
340
0
102
{BLKREFS
331
27F
102
}
 70
     0
280
     1
281
     0
  0
BLOCK_RECORD
  5
286
330
1
100
AcDbSymbolTableRecord
100
AcDbBlockTableRecord
  2
block 33
340
0
102
{BLKREFS
331
287
102
}
 70
     0
280
     1
281
     0
  0
BLOCK_RECORD
  5
28E
330
1
100
AcDbSymbolTableRecord
100
AcDbBlockTableRecord
  2
block 34
340
0
102
{BLKREFS
331
28F
102
}
 70
     0
280
     1
281
     0
  0
BLOCK_RECORD
  5
296
330
1
100
AcDbSymbolTableRecord
100
AcDbBlockTableRecord
  2
block 35
340
0
102
{BLKREFS
331
297
102
}
 70
     0
280
     1
281
     0
  0
BLOCK_RECORD
  5
29E
330
1
100
AcDbSymbolTableRecord
100
AcDbBlockTableRecord
  2
block 36
340
0
102
{BLKREFS
331
29F
102
}
 70
     0
280
     1
281
     0
  0
BLOCK_RECORD
  5
2A6
330
1
100
AcDbSymbolTableRecord
100
AcDbBlockTableRecord
  2
block 37
340
0
102
{BLKREFS
331
2A7
102
}
 70
     0
280
     1
281
     0
  0
BLOCK_RECORD
  5
2AE
330
1
100
AcDbSymbolTableRecord
100
AcDbBlockTableRecord
  2
block 38
340
0
102
{BLKREFS
331
2AF
102
}
 70
     0
280
     1
281
     0
  0
BLOCK_RECORD
  5
2B6
330
1
100
AcDbSymbolTableRecord
100
AcDbBlockTableRecord
  2
block 39
340
0
102
{BLKREFS
331
2B7
102
}
 70
     0
280
     1
281
     0
  0
BLOCK_RECORD
  5
2BE
330
1
100
AcDbSymbolTableRecord
100
AcDbBlockTableRecord
  2
block 40
340
0
102
{BLKREFS
331
2BF
102
}
 70
     0
280
     1
281
     0
  0
BLOCK_RECORD
  5
2C6
330
1
100
AcDbSymbolTableRecord
100
AcDbBlockTableRecord
  2
block 41
340
0
102
{BLKREFS
331
2C7
102
}
 70
     0
280
     1
281
     0
  0
BLOCK_RECORD
  5
2CE
330
1
100
AcDbSymbolTableRecord
100
AcDbBlockTableRecord
  2
block 42
340
0
102
{BLKREFS
331
2CF
102
}
 70
     0
280
     1
281
     0
  0
BLOCK_RECORD
  5
2D6
330
1
100
AcDbSymbolTableRecord
100
AcDbBlockTableRecord
  2
block 43
340
0
102
{BLKREFS
331
2D7
102
}
 70
     0
280
     1
281
     0
  0
BLOCK_RECORD
  5
2DE
330
1
100
AcDbSymbolTableRecord
100
AcDbBlockTableRecord
  2
block 44
340
0
102
{BLKREFS
331
2DF
102
}
 70
     0
280
     1
281
     0
  0
BLOCK_RECORD
  5
2E6
330
1
100
AcDbSymbolTableRecord
100
AcDbBlockTableRecord
  2
block 45
340
0
102
{BLKREFS
331
2E7
102
}
 70
     0
280
     1
281
     0
  0
BLOCK_RECORD
  5
2EE
330
1
100
AcDbSymbolTableRecord
100
AcDbBlockTableRecord
  2
block 46
340
0
102
{BLKREFS
331
2EF
102
}
 70
     0
280
     1
281
     0
  0
BLOCK_RECORD
  5
2F3
330
1
100
AcDbSymbolTableRecord
100
AcDbBlockTableRecord
  2
block 47
340
0
102
{BLKREFS
331
2F4
102
}
 70
     0
280
     1
281
     0
  0
BLOCK_RECORD
  5
2FB
330
1
100
AcDbSymbolTableRecord
100
AcDbBlockTableRecord
  2
block 48
340
0
102
{BLKREFS
331
2FC
102
}
 70
     0
280
     1
281
     0
  0
BLOCK_RECORD
  5
303
330
1
100
AcDbSymbolTableRecord
100
AcDbBlockTableRecord
  2
block 49
340
0
102
{BLKREFS
331
304
102
}
 70
     0
280
     1
281
     0
  0
BLOCK_RECORD
  5
30B
330
1
100
AcDbSymbolTableRecord
100
AcDbBlockTableRecord
  2
block 50
340
0
102
{BLKREFS
331
30C
102
}
 70
     0
280
     1
281
     0
  0
BLOCK_RECORD
  5
313
330
1
100
AcDbSymbolTableRecord
100
AcDbBlockTableRecord
  2
block 51
340
0
102
{BLKREFS
331
314
102
}
 70
     0
280
     1
281
     0
  0
ENDTAB
  0
ENDSEC
  0
SECTION
  2
BLOCKS
  0
BLOCK
  5
20
330
1F
100
AcDbEntity
  8
0
100
AcDbBlockBegin
  2
*Model_Space
 70
     0
 10
0.0
 20
0.0
 30
0.0
  3
*Model_Space
  1

  0
ENDBLK
  5
21
330
1F
100
AcDbEntity
  8
0
100
AcDbBlockEnd
  0
BLOCK
  5
1C
330
1B
100
AcDbEntity
 67
     1
  8
0
100
AcDbBlockBegin
  2
*Paper_Space
 70
     0
 10
0.0
 20
0.0
 30
0.0
  3
*Paper_Space
  1

  0
ENDBLK
  5
1D
330
1B
100
AcDbEntity
 67
     1
  8
0
100
AcDbBlockEnd
  0
BLOCK
  5
24
330
23
100
AcDbEntity
  8
0
100
AcDbBlockBegin
  2
*Paper_Space0
 70
     0
 10
0.0
 20
0.0
 30
0.0
  3
*Paper_Space0
  1

  0
ENDBLK
  5
25
330
23
100
AcDbEntity
  8
0
100
AcDbBlockEnd
  0
BLOCK
  5
43
330
41
100
AcDbEntity
  8
0
100
AcDbBlockBegin
  2
block 2
 70
     0
 10
0.0
 20
0.0
 30
0.0
  3
block 2
  1

  0
POLYLINE
  5
45
330
41
100
AcDbEntity
  8
Layer 1
 62
     7
420
 16777215
370
     9
100
AcDb2dPolyline
 66
     1
 10
0.0
 20
0.0
 30
0.0
  0
VERTEX
  5
46
330
45
100
AcDbEntity
  8
Layer 1
 62
     7
420
 16777215
370
     9
100
AcDbVertex
100
AcDb2dVertex
 10
65.16666666137527
 20
-33.16666666137478
 30
0.0
  0
VERTEX
  5
47
330
45
100
AcDbEntity
  8
Layer 1
 62
     7
420
 16777215
370
     9
100
AcDbVertex
100
AcDb2dVertex
 10
157.1666666613747
 20
-33.16666666137478
 30
0.0
  0
SEQEND
  5
48
330
45
100
AcDbEntity
  8
Layer 1
 62
     7
420
 16777215
370
     9
  0
ENDBLK
  5
44
330
41
100
AcDbEntity
  8
0
100
AcDbBlockEnd
  0
BLOCK
  5
4B
330
49
100
AcDbEntity
  8
0
100
AcDbBlockBegin
  2
block 3
 70
     0
 10
0.0
 20
0.0
 30
0.0
  3
block 3
  1

  0
POLYLINE
  5
4D
330
49
100
AcDbEntity
  8
Layer 1
 62
     7
420
 16777215
370
     9
100
AcDb2dPolyline
 66
     1
 10
0.0
 20
0.0
 30
0.0
  0
VERTEX
  5
4E
330
4D
100
AcDbEntity
  8
Layer 1
 62
     7
420
 16777215
370
     9
100
AcDbVertex
100
AcDb2dVertex
 10
65.16666666137527
 20
-33.16666666137478
 30
0.0
  0
VERTEX
  5
4F
330
4D
100
AcDbEntity
  8
Layer 1
 62
     7
420
 16777215
370
     9
100
AcDbVertex
100
AcDb2dVertex
 10
64.36699776489074
 20
-33.19325943481257
 30
0.0
  0
VERTEX
  5
50
330
4D
100
AcDbEntity
  8
Layer 1
 62
     7
420
 16777215
370
     9
100
AcDbVertex
100
AcDb2dVertex
 10
63.57714830199951
 20
-33.27219634887486
 30
0.0
  0
VERTEX
  5
51
330
4D
100
AcDbEntity
  8
Layer 1
 62
     7
420
 16777215
370
     9
100
AcDbVertex
100
AcDb2dVertex
 10
62.79930411254688
 20
-33.40221529418725
 30
0.0
  0
VERTEX
  5
52
330
4D
100
AcDbEntity
  8
Layer 1
 62
     7
420
 16777215
370
     9
100
AcDbVertex
100
AcDb2dVertex
 10
62.03565103637493
 20
-33.58205416137501
 30
0.0
  0
VERTEX
  5
53
330
4D
100
AcDbEntity
  8
Layer 1
 62
     7
420
 16777215
370
     9
100
AcDbVertex
100
AcDb2dVertex
 10
61.28837491332769
 20
-33.81045084106247
 30
0.0
  0
VERTEX
  5
54
330
4D
100
AcDbEntity
  8
Layer 1
 62
     7
420
 16777215
370
     9
100
AcDbVertex
100
AcDb2dVertex
 10
60.55966158324982
 20
-34.08614322387491
 30
0.0
  0
VERTEX
  5
55
330
4D
100
AcDbEntity
  8
Layer 1
 62
     7
420
 16777215
370
     9
100
AcDbVertex
100
AcDb2dVertex
 10
59.85169688598406
 20
-34.4078692004376
 30
0.0
  0
VERTEX
  5
56
330
4D
100
AcDbEntity
  8
Layer 1
 62
     7
420
 16777215
370
     9
100
AcDbVertex
100
AcDb2dVertex
 10
59.16666666137506
 20
-34.77436666137488
 30
0.0
  0
VERTEX
  5
57
330
4D
100
AcDbEntity
  8
Layer 1
 62
     7
420
 16777215
370
     9
100
AcDbVertex
100
AcDb2dVertex
 10
58.50675674926556
 20
-35.18437349731233
 30
0.0
  0
VERTEX
  5
58
330
4D
100
AcDbEntity
  8
Layer 1
 62
     7
420
 16777215
370
     9
100
AcDbVertex
100
AcDb2dVertex
 10
57.87415298950022
 20
-35.63662759887493
 30
0.0
  0
VERTEX
  5
59
330
4D
100
AcDbEntity
  8
Layer 1
 62
     7
420
 16777215
370
     9
100
AcDbVertex
100
AcDb2dVertex
 10
57.27104122192178
 20
-36.12986685668731
 30
0.0
  0
VERTEX
  5
5A
330
4D
100
AcDbEntity
  8
Layer 1
 62
     7
420
 16777215
370
     9
100
AcDbVertex
100
AcDb2dVertex
 10
56.69960728637489
 20
-36.66282916137507
 30
0.0
  0
VERTEX
  5
5B
330
4D
100
AcDbEntity
  8
Layer 1
 62
     7
420
 16777215
370
     9
100
AcDbVertex
100
AcDb2dVertex
 10
56.16203702270294
 20
-37.23425240356254
 30
0.0
  0
VERTEX
  5
5C
330
4D
100
AcDbEntity
  8
Layer 1
 62
     7
420
 16777215
370
     9
100
AcDbVertex
100
AcDb2dVertex
 10
55.66051627074994
 20
-37.84287447387498
 30
0.0
  0
VERTEX
  5
5D
330
4D
100
AcDbEntity
  8
Layer 1
 62
     7
420
 16777215
370
     9
100
AcDbVertex
100
AcDb2dVertex
 10
55.19723087035926
 20
-38.48743326293737
 30
0.0
  0
VERTEX
  5
5E
330
4D
100
AcDbEntity
  8
Layer 1
 62
     7
420
 16777215
370
     9
100
AcDbVertex
100
AcDb2dVertex
 10
54.77436666137494
 20
-39.166666661375
 30
0.0
  0
VERTEX
  5
5F
330
4D
100
AcDbEntity
  8
Layer 1
 62
     7
420
 16777215
370
     9
100
AcDbVertex
100
AcDb2dVertex
 10
54.3975619738757
 20
-39.87249283325009
 30
0.0
  0
VERTEX
  5
60
330
4D
100
AcDbEntity
  8
Layer 1
 62
     7
420
 16777215
370
     9
100
AcDbVertex
100
AcDb2dVertex
 10
54.07099791137482
 20
-40.59598853637509
 30
0.0
  0
VERTEX
  5
61
330
4D
100
AcDbEntity
  8
Layer 1
 62
     7
420
 16777215
370
     9
100
AcDbVertex
100
AcDb2dVertex
 10
53.79467447387454
 20
-41.33462955199992
 30
0.0
  0
VERTEX
  5
62
330
4D
100
AcDbEntity
  8
Layer 1
 62
     7
420
 16777215
370
     9
100
AcDbVertex
100
AcDb2dVertex
 10
53.56859166137455
 20
-42.08589166137483
 30
0.0
  0
VERTEX
  5
63
330
4D
100
AcDbEntity
  8
Layer 1
 62
     7
420
 16777215
370
     9
100
AcDbVertex
100
AcDb2dVertex
 10
53.39274947387484
 20
-42.84725064575005
 30
0.0
  0
VERTEX
  5
64
330
4D
100
AcDbEntity
  8
Layer 1
 62
     7
420
 16777215
370
     9
100
AcDbVertex
100
AcDb2dVertex
 10
53.26714791137542
 20
-43.61618228637487
 30
0.0
  0
VERTEX
  5
65
330
4D
100
AcDbEntity
  8
Layer 1
 62
     7
420
 16777215
370
     9
100
AcDbVertex
100
AcDb2dVertex
 10
53.19178697387499
 20
-44.39016236449984
 30
0.0
  0
VERTEX
  5
66
330
4D
100
AcDbEntity
  8
Layer 1
 62
     7
420
 16777215
370
     9
100
AcDbVertex
100
AcDb2dVertex
 10
53.16666666137485
 20
-45.16666666137488
 30
0.0
  0
VERTEX
  5
67
330
4D
100
AcDbEntity
  8
Layer 1
 62
     7
420
 16777215
370
     9
100
AcDbVertex
100
AcDb2dVertex
 10
53.19178697387499
 20
-45.94317095824994
 30
0.0
  0
VERTEX
  5
68
330
4D
100
AcDbEntity
  8
Layer 1
 62
     7
420
 16777215
370
     9
100
AcDbVertex
100
AcDb2dVertex
 10
53.26714791137542
 20
-46.71715103637491
 30
0.0
  0
VERTEX
  5
69
330
4D
100
AcDbEntity
  8
Layer 1
 62
     7
420
 16777215
370
     9
100
AcDbVertex
100
AcDb2dVertex
 10
53.39274947387484
 20
-47.48608267700004
 30
0.0
  0
VERTEX
  5
6A
330
4D
100
AcDbEntity
  8
Layer 1
 62
     7
420
 16777215
370
     9
100
AcDbVertex
100
AcDb2dVertex
 10
53.56859166137455
 20
-48.24744166137494
 30
0.0
  0
VERTEX
  5
6B
330
4D
100
AcDbEntity
  8
Layer 1
 62
     7
420
 16777215
370
     9
100
AcDbVertex
100
AcDb2dVertex
 10
53.79467447387454
 20
-48.99870377074985
 30
0.0
  0
VERTEX
  5
6C
330
4D
100
AcDbEntity
  8
Layer 1
 62
     7
420
 16777215
370
     9
100
AcDbVertex
100
AcDb2dVertex
 10
54.07099791137482
 20
-49.737344786375
 30
0.0
  0
VERTEX
  5
6D
330
4D
100
AcDbEntity
  8
Layer 1
 62
     7
420
 16777215
370
     9
100
AcDbVertex
100
AcDb2dVertex
 10
54.3975619738757
 20
-50.4608404895
 30
0.0
  0
VERTEX
  5
6E
330
4D
100
AcDbEntity
  8
Layer 1
 62
     7
420
 16777215
370
     9
100
AcDbVertex
100
AcDb2dVertex
 10
54.77436666137494
 20
-51.1666666613751
 30
0.0
  0
VERTEX
  5
6F
330
4D
100
AcDbEntity
  8
Layer 1
 62
     7
420
 16777215
370
     9
100
AcDbVertex
100
AcDb2dVertex
 10
55.19723087035926
 20
-51.84590005981239
 30
0.0
  0
VERTEX
  5
70
330
4D
100
AcDbEntity
  8
Layer 1
 62
     7
420
 16777215
370
     9
100
AcDbVertex
100
AcDb2dVertex
 10
55.66051627074994
 20
-52.49045884887479
 30
0.0
  0
VERTEX
  5
71
330
4D
100
AcDbEntity
  8
Layer 1
 62
     7
420
 16777215
370
     9
100
AcDbVertex
100
AcDb2dVertex
 10
56.16203702270294
 20
-53.09908091918756
 30
0.0
  0
VERTEX
  5
72
330
4D
100
AcDbEntity
  8
Layer 1
 62
     7
420
 16777215
370
     9
100
AcDbVertex
100
AcDb2dVertex
 10
56.69960728637489
 20
-53.67050416137502
 30
0.0
  0
VERTEX
  5
73
330
4D
100
AcDbEntity
  8
Layer 1
 62
     7
420
 16777215
370
     9
100
AcDbVertex
100
AcDb2dVertex
 10
57.27104122192178
 20
-54.20346646606247
 30
0.0
  0
VERTEX
  5
74
330
4D
100
AcDbEntity
  8
Layer 1
 62
     7
420
 16777215
370
     9
100
AcDbVertex
100
AcDb2dVertex
 10
57.87415298950022
 20
-54.69670572387484
 30
0.0
  0
VERTEX
  5
75
330
4D
100
AcDbEntity
  8
Layer 1
 62
     7
420
 16777215
370
     9
100
AcDbVertex
100
AcDb2dVertex
 10
58.50675674926556
 20
-55.14895982543744
 30
0.0
  0
VERTEX
  5
76
330
4D
100
AcDbEntity
  8
Layer 1
 62
     7
420
 16777215
370
     9
100
AcDbVertex
100
AcDb2dVertex
 10
59.16666666137506
 20
-55.5589666613749
 30
0.0
  0
VERTEX
  5
77
330
4D
100
AcDbEntity
  8
Layer 1
 62
     7
420
 16777215
370
     9
100
AcDbVertex
100
AcDb2dVertex
 10
59.85169688598406
 20
-55.92546412231217
 30
0.0
  0
VERTEX
  5
78
330
4D
100
AcDbEntity
  8
Layer 1
 62
     7
420
 16777215
370
     9
100
AcDbVertex
100
AcDb2dVertex
 10
60.55966158324982
 20
-56.24719009887519
 30
0.0
  0
VERTEX
  5
79
330
4D
100
AcDbEntity
  8
Layer 1
 62
     7
420
 16777215
370
     9
100
AcDbVertex
100
AcDb2dVertex
 10
61.28837491332769
 20
-56.52288248168762
 30
0.0
  0
VERTEX
  5
7A
330
4D
100
AcDbEntity
  8
Layer 1
 62
     7
420
 16777215
370
     9
100
AcDbVertex
100
AcDb2dVertex
 10
62.03565103637493
 20
-56.75127916137508
 30
0.0
  0
VERTEX
  5
7B
330
4D
100
AcDbEntity
  8
Layer 1
 62
     7
420
 16777215
370
     9
100
AcDbVertex
100
AcDb2dVertex
 10
62.79930411254688
 20
-56.93111802856252
 30
0.0
  0
VERTEX
  5
7C
330
4D
100
AcDbEntity
  8
Layer 1
 62
     7
420
 16777215
370
     9
100
AcDbVertex
100
AcDb2dVertex
 10
63.57714830199951
 20
-57.0611369738749
 30
0.0
  0
VERTEX
  5
7D
330
4D
100
AcDbEntity
  8
Layer 1
 62
     7
420
 16777215
370
     9
100
AcDbVertex
100
AcDb2dVertex
 10
64.36699776489074
 20
-57.14007388793751
 30
0.0
  0
VERTEX
  5
7E
330
4D
100
AcDbEntity
  8
Layer 1
 62
     7
420
 16777215
370
     9
100
AcDbVertex
100
AcDb2dVertex
 10
65.16666666137527
 20
-57.16666666137499
 30
0.0
  0
SEQEND
  5
7F
330
4D
100
AcDbEntity
  8
Layer 1
 62
     7
420
 16777215
370
     9
  0
ENDBLK
  5
4C
330
49
100
AcDbEntity
  8
0
100
AcDbBlockEnd
  0
BLOCK
  5
82
330
80
100
AcDbEntity
  8
0
100
AcDbBlockBegin
  2
block 4
 70
     0
 10
0.0
 20
0.0
 30
0.0
  3
block 4
  1

  0
POLYLINE
  5
84
330
80
100
AcDbEntity
  8
Layer 1
 62
     7
420
 16777215
370
     9
100
AcDb2dPolyline
 66
     1
 10
0.0
 20
0.0
 30
0.0
  0
VERTEX
  5
85
330
84
100
AcDbEntity
  8
Layer 1
 62
     7
420
 16777215
370
     9
100
AcDbVertex
100
AcDb2dVertex
 10
111.166666661375
 20
-21.166666661375
 30
0.0
  0
VERTEX
  5
86
330
84
100
AcDbEntity
  8
Layer 1
 62
     7
420
 16777215
370
     9
100
AcDbVertex
100
AcDb2dVertex
 10
41.16666666137507
 20
-21.166666661375
 30
0.0
  0
SEQEND
  5
87
330
84
100
AcDbEntity
  8
Layer 1
 62
     7
420
 16777215
370
     9
  0
ENDBLK
  5
83
330
80
100
AcDbEntity
  8
0
100
AcDbBlockEnd
  0
BLOCK
  5
8A
330
88
100
AcDbEntity
  8
0
100
AcDbBlockBegin
  2
block 5
 70
     0
 10
0.0
 20
0.0
 30
0.0
  3
block 5
  1

  0
POLYLINE
  5
8C
330
88
100
AcDbEntity
  8
Layer 1
 62
     7
420
 16777215
370
     9
100
AcDb2dPolyline
 66
     1
 10
0.0
 20
0.0
 30
0.0
  0
VERTEX
  5
8D
330
8C
100
AcDbEntity
  8
Layer 1
 62
     7
420
 16777215
370
     9
100
AcDbVertex
100
AcDb2dVertex
 10
41.16666666137507
 20
-21.166666661375
 30
0.0
  0
VERTEX
  5
8E
330
8C
100
AcDbEntity
  8
Layer 1
 62
     7
420
 16777215
370
     9
100
AcDbVertex
100
AcDb2dVertex
 10
39.6814814318829
 20
-21.22184313232229
 30
0.0
  0
VERTEX
  5
8F
330
8C
100
AcDbEntity
  8
Layer 1
 62
     7
420
 16777215
370
     9
100
AcDbVertex
100
AcDb2dVertex
 10
38.21328326293726
 20
-21.38584522582801
 30
0.0
  0
VERTEX
  5
90
330
8C
100
AcDbEntity
  8
Layer 1
 62
     7
420
 16777215
370
     9
100
AcDbVertex
100
AcDb2dVertex
 10
36.76760530883623
 20
-21.65638196288861
 30
0.0
  0
VERTEX
  5
91
330
8C
100
AcDbEntity
  8
Layer 1
 62
     7
420
 16777215
370
     9
100
AcDbVertex
100
AcDb2dVertex
 10
35.34998072387466
 20
-22.03116236449988
 30
0.0
  0
VERTEX
  5
92
330
8C
100
AcDbEntity
  8
Layer 1
 62
     7
420
 16777215
370
     9
100
AcDbVertex
100
AcDb2dVertex
 10
33.96594266235127
 20
-22.50789545165827
 30
0.0
  0
VERTEX
  5
93
330
8C
100
AcDbEntity
  8
Layer 1
 62
     7
420
 16777215
370
     9
100
AcDbVertex
100
AcDb2dVertex
 10
32.6210242785622
 20
-23.08429024535924
 30
0.0
  0
VERTEX
  5
94
330
8C
100
AcDbEntity
  8
Layer 1
 62
     7
420
 16777215
370
     9
100
AcDbVertex
100
AcDb2dVertex
 10
31.32075872680487
 20
-23.75805576659956
 30
0.0
  0
VERTEX
  5
95
330
8C
100
AcDbEntity
  8
Layer 1
 62
     7
420
 16777215
370
     9
100
AcDbVertex
100
AcDb2dVertex
 10
30.07067916137481
 20
-24.52690103637502
 30
0.0
  0
VERTEX
  5
96
330
8C
100
AcDbEntity
  8
Layer 1
 62
     7
420
 16777215
370
     9
100
AcDbVertex
100
AcDb2dVertex
 10
28.87631873657006
 20
-25.38853507568175
 30
0.0
  0
VERTEX
  5
97
330
8C
100
AcDbEntity
  8
Layer 1
 62
     7
420
 16777215
370
     9
100
AcDbVertex
100
AcDb2dVertex
 10
27.74321060668742
 20
-26.34066690551553
 30
0.0
  0
VERTEX
  5
98
330
8C
100
AcDbEntity
  8
Layer 1
 62
     7
420
 16777215
370
     9
100
AcDbVertex
100
AcDb2dVertex
 10
27.2013552630596
 20
-26.84995356094172
 30
0.0
  0
VERTEX
  5
99
330
8C
100
AcDbEntity
  8
Layer 1
 62
     7
420
 16777215
370
     9
100
AcDbVertex
100
AcDb2dVertex
 10
27.06858128582751
 20
-26.98068724411059
 30
0.0
  0
VERTEX
  5
9A
330
8C
100
AcDbEntity
  8
Layer 1
 62
     7
420
 16777215
370
     9
100
AcDbVertex
100
AcDb2dVertex
 10
26.98068724411027
 20
-27.06858128582751
 30
0.0
  0
VERTEX
  5
9B
330
8C
100
AcDbEntity
  8
Layer 1
 62
     7
420
 16777215
370
     9
100
AcDbVertex
100
AcDb2dVertex
 10
26.84995356094172
 20
-27.2013552630596
 30
0.0
  0
VERTEX
  5
9C
330
8C
100
AcDbEntity
  8
Layer 1
 62
     7
420
 16777215
370
     9
100
AcDbVertex
100
AcDb2dVertex
 10
26.34066690551553
 20
-27.74321060668742
 30
0.0
  0
VERTEX
  5
9D
330
8C
100
AcDbEntity
  8
Layer 1
 62
     7
420
 16777215
370
     9
100
AcDbVertex
100
AcDb2dVertex
 10
25.38853507568175
 20
-28.87631873657038
 30
0.0
  0
VERTEX
  5
9E
330
8C
100
AcDbEntity
  8
Layer 1
 62
     7
420
 16777215
370
     9
100
AcDbVertex
100
AcDb2dVertex
 10
24.5269010363747
 20
-30.07067916137481
 30
0.0
  0
VERTEX
  5
9F
330
8C
100
AcDbEntity
  8
Layer 1
 62
     7
420
 16777215
370
     9
100
AcDbVertex
100
AcDb2dVertex
 10
23.75805576659956
 20
-31.32075872680455
 30
0.0
  0
VERTEX
  5
A0
330
8C
100
AcDbEntity
  8
Layer 1
 62
     7
420
 16777215
370
     9
100
AcDbVertex
100
AcDb2dVertex
 10
23.08429024535956
 20
-32.62102427856252
 30
0.0
  0
VERTEX
  5
A1
330
8C
100
AcDbEntity
  8
Layer 1
 62
     7
420
 16777215
370
     9
100
AcDbVertex
100
AcDb2dVertex
 10
22.50789545165795
 20
-33.96594266235159
 30
0.0
  0
VERTEX
  5
A2
330
8C
100
AcDbEntity
  8
Layer 1
 62
     7
420
 16777215
370
     9
100
AcDbVertex
100
AcDb2dVertex
 10
22.03116236449988
 20
-35.34998072387498
 30
0.0
  0
VERTEX
  5
A3
330
8C
100
AcDbEntity
  8
Layer 1
 62
     7
420
 16777215
370
     9
100
AcDbVertex
100
AcDb2dVertex
 10
21.65638196288861
 20
-36.76760530883591
 30
0.0
  0
VERTEX
  5
A4
330
8C
100
AcDbEntity
  8
Layer 1
 62
     7
420
 16777215
370
     9
100
AcDbVertex
100
AcDb2dVertex
 10
21.38584522582801
 20
-38.21328326293726
 30
0.0
  0
VERTEX
  5
A5
330
8C
100
AcDbEntity
  8
Layer 1
 62
     7
420
 16777215
370
     9
100
AcDbVertex
100
AcDb2dVertex
 10
21.22184313232196
 20
-39.6814814318829
 30
0.0
  0
VERTEX
  5
A6
330
8C
100
AcDbEntity
  8
Layer 1
 62
     7
420
 16777215
370
     9
100
AcDbVertex
100
AcDb2dVertex
 10
21.166666661375
 20
-41.16666666137507
 30
0.0
  0
SEQEND
  5
A7
330
8C
100
AcDbEntity
  8
Layer 1
 62
     7
420
 16777215
370
     9
  0
ENDBLK
  5
8B
330
88
100
AcDbEntity
  8
0
100
AcDbBlockEnd
  0
BLOCK
  5
AA
330
A8
100
AcDbEntity
  8
0
100
AcDbBlockBegin
  2
block 6
 70
     0
 10
0.0
 20
0.0
 30
0.0
  3
block 6
  1

  0
POLYLINE
  5
AC
330
A8
100
AcDbEntity
  8
Layer 1
 62
     7
420
 16777215
370
     9
100
AcDb2dPolyline
 66
     1
 10
0.0
 20
0.0
 30
0.0
  0
VERTEX
  5
AD
330
AC
100
AcDbEntity
  8
Layer 1
 62
     7
420
 16777215
370
     9
100
AcDbVertex
100
AcDb2dVertex
 10
21.166666661375
 20
-41.16666666137507
 30
0.0
  0
VERTEX
  5
AE
330
AC
100
AcDbEntity
  8
Layer 1
 62
     7
420
 16777215
370
     9
100
AcDbVertex
100
AcDb2dVertex
 10
21.166666661375
 20
-181.1666666613746
 30
0.0
  0
SEQEND
  5
AF
330
AC
100
AcDbEntity
  8
Layer 1
 62
     7
420
 16777215
370
     9
  0
ENDBLK
  5
AB
330
A8
100
AcDbEntity
  8
0
100
AcDbBlockEnd
  0
BLOCK
  5
B2
330
B0
100
AcDbEntity
  8
0
100
AcDbBlockBegin
  2
block 7
 70
     0
 10
0.0
 20
0.0
 30
0.0
  3
block 7
  1

  0
POLYLINE
  5
B4
330
B0
100
AcDbEntity
  8
Layer 1
 62
     7
420
 16777215
370
     9
100
AcDb2dPolyline
 66
     1
 10
0.0
 20
0.0
 30
0.0
  0
VERTEX
  5
B5
330
B4
100
AcDbEntity
  8
Layer 1
 62
     7
420
 16777215
370
     9
100
AcDbVertex
100
AcDb2dVertex
 10
21.166666661375
 20
-181.1666666613746
 30
0.0
  0
VERTEX
  5
B6
330
B4
100
AcDbEntity
  8
Layer 1
 62
     7
420
 16777215
370
     9
100
AcDbVertex
100
AcDb2dVertex
 10
21.22184313232196
 20
-182.6518518908671
 30
0.0
  0
VERTEX
  5
B7
330
B4
100
AcDbEntity
  8
Layer 1
 62
     7
420
 16777215
370
     9
100
AcDbVertex
100
AcDb2dVertex
 10
21.38584522582801
 20
-184.120050059813
 30
0.0
  0
VERTEX
  5
B8
330
B4
100
AcDbEntity
  8
Layer 1
 62
     7
420
 16777215
370
     9
100
AcDbVertex
100
AcDb2dVertex
 10
21.65638196288861
 20
-185.565728013914
 30
0.0
  0
VERTEX
  5
B9
330
B4
100
AcDbEntity
  8
Layer 1
 62
     7
420
 16777215
370
     9
100
AcDbVertex
100
AcDb2dVertex
 10
22.03116236449988
 20
-186.9833525988756
 30
0.0
  0
VERTEX
  5
BA
330
B4
100
AcDbEntity
  8
Layer 1
 62
     7
420
 16777215
370
     9
100
AcDbVertex
100
AcDb2dVertex
 10
22.50789545165795
 20
-188.3673906603987
 30
0.0
  0
VERTEX
  5
BB
330
B4
100
AcDbEntity
  8
Layer 1
 62
     7
420
 16777215
370
     9
100
AcDbVertex
100
AcDb2dVertex
 10
23.08429024535956
 20
-189.7123090441884
 30
0.0
  0
VERTEX
  5
BC
330
B4
100
AcDbEntity
  8
Layer 1
 62
     7
420
 16777215
370
     9
100
AcDbVertex
100
AcDb2dVertex
 10
23.75805576659956
 20
-191.0125745959457
 30
0.0
  0
VERTEX
  5
BD
330
B4
100
AcDbEntity
  8
Layer 1
 62
     7
420
 16777215
370
     9
100
AcDbVertex
100
AcDb2dVertex
 10
24.5269010363747
 20
-192.2626541613751
 30
0.0
  0
VERTEX
  5
BE
330
B4
100
AcDbEntity
  8
Layer 1
 62
     7
420
 16777215
370
     9
100
AcDbVertex
100
AcDb2dVertex
 10
25.38853507568175
 20
-193.4570145861805
 30
0.0
  0
VERTEX
  5
BF
330
B4
100
AcDbEntity
  8
Layer 1
 62
     7
420
 16777215
370
     9
100
AcDbVertex
100
AcDb2dVertex
 10
26.34066690551553
 20
-194.5901227160628
 30
0.0
  0
VERTEX
  5
C0
330
B4
100
AcDbEntity
  8
Layer 1
 62
     7
420
 16777215
370
     9
100
AcDbVertex
100
AcDb2dVertex
 10
26.84995356094172
 20
-195.13197805969
 30
0.0
  0
VERTEX
  5
C1
330
B4
100
AcDbEntity
  8
Layer 1
 62
     7
420
 16777215
370
     9
100
AcDbVertex
100
AcDb2dVertex
 10
26.98068724411027
 20
-195.2647520369227
 30
0.0
  0
VERTEX
  5
C2
330
B4
100
AcDbEntity
  8
Layer 1
 62
     7
420
 16777215
370
     9
100
AcDbVertex
100
AcDb2dVertex
 10
27.06858128582751
 20
-195.35264607864
 30
0.0
  0
VERTEX
  5
C3
330
B4
100
AcDbEntity
  8
Layer 1
 62
     7
420
 16777215
370
     9
100
AcDbVertex
100
AcDb2dVertex
 10
27.2013552630596
 20
-195.4833797618079
 30
0.0
  0
VERTEX
  5
C4
330
B4
100
AcDbEntity
  8
Layer 1
 62
     7
420
 16777215
370
     9
100
AcDbVertex
100
AcDb2dVertex
 10
27.74321060668742
 20
-195.9926664172341
 30
0.0
  0
VERTEX
  5
C5
330
B4
100
AcDbEntity
  8
Layer 1
 62
     7
420
 16777215
370
     9
100
AcDbVertex
100
AcDb2dVertex
 10
28.87631873657006
 20
-196.9447982470685
 30
0.0
  0
VERTEX
  5
C6
330
B4
100
AcDbEntity
  8
Layer 1
 62
     7
420
 16777215
370
     9
100
AcDbVertex
100
AcDb2dVertex
 10
30.07067916137481
 20
-197.8064322863756
 30
0.0
  0
VERTEX
  5
C7
330
B4
100
AcDbEntity
  8
Layer 1
 62
     7
420
 16777215
370
     9
100
AcDbVertex
100
AcDb2dVertex
 10
31.32075872680487
 20
-198.5752775561501
 30
0.0
  0
VERTEX
  5
C8
330
B4
100
AcDbEntity
  8
Layer 1
 62
     7
420
 16777215
370
     9
100
AcDbVertex
100
AcDb2dVertex
 10
32.6210242785622
 20
-199.2490430773907
 30
0.0
  0
VERTEX
  5
C9
330
B4
100
AcDbEntity
  8
Layer 1
 62
     7
420
 16777215
370
     9
100
AcDbVertex
100
AcDb2dVertex
 10
33.96594266235127
 20
-199.8254378710923
 30
0.0
  0
VERTEX
  5
CA
330
B4
100
AcDbEntity
  8
Layer 1
 62
     7
420
 16777215
370
     9
100
AcDbVertex
100
AcDb2dVertex
 10
35.34998072387466
 20
-200.3021709582497
 30
0.0
  0
VERTEX
  5
CB
330
B4
100
AcDbEntity
  8
Layer 1
 62
     7
420
 16777215
370
     9
100
AcDbVertex
100
AcDb2dVertex
 10
36.76760530883623
 20
-200.6769513598613
 30
0.0
  0
VERTEX
  5
CC
330
B4
100
AcDbEntity
  8
Layer 1
 62
     7
420
 16777215
370
     9
100
AcDbVertex
100
AcDb2dVertex
 10
38.21328326293726
 20
-200.9474880969216
 30
0.0
  0
VERTEX
  5
CD
330
B4
100
AcDbEntity
  8
Layer 1
 62
     7
420
 16777215
370
     9
100
AcDbVertex
100
AcDb2dVertex
 10
39.6814814318829
 20
-201.1114901904283
 30
0.0
  0
VERTEX
  5
CE
330
B4
100
AcDbEntity
  8
Layer 1
 62
     7
420
 16777215
370
     9
100
AcDbVertex
100
AcDb2dVertex
 10
41.16666666137507
 20
-201.1666666613752
 30
0.0
  0
SEQEND
  5
CF
330
B4
100
AcDbEntity
  8
Layer 1
 62
     7
420
 16777215
370
     9
  0
ENDBLK
  5
B3
330
B0
100
AcDbEntity
  8
0
100
AcDbBlockEnd
  0
BLOCK
  5
D2
330
D0
100
AcDbEntity
  8
0
100
AcDbBlockBegin
  2
block 8
 70
     0
 10
0.0
 20
0.0
 30
0.0
  3
block 8
  1

  0
POLYLINE
  5
D4
330
D0
100
AcDbEntity
  8
Layer 1
 62
     7
420
 16777215
370
     9
100
AcDb2dPolyline
 66
     1
 10
0.0
 20
0.0
 30
0.0
  0
VERTEX
  5
D5
330
D4
100
AcDbEntity
  8
Layer 1
 62
     7
420
 16777215
370
     9
100
AcDbVertex
100
AcDb2dVertex
 10
41.16666666137507
 20
-201.1666666613752
 30
0.0
  0
VERTEX
  5
D6
330
D4
100
AcDbEntity
  8
Layer 1
 62
     7
420
 16777215
370
     9
100
AcDbVertex
100
AcDb2dVertex
 10
111.166666661375
 20
-201.1666666613752
 30
0.0
  0
SEQEND
  5
D7
330
D4
100
AcDbEntity
  8
Layer 1
 62
     7
420
 16777215
370
     9
  0
ENDBLK
  5
D3
330
D0
100
AcDbEntity
  8
0
100
AcDbBlockEnd
  0
BLOCK
  5
DA
330
D8
100
AcDbEntity
  8
0
100
AcDbBlockBegin
  2
block 9
 70
     0
 10
0.0
 20
0.0
 30
0.0
  3
block 9
  1

  0
POLYLINE
  5
DC
330
D8
100
AcDbEntity
  8
Layer 1
 62
     7
420
 16777215
370
     9
100
AcDb2dPolyline
 66
     1
 10
0.0
 20
0.0
 30
0.0
  0
VERTEX
  5
DD
330
DC
100
AcDbEntity
  8
Layer 1
 62
     7
420
 16777215
370
     9
100
AcDbVertex
100
AcDb2dVertex
 10
181.1666666613749
 20
-201.1666666613752
 30
0.0
  0
VERTEX
  5
DE
330
DC
100
AcDbEntity
  8
Layer 1
 62
     7
420
 16777215
370
     9
100
AcDbVertex
100
AcDb2dVertex
 10
111.166666661375
 20
-201.1666666613752
 30
0.0
  0
SEQEND
  5
DF
330
DC
100
AcDbEntity
  8
Layer 1
 62
     7
420
 16777215
370
     9
  0
ENDBLK
  5
DB
330
D8
100
AcDbEntity
  8
0
100
AcDbBlockEnd
  0
BLOCK
  5
E2
330
E0
100
AcDbEntity
  8
0
100
AcDbBlockBegin
  2
block 10
 70
     0
 10
0.0
 20
0.0
 30
0.0
  3
block 10
  1

  0
POLYLINE
  5
E4
330
E0
100
AcDbEntity
  8
Layer 1
 62
     7
420
 16777215
370
     9
100
AcDb2dPolyline
 66
     1
 10
0.0
 20
0.0
 30
0.0
  0
VERTEX
  5
E5
330
E4
100
AcDbEntity
  8
Layer 1
 62
     7
420
 16777215
370
     9
100
AcDbVertex
100
AcDb2dVertex
 10
181.1666666613749
 20
-201.1666666613752
 30
0.0
  0
VERTEX
  5
E6
330
E4
100
AcDbEntity
  8
Layer 1
 62
     7
420
 16777215
370
     9
100
AcDbVertex
100
AcDb2dVertex
 10
182.6518518908671
 20
-201.1114901904283
 30
0.0
  0
VERTEX
  5
E7
330
E4
100
AcDbEntity
  8
Layer 1
 62
     7
420
 16777215
370
     9
100
AcDbVertex
100
AcDb2dVertex
 10
184.1200500598127
 20
-200.9474880969216
 30
0.0
  0
VERTEX
  5
E8
330
E4
100
AcDbEntity
  8
Layer 1
 62
     7
420
 16777215
370
     9
100
AcDbVertex
100
AcDb2dVertex
 10
185.5657280139143
 20
-200.6769513598613
 30
0.0
  0
VERTEX
  5
E9
330
E4
100
AcDbEntity
  8
Layer 1
 62
     7
420
 16777215
370
     9
100
AcDbVertex
100
AcDb2dVertex
 10
186.9833525988746
 20
-200.3021709582497
 30
0.0
  0
VERTEX
  5
EA
330
E4
100
AcDbEntity
  8
Layer 1
 62
     7
420
 16777215
370
     9
100
AcDbVertex
100
AcDb2dVertex
 10
188.3673906603987
 20
-199.8254378710923
 30
0.0
  0
VERTEX
  5
EB
330
E4
100
AcDbEntity
  8
Layer 1
 62
     7
420
 16777215
370
     9
100
AcDbVertex
100
AcDb2dVertex
 10
189.7123090441877
 20
-199.2490430773907
 30
0.0
  0
VERTEX
  5
EC
330
E4
100
AcDbEntity
  8
Layer 1
 62
     7
420
 16777215
370
     9
100
AcDbVertex
100
AcDb2dVertex
 10
191.0125745959451
 20
-198.5752775561501
 30
0.0
  0
VERTEX
  5
ED
330
E4
100
AcDbEntity
  8
Layer 1
 62
     7
420
 16777215
370
     9
100
AcDbVertex
100
AcDb2dVertex
 10
192.2626541613751
 20
-197.8064322863756
 30
0.0
  0
VERTEX
  5
EE
330
E4
100
AcDbEntity
  8
Layer 1
 62
     7
420
 16777215
370
     9
100
AcDbVertex
100
AcDb2dVertex
 10
193.4570145861799
 20
-196.9447982470685
 30
0.0
  0
VERTEX
  5
EF
330
E4
100
AcDbEntity
  8
Layer 1
 62
     7
420
 16777215
370
     9
100
AcDbVertex
100
AcDb2dVertex
 10
194.5901227160625
 20
-195.9926664172341
 30
0.0
  0
VERTEX
  5
F0
330
E4
100
AcDbEntity
  8
Layer 1
 62
     7
420
 16777215
370
     9
100
AcDbVertex
100
AcDb2dVertex
 10
195.1319780596903
 20
-195.4833797618079
 30
0.0
  0
VERTEX
  5
F1
330
E4
100
AcDbEntity
  8
Layer 1
 62
     7
420
 16777215
370
     9
100
AcDbVertex
100
AcDb2dVertex
 10
195.2647520369224
 20
-195.35264607864
 30
0.0
  0
VERTEX
  5
F2
330
E4
100
AcDbEntity
  8
Layer 1
 62
     7
420
 16777215
370
     9
100
AcDbVertex
100
AcDb2dVertex
 10
195.3526460786397
 20
-195.2647520369227
 30
0.0
  0
VERTEX
  5
F3
330
E4
100
AcDbEntity
  8
Layer 1
 62
     7
420
 16777215
370
     9
100
AcDbVertex
100
AcDb2dVertex
 10
195.4833797618082
 20
-195.13197805969
 30
0.0
  0
VERTEX
  5
F4
330
E4
100
AcDbEntity
  8
Layer 1
 62
     7
420
 16777215
370
     9
100
AcDbVertex
100
AcDb2dVertex
 10
195.9926664172344
 20
-194.5901227160628
 30
0.0
  0
VERTEX
  5
F5
330
E4
100
AcDbEntity
  8
Layer 1
 62
     7
420
 16777215
370
     9
100
AcDbVertex
100
AcDb2dVertex
 10
196.9447982470682
 20
-193.4570145861805
 30
0.0
  0
VERTEX
  5
F6
330
E4
100
AcDbEntity
  8
Layer 1
 62
     7
420
 16777215
370
     9
100
AcDbVertex
100
AcDb2dVertex
 10
197.8064322863752
 20
-192.2626541613751
 30
0.0
  0
VERTEX
  5
F7
330
E4
100
AcDbEntity
  8
Layer 1
 62
     7
420
 16777215
370
     9
100
AcDbVertex
100
AcDb2dVertex
 10
198.5752775561504
 20
-191.0125745959457
 30
0.0
  0
VERTEX
  5
F8
330
E4
100
AcDbEntity
  8
Layer 1
 62
     7
420
 16777215
370
     9
100
AcDbVertex
100
AcDb2dVertex
 10
199.2490430773904
 20
-189.7123090441884
 30
0.0
  0
VERTEX
  5
F9
330
E4
100
AcDbEntity
  8
Layer 1
 62
     7
420
 16777215
370
     9
100
AcDbVertex
100
AcDb2dVertex
 10
199.825437871092
 20
-188.3673906603987
 30
0.0
  0
VERTEX
  5
FA
330
E4
100
AcDbEntity
  8
Layer 1
 62
     7
420
 16777215
370
     9
100
AcDbVertex
100
AcDb2dVertex
 10
200.3021709582501
 20
-186.9833525988756
 30
0.0
  0
VERTEX
  5
FB
330
E4
100
AcDbEntity
  8
Layer 1
 62
     7
420
 16777215
370
     9
100
AcDbVertex
100
AcDb2dVertex
 10
200.6769513598613
 20
-185.565728013914
 30
0.0
  0
VERTEX
  5
FC
330
E4
100
AcDbEntity
  8
Layer 1
 62
     7
420
 16777215
370
     9
100
AcDbVertex
100
AcDb2dVertex
 10
200.9474880969219
 20
-184.120050059813
 30
0.0
  0
VERTEX
  5
FD
330
E4
100
AcDbEntity
  8
Layer 1
 62
     7
420
 16777215
370
     9
100
AcDbVertex
100
AcDb2dVertex
 10
201.111490190428
 20
-182.6518518908671
 30
0.0
  0
VERTEX
  5
FE
330
E4
100
AcDbEntity
  8
Layer 1
 62
     7
420
 16777215
370
     9
100
AcDbVertex
100
AcDb2dVertex
 10
201.1666666613749
 20
-181.1666666613746
 30
0.0
  0
SEQEND
  5
FF
330
E4
100
AcDbEntity
  8
Layer 1
 62
     7
420
 16777215
370
     9
  0
ENDBLK
  5
E3
330
E0
100
AcDbEntity
  8
0
100
AcDbBlockEnd
  0
BLOCK
  5
102
330
100
100
AcDbEntity
  8
0
100
AcDbBlockBegin
  2
block 11
 70
     0
 10
0.0
 20
0.0
 30
0.0
  3
block 11
  1

  0
POLYLINE
  5
104
330
100
100
AcDbEntity
  8
Layer 1
 62
     7
420
 16777215
370
     9
100
AcDb2dPolyline
 66
     1
 10
0.0
 20
0.0
 30
0.0
  0
VERTEX
  5
105
330
104
100
AcDbEntity
  8
Layer 1
 62
     7
420
 16777215
370
     9
100
AcDbVertex
100
AcDb2dVertex
 10
201.1666666613749
 20
-41.16666666137507
 30
0.0
  0
VERTEX
  5
106
330
104
100
AcDbEntity
  8
Layer 1
 62
     7
420
 16777215
370
     9
100
AcDbVertex
100
AcDb2dVertex
 10
201.1666666613749
 20
-181.1666666613746
 30
0.0
  0
SEQEND
  5
107
330
104
100
AcDbEntity
  8
Layer 1
 62
     7
420
 16777215
370
     9
  0
ENDBLK
  5
103
330
100
100
AcDbEntity
  8
0
100
AcDbBlockEnd
  0
BLOCK
  5
10A
330
108
100
AcDbEntity
  8
0
100
AcDbBlockBegin
  2
block 12
 70
     0
 10
0.0
 20
0.0
 30
0.0
  3
block 12
  1

  0
POLYLINE
  5
10C
330
108
100
AcDbEntity
  8
Layer 1
 62
     7
420
 16777215
370
     9
100
AcDb2dPolyline
 66
     1
 10
0.0
 20
0.0
 30
0.0
  0
VERTEX
  5
10D
330
10C
100
AcDbEntity
  8
Layer 1
 62
     7
420
 16777215
370
     9
100
AcDbVertex
100
AcDb2dVertex
 10
201.1666666613749
 20
-41.16666666137507
 30
0.0
  0
VERTEX
  5
10E
330
10C
100
AcDbEntity
  8
Layer 1
 62
     7
420
 16777215
370
     9
100
AcDbVertex
100
AcDb2dVertex
 10
201.111490190428
 20
-39.6814814318829
 30
0.0
  0
VERTEX
  5
10F
330
10C
100
AcDbEntity
  8
Layer 1
 62
     7
420
 16777215
370
     9
100
AcDbVertex
100
AcDb2dVertex
 10
200.9474880969219
 20
-38.21328326293726
 30
0.0
  0
VERTEX
  5
110
330
10C
100
AcDbEntity
  8
Layer 1
 62
     7
420
 16777215
370
     9
100
AcDbVertex
100
AcDb2dVertex
 10
200.6769513598613
 20
-36.76760530883591
 30
0.0
  0
VERTEX
  5
111
330
10C
100
AcDbEntity
  8
Layer 1
 62
     7
420
 16777215
370
     9
100
AcDbVertex
100
AcDb2dVertex
 10
200.3021709582501
 20
-35.34998072387498
 30
0.0
  0
VERTEX
  5
112
330
10C
100
AcDbEntity
  8
Layer 1
 62
     7
420
 16777215
370
     9
100
AcDbVertex
100
AcDb2dVertex
 10
199.825437871092
 20
-33.96594266235159
 30
0.0
  0
VERTEX
  5
113
330
10C
100
AcDbEntity
  8
Layer 1
 62
     7
420
 16777215
370
     9
100
AcDbVertex
100
AcDb2dVertex
 10
199.2490430773904
 20
-32.62102427856252
 30
0.0
  0
VERTEX
  5
114
330
10C
100
AcDbEntity
  8
Layer 1
 62
     7
420
 16777215
370
     9
100
AcDbVertex
100
AcDb2dVertex
 10
198.5752775561504
 20
-31.32075872680455
 30
0.0
  0
VERTEX
  5
115
330
10C
100
AcDbEntity
  8
Layer 1
 62
     7
420
 16777215
370
     9
100
AcDbVertex
100
AcDb2dVertex
 10
197.8064322863752
 20
-30.07067916137481
 30
0.0
  0
VERTEX
  5
116
330
10C
100
AcDbEntity
  8
Layer 1
 62
     7
420
 16777215
370
     9
100
AcDbVertex
100
AcDb2dVertex
 10
196.9447982470682
 20
-28.87631873657038
 30
0.0
  0
VERTEX
  5
117
330
10C
100
AcDbEntity
  8
Layer 1
 62
     7
420
 16777215
370
     9
100
AcDbVertex
100
AcDb2dVertex
 10
195.9926664172344
 20
-27.74321060668742
 30
0.0
  0
VERTEX
  5
118
330
10C
100
AcDbEntity
  8
Layer 1
 62
     7
420
 16777215
370
     9
100
AcDbVertex
100
AcDb2dVertex
 10
195.4833797618082
 20
-27.2013552630596
 30
0.0
  0
VERTEX
  5
119
330
10C
100
AcDbEntity
  8
Layer 1
 62
     7
420
 16777215
370
     9
100
AcDbVertex
100
AcDb2dVertex
 10
195.3526460786397
 20
-27.06858128582751
 30
0.0
  0
VERTEX
  5
11A
330
10C
100
AcDbEntity
  8
Layer 1
 62
     7
420
 16777215
370
     9
100
AcDbVertex
100
AcDb2dVertex
 10
195.2647520369224
 20
-26.98068724411059
 30
0.0
  0
VERTEX
  5
11B
330
10C
100
AcDbEntity
  8
Layer 1
 62
     7
420
 16777215
370
     9
100
AcDbVertex
100
AcDb2dVertex
 10
195.1319780596903
 20
-26.84995356094172
 30
0.0
  0
VERTEX
  5
11C
330
10C
100
AcDbEntity
  8
Layer 1
 62
     7
420
 16777215
370
     9
100
AcDbVertex
100
AcDb2dVertex
 10
194.5901227160625
 20
-26.34066690551553
 30
0.0
  0
VERTEX
  5
11D
330
10C
100
AcDbEntity
  8
Layer 1
 62
     7
420
 16777215
370
     9
100
AcDbVertex
100
AcDb2dVertex
 10
193.4570145861799
 20
-25.38853507568175
 30
0.0
  0
VERTEX
  5
11E
330
10C
100
AcDbEntity
  8
Layer 1
 62
     7
420
 16777215
370
     9
100
AcDbVertex
100
AcDb2dVertex
 10
192.2626541613751
 20
-24.52690103637502
 30
0.0
  0
VERTEX
  5
11F
330
10C
100
AcDbEntity
  8
Layer 1
 62
     7
420
 16777215
370
     9
100
AcDbVertex
100
AcDb2dVertex
 10
191.0125745959451
 20
-23.75805576659956
 30
0.0
  0
VERTEX
  5
120
330
10C
100
AcDbEntity
  8
Layer 1
 62
     7
420
 16777215
370
     9
100
AcDbVertex
100
AcDb2dVertex
 10
189.7123090441877
 20
-23.08429024535924
 30
0.0
  0
VERTEX
  5
121
330
10C
100
AcDbEntity
  8
Layer 1
 62
     7
420
 16777215
370
     9
100
AcDbVertex
100
AcDb2dVertex
 10
188.3673906603987
 20
-22.50789545165827
 30
0.0
  0
VERTEX
  5
122
330
10C
100
AcDbEntity
  8
Layer 1
 62
     7
420
 16777215
370
     9
100
AcDbVertex
100
AcDb2dVertex
 10
186.9833525988746
 20
-22.03116236449988
 30
0.0
  0
VERTEX
  5
123
330
10C
100
AcDbEntity
  8
Layer 1
 62
     7
420
 16777215
370
     9
100
AcDbVertex
100
AcDb2dVertex
 10
185.5657280139143
 20
-21.65638196288861
 30
0.0
  0
VERTEX
  5
124
330
10C
100
AcDbEntity
  8
Layer 1
 62
     7
420
 16777215
370
     9
100
AcDbVertex
100
AcDb2dVertex
 10
184.1200500598127
 20
-21.38584522582801
 30
0.0
  0
VERTEX
  5
125
330
10C
100
AcDbEntity
  8
Layer 1
 62
     7
420
 16777215
370
     9
100
AcDbVertex
100
AcDb2dVertex
 10
182.6518518908671
 20
-21.22184313232229
 30
0.0
  0
VERTEX
  5
126
330
10C
100
AcDbEntity
  8
Layer 1
 62
     7
420
 16777215
370
     9
100
AcDbVertex
100
AcDb2dVertex
 10
181.1666666613749
 20
-21.166666661375
 30
0.0
  0
SEQEND
  5
127
330
10C
100
AcDbEntity
  8
Layer 1
 62
     7
420
 16777215
370
     9
  0
ENDBLK
  5
10B
330
108
100
AcDbEntity
  8
0
100
AcDbBlockEnd
  0
BLOCK
  5
12A
330
128
100
AcDbEntity
  8
0
100
AcDbBlockBegin
  2
block 13
 70
     0
 10
0.0
 20
0.0
 30
0.0
  3
block 13
  1

  0
POLYLINE
  5
12C
330
128
100
AcDbEntity
  8
Layer 1
 62
     7
420
 16777215
370
     9
100
AcDb2dPolyline
 66
     1
 10
0.0
 20
0.0
 30
0.0
  0
VERTEX
  5
12D
330
12C
100
AcDbEntity
  8
Layer 1
 62
     7
420
 16777215
370
     9
100
AcDbVertex
100
AcDb2dVertex
 10
111.166666661375
 20
-21.166666661375
 30
0.0
  0
VERTEX
  5
12E
330
12C
100
AcDbEntity
  8
Layer 1
 62
     7
420
 16777215
370
     9
100
AcDbVertex
100
AcDb2dVertex
 10
181.1666666613749
 20
-21.166666661375
 30
0.0
  0
SEQEND
  5
12F
330
12C
100
AcDbEntity
  8
Layer 1
 62
     7
420
 16777215
370
     9
  0
ENDBLK
  5
12B
330
128
100
AcDbEntity
  8
0
100
AcDbBlockEnd
  0
BLOCK
  5
132
330
130
100
AcDbEntity
  8
0
100
AcDbBlockBegin
  2
block 14
 70
     0
 10
0.0
 20
0.0
 30
0.0
  3
block 14
  1

  0
POLYLINE
  5
134
330
130
100
AcDbEntity
  8
Layer 1
 62
     7
420
 16777215
370
     9
100
AcDb2dPolyline
 66
     1
 10
0.0
 20
0.0
 30
0.0
  0
VERTEX
  5
135
330
134
100
AcDbEntity
  8
Layer 1
 62
     7
420
 16777215
370
     9
100
AcDbVertex
100
AcDb2dVertex
 10
157.1666666613747
 20
-57.16666666137499
 30
0.0
  0
VERTEX
  5
136
330
134
100
AcDbEntity
  8
Layer 1
 62
     7
420
 16777215
370
     9
100
AcDbVertex
100
AcDb2dVertex
 10
158.0899492793251
 20
-57.13167569381505
 30
0.0
  0
VERTEX
  5
137
330
134
100
AcDbEntity
  8
Layer 1
 62
     7
420
 16777215
370
     9
100
AcDbVertex
100
AcDb2dVertex
 10
158.9941444018532
 20
-57.02839927245903
 30
0.0
  0
VERTEX
  5
138
330
134
100
AcDbEntity
  8
Layer 1
 62
     7
420
 16777215
370
     9
100
AcDbVertex
100
AcDb2dVertex
 10
159.8767073069741
 20
-56.85938211929136
 30
0.0
  0
VERTEX
  5
139
330
134
100
AcDbEntity
  8
Layer 1
 62
     7
420
 16777215
370
     9
100
AcDbVertex
100
AcDb2dVertex
 10
160.7350932727031
 20
-56.62716895629679
 30
0.0
  0
VERTEX
  5
13A
330
134
100
AcDbEntity
  8
Layer 1
 62
     7
420
 16777215
370
     9
100
AcDbVertex
100
AcDb2dVertex
 10
161.5667575770547
 20
-56.33430450546069
 30
0.0
  0
VERTEX
  5
13B
330
134
100
AcDbEntity
  8
Layer 1
 62
     7
420
 16777215
370
     9
100
AcDbVertex
100
AcDb2dVertex
 10
162.369155498045
 20
-55.98333348876749
 30
0.0
  0
VERTEX
  5
13C
330
134
100
AcDbEntity
  8
Layer 1
 62
     7
420
 16777215
370
     9
100
AcDbVertex
100
AcDb2dVertex
 10
163.1397423136885
 20
-55.57680062820226
 30
0.0
  0
VERTEX
  5
13D
330
134
100
AcDbEntity
  8
Layer 1
 62
     7
420
 16777215
370
     9
100
AcDbVertex
100
AcDb2dVertex
 10
163.8759733019998
 20
-55.11725064575006
 30
0.0
  0
VERTEX
  5
13E
330
134
100
AcDbEntity
  8
Layer 1
 62
     7
420
 16777215
370
     9
100
AcDbVertex
100
AcDb2dVertex
 10
164.5753037409955
 20
-54.60722826339533
 30
0.0
  0
VERTEX
  5
13F
330
134
100
AcDbEntity
  8
Layer 1
 62
     7
420
 16777215
370
     9
100
AcDbVertex
100
AcDb2dVertex
 10
165.2351889086895
 20
-54.04927820312311
 30
0.0
  0
VERTEX
  5
140
330
134
100
AcDbEntity
  8
Layer 1
 62
     7
420
 16777215
370
     9
100
AcDbVertex
100
AcDb2dVertex
 10
165.8530840830971
 20
-53.44594518691816
 30
0.0
  0
VERTEX
  5
141
330
134
100
AcDbEntity
  8
Layer 1
 62
     7
420
 16777215
370
     9
100
AcDbVertex
100
AcDb2dVertex
 10
166.4264445422342
 20
-52.79977393676554
 30
0.0
  0
VERTEX
  5
142
330
134
100
AcDbEntity
  8
Layer 1
 62
     7
420
 16777215
370
     9
100
AcDbVertex
100
AcDb2dVertex
 10
166.9527255641154
 20
-52.11330917464999
 30
0.0
  0
VERTEX
  5
143
330
134
100
AcDbEntity
  8
Layer 1
 62
     7
420
 16777215
370
     9
100
AcDbVertex
100
AcDb2dVertex
 10
167.429382426756
 20
-51.38909562255659
 30
0.0
  0
VERTEX
  5
144
330
134
100
AcDbEntity
  8
Layer 1
 62
     7
420
 16777215
370
     9
100
AcDbVertex
100
AcDb2dVertex
 10
167.8538704081705
 20
-50.62967800246975
 30
0.0
  0
VERTEX
  5
145
330
134
100
AcDbEntity
  8
Layer 1
 62
     7
420
 16777215
370
     9
100
AcDbVertex
100
AcDb2dVertex
 10
168.2236447863749
 20
-49.83760103637519
 30
0.0
  0
VERTEX
  5
146
330
134
100
AcDbEntity
  8
Layer 1
 62
     7
420
 16777215
370
     9
100
AcDbVertex
100
AcDb2dVertex
 10
168.5361608393838
 20
-49.01540944625668
 30
0.0
  0
VERTEX
  5
147
330
134
100
AcDbEntity
  8
Layer 1
 62
     7
420
 16777215
370
     9
100
AcDbVertex
100
AcDb2dVertex
 10
168.788873845213
 20
-48.16564795409962
 30
0.0
  0
VERTEX
  5
148
330
134
100
AcDbEntity
  8
Layer 1
 62
     7
420
 16777215
370
     9
100
AcDbVertex
100
AcDb2dVertex
 10
168.9792390818767
 20
-47.29086128188873
 30
0.0
  0
VERTEX
  5
149
330
134
100
AcDbEntity
  8
Layer 1
 62
     7
420
 16777215
370
     9
100
AcDbVertex
100
AcDb2dVertex
 10
169.1047118273905
 20
-46.39359415160942
 30
0.0
  0
VERTEX
  5
14A
330
134
100
AcDbEntity
  8
Layer 1
 62
     7
420
 16777215
370
     9
100
AcDbVertex
100
AcDb2dVertex
 10
169.1627473597699
 20
-45.47639128524578
 30
0.0
  0
VERTEX
  5
14B
330
134
100
AcDbEntity
  8
Layer 1
 62
     7
420
 16777215
370
     9
100
AcDbVertex
100
AcDb2dVertex
 10
169.1664209687044
 20
-45.24427381949953
 30
0.0
  0
VERTEX
  5
14C
330
134
100
AcDbEntity
  8
Layer 1
 62
     7
420
 16777215
370
     9
100
AcDbVertex
100
AcDb2dVertex
 10
169.1666512943637
 20
-45.14725404428417
 30
0.0
  0
VERTEX
  5
14D
330
134
100
AcDbEntity
  8
Layer 1
 62
     7
420
 16777215
370
     9
100
AcDbVertex
100
AcDb2dVertex
 10
169.1664209732701
 20
-45.08905950325056
 30
0.0
  0
VERTEX
  5
14E
330
134
100
AcDbEntity
  8
Layer 1
 62
     7
420
 16777215
370
     9
100
AcDbVertex
100
AcDb2dVertex
 10
169.1627474322492
 20
-44.8569420375043
 30
0.0
  0
VERTEX
  5
14F
330
134
100
AcDbEntity
  8
Layer 1
 62
     7
420
 16777215
370
     9
100
AcDbVertex
100
AcDb2dVertex
 10
169.1047129504376
 20
-43.93973917114067
 30
0.0
  0
VERTEX
  5
150
330
134
100
AcDbEntity
  8
Layer 1
 62
     7
420
 16777215
370
     9
100
AcDbVertex
100
AcDb2dVertex
 10
168.9792424090554
 20
-43.04247204086104
 30
0.0
  0
VERTEX
  5
151
330
134
100
AcDbEntity
  8
Layer 1
 62
     7
420
 16777215
370
     9
100
AcDbVertex
100
AcDb2dVertex
 10
168.788880406492
 20
-42.16768536865047
 30
0.0
  0
VERTEX
  5
152
330
134
100
AcDbEntity
  8
Layer 1
 62
     7
420
 16777215
370
     9
100
AcDbVertex
100
AcDb2dVertex
 10
168.536171541136
 20
-41.31792387649341
 30
0.0
  0
VERTEX
  5
153
330
134
100
AcDbEntity
  8
Layer 1
 62
     7
420
 16777215
370
     9
100
AcDbVertex
100
AcDb2dVertex
 10
168.223660411375
 20
-40.4957322863749
 30
0.0
  0
VERTEX
  5
154
330
134
100
AcDbEntity
  8
Layer 1
 62
     7
420
 16777215
370
     9
100
AcDbVertex
100
AcDb2dVertex
 10
167.8538916155986
 20
-39.70365532028001
 30
0.0
  0
VERTEX
  5
155
330
134
100
AcDbEntity
  8
Layer 1
 62
     7
420
 16777215
370
     9
100
AcDbVertex
100
AcDb2dVertex
 10
167.4294097521953
 20
-38.94423770019318
 30
0.0
  0
VERTEX
  5
156
330
134
100
AcDbEntity
  8
Layer 1
 62
     7
420
 16777215
370
     9
100
AcDbVertex
100
AcDb2dVertex
 10
166.9527594195535
 20
-38.22002414809945
 30
0.0
  0
VERTEX
  5
157
330
134
100
AcDbEntity
  8
Layer 1
 62
     7
420
 16777215
370
     9
100
AcDbVertex
100
AcDb2dVertex
 10
166.4264852160622
 20
-37.53355938598423
 30
0.0
  0
VERTEX
  5
158
330
134
100
AcDbEntity
  8
Layer 1
 62
     7
420
 16777215
370
     9
100
AcDbVertex
100
AcDb2dVertex
 10
165.8531317401103
 20
-36.88738813583161
 30
0.0
  0
VERTEX
  5
159
330
134
100
AcDbEntity
  8
Layer 1
 62
     7
420
 16777215
370
     9
100
AcDbVertex
100
AcDb2dVertex
 10
165.2352435900862
 20
-36.28405511962698
 30
0.0
  0
VERTEX
  5
15A
330
134
100
AcDbEntity
  8
Layer 1
 62
     7
420
 16777215
370
     9
100
AcDbVertex
100
AcDb2dVertex
 10
164.5753653643777
 20
-35.72610505935477
 30
0.0
  0
VERTEX
  5
15B
330
134
100
AcDbEntity
  8
Layer 1
 62
     7
420
 16777215
370
     9
100
AcDbVertex
100
AcDb2dVertex
 10
163.8760416613752
 20
-35.21608267700002
 30
0.0
  0
VERTEX
  5
15C
330
134
100
AcDbEntity
  8
Layer 1
 62
     7
420
 16777215
370
     9
100
AcDbVertex
100
AcDb2dVertex
 10
163.1398170794656
 20
-34.75653269454751
 30
0.0
  0
VERTEX
  5
15D
330
134
100
AcDbEntity
  8
Layer 1
 62
     7
420
 16777215
370
     9
100
AcDbVertex
100
AcDb2dVertex
 10
162.3692362170393
 20
-34.34999983398228
 30
0.0
  0
VERTEX
  5
15E
330
134
100
AcDbEntity
  8
Layer 1
 62
     7
420
 16777215
370
     9
100
AcDbVertex
100
AcDb2dVertex
 10
161.5668436724833
 20
-33.99902881728909
 30
0.0
  0
VERTEX
  5
15F
330
134
100
AcDbEntity
  8
Layer 1
 62
     7
420
 16777215
370
     9
100
AcDbVertex
100
AcDb2dVertex
 10
160.7351840441874
 20
-33.70616436645299
 30
0.0
  0
VERTEX
  5
160
330
134
100
AcDbEntity
  8
Layer 1
 62
     7
420
 16777215
370
     9
100
AcDbVertex
100
AcDb2dVertex
 10
159.8768019305399
 20
-33.47395120345873
 30
0.0
  0
VERTEX
  5
161
330
134
100
AcDbEntity
  8
Layer 1
 62
     7
420
 16777215
370
     9
100
AcDbVertex
100
AcDb2dVertex
 10
158.9942419299298
 20
-33.30493405029106
 30
0.0
  0
VERTEX
  5
162
330
134
100
AcDbEntity
  8
Layer 1
 62
     7
420
 16777215
370
     9
100
AcDbVertex
100
AcDb2dVertex
 10
158.0900486407449
 20
-33.20165762893473
 30
0.0
  0
VERTEX
  5
163
330
134
100
AcDbEntity
  8
Layer 1
 62
     7
420
 16777215
370
     9
100
AcDbVertex
100
AcDb2dVertex
 10
157.1667666613748
 20
-33.16666666137478
 30
0.0
  0
SEQEND
  5
164
330
134
100
AcDbEntity
  8
Layer 1
 62
     7
420
 16777215
370
     9
  0
ENDBLK
  5
133
330
130
100
AcDbEntity
  8
0
100
AcDbBlockEnd
  0
BLOCK
  5
167
330
165
100
AcDbEntity
  8
0
100
AcDbBlockBegin
  2
block 15
 70
     0
 10
0.0
 20
0.0
 30
0.0
  3
block 15
  1

  0
POLYLINE
  5
169
330
165
100
AcDbEntity
  8
Layer 1
 62
     7
420
 16777215
370
     9
100
AcDb2dPolyline
 66
     1
 10
0.0
 20
0.0
 30
0.0
  0
VERTEX
  5
16A
330
169
100
AcDbEntity
  8
Layer 1
 62
     7
420
 16777215
370
     9
100
AcDbVertex
100
AcDb2dVertex
 10
157.1666666613747
 20
-57.16666666137499
 30
0.0
  0
VERTEX
  5
16B
330
169
100
AcDbEntity
  8
Layer 1
 62
     7
420
 16777215
370
     9
100
AcDbVertex
100
AcDb2dVertex
 10
65.16666666137527
 20
-57.16666666137499
 30
0.0
  0
SEQEND
  5
16C
330
169
100
AcDbEntity
  8
Layer 1
 62
     7
420
 16777215
370
     9
  0
ENDBLK
  5
168
330
165
100
AcDbEntity
  8
0
100
AcDbBlockEnd
  0
BLOCK
  5
16F
330
16D
100
AcDbEntity
  8
0
100
AcDbBlockBegin
  2
block 16
 70
     0
 10
0.0
 20
0.0
 30
0.0
  3
block 16
  1

  0
SPLINE
  5
171
330
16D
100
AcDbEntity
  8
Layer 1
 62
     7
420
 16777215
370
     9
100
AcDbSpline
210
0.0
220
0.0
230
1.0
 70
    11
 71
     3
 72
    20
 73
    16
 74
     0
 42
0.0000000001
 43
0.0000000001
 12
1.0
 22
0.0
 32
0.0
 13
1.0
 23
0.0
 33
0.0
 40
0.0
 40
0.0
 40
0.0
 40
0.0
 40
1.0
 40
1.0
 40
1.0
 40
2.0
 40
2.0
 40
2.0
 40
3.0
 40
3.0
 40
3.0
 40
4.0
 40
4.0
 40
4.0
 40
5.0
 40
5.0
 40
5.0
 40
5.0
 10
163.4666666613752
 20
-156.1666666613756
 30
0.0
 10
163.4666666613752
 20
-155.0620666613746
 30
0.0
 10
162.5712666613748
 20
-154.1666666613752
 30
0.0
 10
161.4666666613751
 20
-154.1666666613752
 30
0.0
 10
161.4666666613751
 20
-154.1666666613752
 30
0.0
 10
160.3620666613748
 20
-154.1666666613752
 30
0.0
 10
159.4666666613751
 20
-155.0620666613746
 30
0.0
 10
159.4666666613751
 20
-156.1666666613756
 30
0.0
 10
159.4666666613751
 20
-156.1666666613756
 30
0.0
 10
159.4666666613751
 20
-157.2712666613753
 30
0.0
 10
160.3620666613748
 20
-158.1666666613744
 30
0.0
 10
161.4666666613751
 20
-158.1666666613744
 30
0.0
 10
161.4666666613751
 20
-158.1666666613744
 30
0.0
 10
162.5712666613748
 20
-158.1666666613744
 30
0.0
 10
163.4666666613752
 20
-157.2712666613753
 30
0.0
 10
163.4666666613752
 20
-156.1666666613756
 30
0.0
  0
ENDBLK
  5
170
330
16D
100
AcDbEntity
  8
0
100
AcDbBlockEnd
  0
BLOCK
  5
174
330
172
100
AcDbEntity
  8
0
100
AcDbBlockBegin
  2
block 17
 70
     0
 10
0.0
 20
0.0
 30
0.0
  3
block 17
  1

  0
SPLINE
  5
176
330
172
100
AcDbEntity
  8
Layer 1
 62
     7
420
 16777215
370
     9
100
AcDbSpline
210
0.0
220
0.0
230
1.0
 70
    11
 71
     3
 72
    20
 73
    16
 74
     0
 42
0.0000000001
 43
0.0000000001
 12
1.0
 22
0.0
 32
0.0
 13
1.0
 23
0.0
 33
0.0
 40
0.0
 40
0.0
 40
0.0
 40
0.0
 40
1.0
 40
1.0
 40
1.0
 40
2.0
 40
2.0
 40
2.0
 40
3.0
 40
3.0
 40
3.0
 40
4.0
 40
4.0
 40
4.0
 40
5.0
 40
5.0
 40
5.0
 40
5.0
 10
163.4666666613752
 20
-96.16666666137507
 30
0.0
 10
163.4666666613752
 20
-95.06206666137506
 30
0.0
 10
162.5712666613748
 20
-94.166666661375
 30
0.0
 10
161.4666666613751
 20
-94.166666661375
 30
0.0
 10
161.4666666613751
 20
-94.166666661375
 30
0.0
 10
160.3620666613748
 20
-94.166666661375
 30
0.0
 10
159.4666666613751
 20
-95.06206666137506
 30
0.0
 10
159.4666666613751
 20
-96.16666666137507
 30
0.0
 10
159.4666666613751
 20
-96.16666666137507
 30
0.0
 10
159.4666666613751
 20
-97.27126666137511
 30
0.0
 10
160.3620666613748
 20
-98.16666666137515
 30
0.0
 10
161.4666666613751
 20
-98.16666666137515
 30
0.0
 10
161.4666666613751
 20
-98.16666666137515
 30
0.0
 10
162.5712666613748
 20
-98.16666666137515
 30
0.0
 10
163.4666666613752
 20
-97.27126666137511
 30
0.0
 10
163.4666666613752
 20
-96.16666666137507
 30
0.0
  0
ENDBLK
  5
175
330
172
100
AcDbEntity
  8
0
100
AcDbBlockEnd
  0
BLOCK
  5
179
330
177
100
AcDbEntity
  8
0
100
AcDbBlockBegin
  2
block 18
 70
     0
 10
0.0
 20
0.0
 30
0.0
  3
block 18
  1

  0
POLYLINE
  5
17B
330
177
100
AcDbEntity
  8
Layer 1
 62
     7
420
 16777215
370
     9
100
AcDb2dPolyline
 66
     1
 10
0.0
 20
0.0
 30
0.0
  0
VERTEX
  5
17C
330
17B
100
AcDbEntity
  8
Layer 1
 62
     7
420
 16777215
370
     9
100
AcDbVertex
100
AcDb2dVertex
 10
65.48611106868944
 20
-230.3639721634068
 30
0.0
  0
VERTEX
  5
17D
330
17B
100
AcDbEntity
  8
Layer 1
 62
     7
420
 16777215
370
     9
100
AcDbVertex
100
AcDb2dVertex
 10
157.4861110686892
 20
-230.3639721634068
 30
0.0
  0
SEQEND
  5
17E
330
17B
100
AcDbEntity
  8
Layer 1
 62
     7
420
 16777215
370
     9
  0
ENDBLK
  5
17A
330
177
100
AcDbEntity
  8
0
100
AcDbBlockEnd
  0
BLOCK
  5
181
330
17F
100
AcDbEntity
  8
0
100
AcDbBlockBegin
  2
block 19
 70
     0
 10
0.0
 20
0.0
 30
0.0
  3
block 19
  1

  0
POLYLINE
  5
183
330
17F
100
AcDbEntity
  8
Layer 1
 62
     7
420
 16777215
370
     9
100
AcDb2dPolyline
 66
     1
 10
0.0
 20
0.0
 30
0.0
  0
VERTEX
  5
184
330
183
100
AcDbEntity
  8
Layer 1
 62
     7
420
 16777215
370
     9
100
AcDbVertex
100
AcDb2dVertex
 10
65.48611106868944
 20
-230.3639721634068
 30
0.0
  0
VERTEX
  5
185
330
183
100
AcDbEntity
  8
Layer 1
 62
     7
420
 16777215
370
     9
100
AcDbVertex
100
AcDb2dVertex
 10
65.44359578337648
 20
-230.3667940335543
 30
0.0
  0
VERTEX
  5
186
330
183
100
AcDbEntity
  8
Layer 1
 62
     7
420
 16777215
370
     9
100
AcDbVertex
100
AcDb2dVertex
 10
65.32789262529579
 20
-230.3744736077465
 30
0.0
  0
VERTEX
  5
187
330
183
100
AcDbEntity
  8
Layer 1
 62
     7
420
 16777215
370
     9
100
AcDbVertex
100
AcDb2dVertex
 10
64.94797887798529
 20
-230.399689650742
 30
0.0
  0
VERTEX
  5
188
330
183
100
AcDbEntity
  8
Layer 1
 62
     7
420
 16777215
370
     9
100
AcDbVertex
100
AcDb2dVertex
 10
64.48848220106322
 20
-230.4301878573571
 30
0.0
  0
VERTEX
  5
189
330
183
100
AcDbEntity
  8
Layer 1
 62
     7
420
 16777215
370
     9
100
AcDbVertex
100
AcDb2dVertex
 10
64.0915149688361
 20
-230.4565357925567
 30
0.0
  0
VERTEX
  5
18A
330
183
100
AcDbEntity
  8
Layer 1
 62
     7
420
 16777215
370
     9
100
AcDbVertex
100
AcDb2dVertex
 10
63.96089001145339
 20
-230.4652057724271
 30
0.0
  0
VERTEX
  5
18B
330
183
100
AcDbEntity
  8
Layer 1
 62
     7
420
 16777215
370
     9
100
AcDbVertex
100
AcDb2dVertex
 10
63.89918955560885
 20
-230.4693010213052
 30
0.0
  0
VERTEX
  5
18C
330
183
100
AcDbEntity
  8
Layer 1
 62
     7
420
 16777215
370
     9
100
AcDbVertex
100
AcDb2dVertex
 10
63.87239778473339
 20
-230.4743399523768
 30
0.0
  0
VERTEX
  5
18D
330
183
100
AcDbEntity
  8
Layer 1
 62
     7
420
 16777215
370
     9
100
AcDbVertex
100
AcDb2dVertex
 10
63.77565214916435
 20
-230.4937894966278
 30
0.0
  0
VERTEX
  5
18E
330
183
100
AcDbEntity
  8
Layer 1
 62
     7
420
 16777215
370
     9
100
AcDbVertex
100
AcDb2dVertex
 10
63.42573422475994
 20
-230.5641362788352
 30
0.0
  0
VERTEX
  5
18F
330
183
100
AcDbEntity
  8
Layer 1
 62
     7
420
 16777215
370
     9
100
AcDbVertex
100
AcDb2dVertex
 10
62.9820981292364
 20
-230.6533239700468
 30
0.0
  0
VERTEX
  5
190
330
183
100
AcDbEntity
  8
Layer 1
 62
     7
420
 16777215
370
     9
100
AcDbVertex
100
AcDb2dVertex
 10
62.58256470247458
 20
-230.7336453511387
 30
0.0
  0
VERTEX
  5
191
330
183
100
AcDbEntity
  8
Layer 1
 62
     7
420
 16777215
370
     9
100
AcDbVertex
100
AcDb2dVertex
 10
62.44240550234267
 20
-230.7618226694144
 30
0.0
  0
VERTEX
  5
192
330
183
100
AcDbEntity
  8
Layer 1
 62
     7
420
 16777215
370
     9
100
AcDbVertex
100
AcDb2dVertex
 10
62.36495478435732
 20
-230.7773932029876
 30
0.0
  0
VERTEX
  5
193
330
183
100
AcDbEntity
  8
Layer 1
 62
     7
420
 16777215
370
     9
100
AcDbVertex
100
AcDb2dVertex
 10
62.34407899709888
 20
-230.7831399596725
 30
0.0
  0
VERTEX
  5
194
330
183
100
AcDbEntity
  8
Layer 1
 62
     7
420
 16777215
370
     9
100
AcDbVertex
100
AcDb2dVertex
 10
62.26720077129561
 20
-230.8093962697183
 30
0.0
  0
VERTEX
  5
195
330
183
100
AcDbEntity
  8
Layer 1
 62
     7
420
 16777215
370
     9
100
AcDbVertex
100
AcDb2dVertex
 10
61.95178758236147
 20
-230.9171197036897
 30
0.0
  0
VERTEX
  5
196
330
183
100
AcDbEntity
  8
Layer 1
 62
     7
420
 16777215
370
     9
100
AcDbVertex
100
AcDb2dVertex
 10
61.1362106475467
 20
-231.1956646446382
 30
0.0
  0
VERTEX
  5
197
330
183
100
AcDbEntity
  8
Layer 1
 62
     7
420
 16777215
370
     9
100
AcDbVertex
100
AcDb2dVertex
 10
60.99005096288894
 20
-231.2455827320608
 30
0.0
  0
VERTEX
  5
198
330
183
100
AcDbEntity
  8
Layer 1
 62
     7
420
 16777215
370
     9
100
AcDbVertex
100
AcDb2dVertex
 10
60.89997626873223
 20
-231.2763460473217
 30
0.0
  0
VERTEX
  5
199
330
183
100
AcDbEntity
  8
Layer 1
 62
     7
420
 16777215
370
     9
100
AcDbVertex
100
AcDb2dVertex
 10
60.81925559993939
 20
-231.3130432571563
 30
0.0
  0
VERTEX
  5
19A
330
183
100
AcDbEntity
  8
Layer 1
 62
     7
420
 16777215
370
     9
100
AcDbVertex
100
AcDb2dVertex
 10
60.70268665608144
 20
-231.3706331689749
 30
0.0
  0
VERTEX
  5
19B
330
183
100
AcDbEntity
  8
Layer 1
 62
     7
420
 16777215
370
     9
100
AcDbVertex
100
AcDb2dVertex
 10
60.5419046258566
 20
-231.4500661863482
 30
0.0
  0
VERTEX
  5
19C
330
183
100
AcDbEntity
  8
Layer 1
 62
     7
420
 16777215
370
     9
100
AcDbVertex
100
AcDb2dVertex
 10
60.14997325893606
 20
-231.6436966003571
 30
0.0
  0
VERTEX
  5
19D
330
183
100
AcDbEntity
  8
Layer 1
 62
     7
420
 16777215
370
     9
100
AcDbVertex
100
AcDb2dVertex
 10
59.76800540443611
 20
-231.8324046243824
 30
0.0
  0
VERTEX
  5
19E
330
183
100
AcDbEntity
  8
Layer 1
 62
     7
420
 16777215
370
     9
100
AcDbVertex
100
AcDb2dVertex
 10
59.61967776473723
 20
-231.9056846542751
 30
0.0
  0
VERTEX
  5
19F
330
183
100
AcDbEntity
  8
Layer 1
 62
     7
420
 16777215
370
     9
100
AcDbVertex
100
AcDb2dVertex
 10
59.52054496761537
 20
-231.9546603836213
 30
0.0
  0
VERTEX
  5
1A0
330
183
100
AcDbEntity
  8
Layer 1
 62
     7
420
 16777215
370
     9
100
AcDbVertex
100
AcDb2dVertex
 10
59.4488229584332
 20
-231.9965491749911
 30
0.0
  0
VERTEX
  5
1A1
330
183
100
AcDbEntity
  8
Layer 1
 62
     7
420
 16777215
370
     9
100
AcDbVertex
100
AcDb2dVertex
 10
59.35265902247389
 20
-232.0607055865798
 30
0.0
  0
VERTEX
  5
1A2
330
183
100
AcDbEntity
  8
Layer 1
 62
     7
420
 16777215
370
     9
100
AcDbVertex
100
AcDb2dVertex
 10
59.21200506206727
 20
-232.1545438148647
 30
0.0
  0
VERTEX
  5
1A3
330
183
100
AcDbEntity
  8
Layer 1
 62
     7
420
 16777215
370
     9
100
AcDbVertex
100
AcDb2dVertex
 10
58.49338523861135
 20
-232.6339758255162
 30
0.0
  0
VERTEX
  5
1A4
330
183
100
AcDbEntity
  8
Layer 1
 62
     7
420
 16777215
370
     9
100
AcDbVertex
100
AcDb2dVertex
 10
58.34695335295161
 20
-232.7316688351898
 30
0.0
  0
VERTEX
  5
1A5
330
183
100
AcDbEntity
  8
Layer 1
 62
     7
420
 16777215
370
     9
100
AcDbVertex
100
AcDb2dVertex
 10
58.24270032163813
 20
-232.8012219407233
 30
0.0
  0
VERTEX
  5
1A6
330
183
100
AcDbEntity
  8
Layer 1
 62
     7
420
 16777215
370
     9
100
AcDbVertex
100
AcDb2dVertex
 10
58.17322368618215
 20
-232.8517837860259
 30
0.0
  0
VERTEX
  5
1A7
330
183
100
AcDbEntity
  8
Layer 1
 62
     7
420
 16777215
370
     9
100
AcDbVertex
100
AcDb2dVertex
 10
58.09748862084121
 20
-232.9179504164133
 30
0.0
  0
VERTEX
  5
1A8
330
183
100
AcDbEntity
  8
Layer 1
 62
     7
420
 16777215
370
     9
100
AcDbVertex
100
AcDb2dVertex
 10
57.97817132469367
 20
-233.0221930601273
 30
0.0
  0
VERTEX
  5
1A9
330
183
100
AcDbEntity
  8
Layer 1
 62
     7
420
 16777215
370
     9
100
AcDbVertex
100
AcDb2dVertex
 10
57.66129875179485
 20
-233.2990316726839
 30
0.0
  0
VERTEX
  5
1AA
330
183
100
AcDbEntity
  8
Layer 1
 62
     7
420
 16777215
370
     9
100
AcDbVertex
100
AcDb2dVertex
 10
57.32762339111556
 20
-233.5905501939928
 30
0.0
  0
VERTEX
  5
1AB
330
183
100
AcDbEntity
  8
Layer 1
 62
     7
420
 16777215
370
     9
100
AcDbVertex
100
AcDb2dVertex
 10
57.08216266628471
 20
-233.8049991943513
 30
0.0
  0
VERTEX
  5
1AC
330
183
100
AcDbEntity
  8
Layer 1
 62
     7
420
 16777215
370
     9
100
AcDbVertex
100
AcDb2dVertex
 10
57.02533073719696
 20
-233.8546509273919
 30
0.0
  0
VERTEX
  5
1AD
330
183
100
AcDbEntity
  8
Layer 1
 62
     7
420
 16777215
370
     9
100
AcDbVertex
100
AcDb2dVertex
 10
57.010027989256
 20
-233.8703733314668
 30
0.0
  0
VERTEX
  5
1AE
330
183
100
AcDbEntity
  8
Layer 1
 62
     7
420
 16777215
370
     9
100
AcDbVertex
100
AcDb2dVertex
 10
56.95401070992925
 20
-233.9339864482076
 30
0.0
  0
VERTEX
  5
1AF
330
183
100
AcDbEntity
  8
Layer 1
 62
     7
420
 16777215
370
     9
100
AcDbVertex
100
AcDb2dVertex
 10
56.85665169368934
 20
-234.0445471634066
 30
0.0
  0
VERTEX
  5
1B0
330
183
100
AcDbEntity
  8
Layer 1
 62
     7
420
 16777215
370
     9
100
AcDbVertex
100
AcDb2dVertex
 10
56.58435984026152
 20
-234.3537612785494
 30
0.0
  0
VERTEX
  5
1B1
330
183
100
AcDbEntity
  8
Layer 1
 62
     7
420
 16777215
370
     9
100
AcDbVertex
100
AcDb2dVertex
 10
56.28605520855159
 20
-234.6925154556428
 30
0.0
  0
VERTEX
  5
1B2
330
183
100
AcDbEntity
  8
Layer 1
 62
     7
420
 16777215
370
     9
100
AcDbVertex
100
AcDb2dVertex
 10
56.05464057813863
 20
-234.9553094734347
 30
0.0
  0
VERTEX
  5
1B3
330
183
100
AcDbEntity
  8
Layer 1
 62
     7
420
 16777215
370
     9
100
AcDbVertex
100
AcDb2dVertex
 10
55.9930491320369
 20
-235.0252526034505
 30
0.0
  0
VERTEX
  5
1B4
330
183
100
AcDbEntity
  8
Layer 1
 62
     7
420
 16777215
370
     9
100
AcDbVertex
100
AcDb2dVertex
 10
55.97736915584769
 20
-235.0439696853792
 30
0.0
  0
VERTEX
  5
1B5
330
183
100
AcDbEntity
  8
Layer 1
 62
     7
420
 16777215
370
     9
100
AcDbVertex
100
AcDb2dVertex
 10
55.93953464653463
 20
-235.1004930161864
 30
0.0
  0
VERTEX
  5
1B6
330
183
100
AcDbEntity
  8
Layer 1
 62
     7
420
 16777215
370
     9
100
AcDbVertex
100
AcDb2dVertex
 10
55.86406896826004
 20
-235.2132358949818
 30
0.0
  0
VERTEX
  5
1B7
330
183
100
AcDbEntity
  8
Layer 1
 62
     7
420
 16777215
370
     9
100
AcDbVertex
100
AcDb2dVertex
 10
55.63985586162771
 20
-235.5482018249664
 30
0.0
  0
VERTEX
  5
1B8
330
183
100
AcDbEntity
  8
Layer 1
 62
     7
420
 16777215
370
     9
100
AcDbVertex
100
AcDb2dVertex
 10
55.38395334955428
 20
-235.9305105322037
 30
0.0
  0
VERTEX
  5
1B9
330
183
100
AcDbEntity
  8
Layer 1
 62
     7
420
 16777215
370
     9
100
AcDbVertex
100
AcDb2dVertex
 10
55.17558494564266
 20
-236.2418050735626
 30
0.0
  0
VERTEX
  5
1BA
330
183
100
AcDbEntity
  8
Layer 1
 62
     7
420
 16777215
370
     9
100
AcDbVertex
100
AcDb2dVertex
 10
55.11398338224853
 20
-236.3338354873093
 30
0.0
  0
VERTEX
  5
1BB
330
183
100
AcDbEntity
  8
Layer 1
 62
     7
420
 16777215
370
     9
100
AcDbVertex
100
AcDb2dVertex
 10
55.09368294311727
 20
-236.3642325129663
 30
0.0
  0
VERTEX
  5
1BC
330
183
100
AcDbEntity
  8
Layer 1
 62
     7
420
 16777215
370
     9
100
AcDbVertex
100
AcDb2dVertex
 10
55.07198838247017
 20
-236.4083155887875
 30
0.0
  0
VERTEX
  5
1BD
330
183
100
AcDbEntity
  8
Layer 1
 62
     7
420
 16777215
370
     9
100
AcDbVertex
100
AcDb2dVertex
 10
55.01853494716854
 20
-236.5169323005831
 30
0.0
  0
VERTEX
  5
1BE
330
183
100
AcDbEntity
  8
Layer 1
 62
     7
420
 16777215
370
     9
100
AcDbVertex
100
AcDb2dVertex
 10
54.84779588295171
 20
-236.8638719430118
 30
0.0
  0
VERTEX
  5
1BF
330
183
100
AcDbEntity
  8
Layer 1
 62
     7
420
 16777215
370
     9
100
AcDbVertex
100
AcDb2dVertex
 10
54.64435461117007
 20
-237.2772620620883
 30
0.0
  0
VERTEX
  5
1C0
330
183
100
AcDbEntity
  8
Layer 1
 62
     7
420
 16777215
370
     9
100
AcDbVertex
100
AcDb2dVertex
 10
54.4710999925253
 20
-237.6293132796442
 30
0.0
  0
VERTEX
  5
1C1
330
183
100
AcDbEntity
  8
Layer 1
 62
     7
420
 16777215
370
     9
100
AcDbVertex
100
AcDb2dVertex
 10
54.41544544709895
 20
-237.7424026196747
 30
0.0
  0
VERTEX
  5
1C2
330
183
100
AcDbEntity
  8
Layer 1
 62
     7
420
 16777215
370
     9
100
AcDbVertex
100
AcDb2dVertex
 10
54.39092088772038
 20
-237.7922362175142
 30
0.0
  0
VERTEX
  5
1C3
330
183
100
AcDbEntity
  8
Layer 1
 62
     7
420
 16777215
370
     9
100
AcDbVertex
100
AcDb2dVertex
 10
54.38082357822628
 20
-237.8217044923101
 30
0.0
  0
VERTEX
  5
1C4
330
183
100
AcDbEntity
  8
Layer 1
 62
     7
420
 16777215
370
     9
100
AcDbVertex
100
AcDb2dVertex
 10
54.34757672725869
 20
-237.9203001994282
 30
0.0
  0
VERTEX
  5
1C5
330
183
100
AcDbEntity
  8
Layer 1
 62
     7
420
 16777215
370
     9
100
AcDbVertex
100
AcDb2dVertex
 10
54.23144856868959
 20
-238.2646858352815
 30
0.0
  0
VERTEX
  5
1C6
330
183
100
AcDbEntity
  8
Layer 1
 62
     7
420
 16777215
370
     9
100
AcDbVertex
100
AcDb2dVertex
 10
54.08657285152648
 20
-238.6943242329748
 30
0.0
  0
VERTEX
  5
1C7
330
183
100
AcDbEntity
  8
Layer 1
 62
     7
420
 16777215
370
     9
100
AcDbVertex
100
AcDb2dVertex
 10
53.95786763607213
 20
-239.0760079521335
 30
0.0
  0
VERTEX
  5
1C8
330
183
100
AcDbEntity
  8
Layer 1
 62
     7
420
 16777215
370
     9
100
AcDbVertex
100
AcDb2dVertex
 10
53.91361586033029
 20
-239.207239482144
 30
0.0
  0
VERTEX
  5
1C9
330
183
100
AcDbEntity
  8
Layer 1
 62
     7
420
 16777215
370
     9
100
AcDbVertex
100
AcDb2dVertex
 10
53.89025098262993
 20
-239.2765295523792
 30
0.0
  0
VERTEX
  5
1CA
330
183
100
AcDbEntity
  8
Layer 1
 62
     7
420
 16777215
370
     9
100
AcDbVertex
100
AcDb2dVertex
 10
53.88502800701836
 20
-239.298318080047
 30
0.0
  0
VERTEX
  5
1CB
330
183
100
AcDbEntity
  8
Layer 1
 62
     7
420
 16777215
370
     9
100
AcDbVertex
100
AcDb2dVertex
 10
53.86823537288863
 20
-239.3835794204869
 30
0.0
  0
VERTEX
  5
1CC
330
183
100
AcDbEntity
  8
Layer 1
 62
     7
420
 16777215
370
     9
100
AcDbVertex
100
AcDb2dVertex
 10
53.80244812904549
 20
-239.7176013821758
 30
0.0
  0
VERTEX
  5
1CD
330
183
100
AcDbEntity
  8
Layer 1
 62
     7
420
 16777215
370
     9
100
AcDbVertex
100
AcDb2dVertex
 10
53.71618096767632
 20
-240.1556061500702
 30
0.0
  0
VERTEX
  5
1CE
330
183
100
AcDbEntity
  8
Layer 1
 62
     7
420
 16777215
370
     9
100
AcDbVertex
100
AcDb2dVertex
 10
53.63638114868365
 20
-240.5607742423213
 30
0.0
  0
VERTEX
  5
1CF
330
183
100
AcDbEntity
  8
Layer 1
 62
     7
420
 16777215
370
     9
100
AcDbVertex
100
AcDb2dVertex
 10
53.60732751129819
 20
-240.7082884470022
 30
0.0
  0
VERTEX
  5
1D0
330
183
100
AcDbEntity
  8
Layer 1
 62
     7
420
 16777215
370
     9
100
AcDbVertex
100
AcDb2dVertex
 10
53.58999593197069
 20
-240.7962861770786
 30
0.0
  0
VERTEX
  5
1D1
330
183
100
AcDbEntity
  8
Layer 1
 62
     7
420
 16777215
370
     9
100
AcDbVertex
100
AcDb2dVertex
 10
53.58176374479487
 20
-240.8882560012016
 30
0.0
  0
VERTEX
  5
1D2
330
183
100
AcDbEntity
  8
Layer 1
 62
     7
420
 16777215
370
     9
100
AcDbVertex
100
AcDb2dVertex
 10
53.56125067516525
 20
-241.204728781906
 30
0.0
  0
VERTEX
  5
1D3
330
183
100
AcDbEntity
  8
Layer 1
 62
     7
420
 16777215
370
     9
100
AcDbVertex
100
AcDb2dVertex
 10
53.50548847957828
 20
-242.0650201675565
 30
0.0
  0
VERTEX
  5
1D4
330
183
100
AcDbEntity
  8
Layer 1
 62
     7
420
 16777215
370
     9
100
AcDbVertex
100
AcDb2dVertex
 10
53.49502977325872
 20
-242.2263756317171
 30
0.0
  0
VERTEX
  5
1D5
330
183
100
AcDbEntity
  8
Layer 1
 62
     7
420
 16777215
370
     9
100
AcDbVertex
100
AcDb2dVertex
 10
53.48821015402049
 20
-242.3315877673305
 30
0.0
  0
VERTEX
  5
1D6
330
183
100
AcDbEntity
  8
Layer 1
 62
     7
420
 16777215
370
     9
100
AcDbVertex
100
AcDb2dVertex
 10
53.48945488353918
 20
-242.4155600731046
 30
0.0
  0
VERTEX
  5
1D7
330
183
100
AcDbEntity
  8
Layer 1
 62
     7
420
 16777215
370
     9
100
AcDbVertex
100
AcDb2dVertex
 10
53.4972503172395
 20
-242.5358269382986
 30
0.0
  0
VERTEX
  5
1D8
330
183
100
AcDbEntity
  8
Layer 1
 62
     7
420
 16777215
370
     9
100
AcDbVertex
100
AcDb2dVertex
 10
53.5084152760145
 20
-242.7080783669624
 30
0.0
  0
VERTEX
  5
1D9
330
183
100
AcDbEntity
  8
Layer 1
 62
     7
420
 16777215
370
     9
100
AcDbVertex
100
AcDb2dVertex
 10
53.53636106868992
 20
-243.1392221634063
 30
0.0
  0
VERTEX
  5
1DA
330
183
100
AcDbEntity
  8
Layer 1
 62
     7
420
 16777215
370
     9
100
AcDbVertex
100
AcDb2dVertex
 10
53.56430686136438
 20
-243.5703659598503
 30
0.0
  0
VERTEX
  5
1DB
330
183
100
AcDbEntity
  8
Layer 1
 62
     7
420
 16777215
370
     9
100
AcDbVertex
100
AcDb2dVertex
 10
53.57547182013938
 20
-243.7426173885141
 30
0.0
  0
VERTEX
  5
1DC
330
183
100
AcDbEntity
  8
Layer 1
 62
     7
420
 16777215
370
     9
100
AcDbVertex
100
AcDb2dVertex
 10
53.58326725384002
 20
-243.8628842537081
 30
0.0
  0
VERTEX
  5
1DD
330
183
100
AcDbEntity
  8
Layer 1
 62
     7
420
 16777215
370
     9
100
AcDbVertex
100
AcDb2dVertex
 10
53.59290623604022
 20
-243.9464346537745
 30
0.0
  0
VERTEX
  5
1DE
330
183
100
AcDbEntity
  8
Layer 1
 62
     7
420
 16777215
370
     9
100
AcDbVertex
100
AcDb2dVertex
 10
53.61335830806446
 20
-244.0502760798485
 30
0.0
  0
VERTEX
  5
1DF
330
183
100
AcDbEntity
  8
Layer 1
 62
     7
420
 16777215
370
     9
100
AcDbVertex
100
AcDb2dVertex
 10
53.64472402034949
 20
-244.209529396072
 30
0.0
  0
VERTEX
  5
1E0
330
183
100
AcDbEntity
  8
Layer 1
 62
     7
420
 16777215
370
     9
100
AcDbVertex
100
AcDb2dVertex
 10
53.81195512233922
 20
-245.0586128578335
 30
0.0
  0
VERTEX
  5
1E1
330
183
100
AcDbEntity
  8
Layer 1
 62
     7
420
 16777215
370
     9
100
AcDbVertex
100
AcDb2dVertex
 10
53.84736292360998
 20
-245.238389096335
 30
0.0
  0
VERTEX
  5
1E2
330
183
100
AcDbEntity
  8
Layer 1
 62
     7
420
 16777215
370
     9
100
AcDbVertex
100
AcDb2dVertex
 10
53.8734739202139
 20
-245.3709626135981
 30
0.0
  0
VERTEX
  5
1E3
330
183
100
AcDbEntity
  8
Layer 1
 62
     7
420
 16777215
370
     9
100
AcDbVertex
100
AcDb2dVertex
 10
53.89365325618943
 20
-245.461504438797
 30
0.0
  0
VERTEX
  5
1E4
330
183
100
AcDbEntity
  8
Layer 1
 62
     7
420
 16777215
370
     9
100
AcDbVertex
100
AcDb2dVertex
 10
53.92254305530757
 20
-245.5471790241989
 30
0.0
  0
VERTEX
  5
1E5
330
183
100
AcDbEntity
  8
Layer 1
 62
     7
420
 16777215
370
     9
100
AcDbVertex
100
AcDb2dVertex
 10
53.97097221065739
 20
-245.6907988461648
 30
0.0
  0
VERTEX
  5
1E6
330
183
100
AcDbEntity
  8
Layer 1
 62
     7
420
 16777215
370
     9
100
AcDbVertex
100
AcDb2dVertex
 10
54.10398955990051
 20
-246.0852704795994
 30
0.0
  0
VERTEX
  5
1E7
330
183
100
AcDbEntity
  8
Layer 1
 62
     7
420
 16777215
370
     9
100
AcDbVertex
100
AcDb2dVertex
 10
54.24778724361635
 20
-246.511711898724
 30
0.0
  0
VERTEX
  5
1E8
330
183
100
AcDbEntity
  8
Layer 1
 62
     7
420
 16777215
370
     9
100
AcDbVertex
100
AcDb2dVertex
 10
54.35744720150181
 20
-246.8369156631624
 30
0.0
  0
VERTEX
  5
1E9
330
183
100
AcDbEntity
  8
Layer 1
 62
     7
420
 16777215
370
     9
100
AcDbVertex
100
AcDb2dVertex
 10
54.38543863941384
 20
-246.919926099757
 30
0.0
  0
VERTEX
  5
1EA
330
183
100
AcDbEntity
  8
Layer 1
 62
     7
420
 16777215
370
     9
100
AcDbVertex
100
AcDb2dVertex
 10
54.39354712654306
 20
-246.9410445937305
 30
0.0
  0
VERTEX
  5
1EB
330
183
100
AcDbEntity
  8
Layer 1
 62
     7
420
 16777215
370
     9
100
AcDbVertex
100
AcDb2dVertex
 10
54.42625981558533
 20
-247.0075163686068
 30
0.0
  0
VERTEX
  5
1EC
330
183
100
AcDbEntity
  8
Layer 1
 62
     7
420
 16777215
370
     9
100
AcDbVertex
100
AcDb2dVertex
 10
54.48821582485419
 20
-247.1334102043303
 30
0.0
  0
VERTEX
  5
1ED
330
183
100
AcDbEntity
  8
Layer 1
 62
     7
420
 16777215
370
     9
100
AcDbVertex
100
AcDb2dVertex
 10
54.66841337372039
 20
-247.4995693692356
 30
0.0
  0
VERTEX
  5
1EE
330
183
100
AcDbEntity
  8
Layer 1
 62
     7
420
 16777215
370
     9
100
AcDbVertex
100
AcDb2dVertex
 10
54.87125091243932
 20
-247.911732710281
 30
0.0
  0
VERTEX
  5
1EF
330
183
100
AcDbEntity
  8
Layer 1
 62
     7
420
 16777215
370
     9
100
AcDbVertex
100
AcDb2dVertex
 10
55.03383958030867
 20
-248.2421108493002
 30
0.0
  0
VERTEX
  5
1F0
330
183
100
AcDbEntity
  8
Layer 1
 62
     7
420
 16777215
370
     9
100
AcDbVertex
100
AcDb2dVertex
 10
55.08038781870572
 20
-248.3366962873731
 30
0.0
  0
VERTEX
  5
1F1
330
183
100
AcDbEntity
  8
Layer 1
 62
     7
420
 16777215
370
     9
100
AcDbVertex
100
AcDb2dVertex
 10
55.09445330730631
 20
-248.3649316436916
 30
0.0
  0
VERTEX
  5
1F2
330
183
100
AcDbEntity
  8
Layer 1
 62
     7
420
 16777215
370
     9
100
AcDbVertex
100
AcDb2dVertex
 10
55.12534783682777
 20
-248.4110869062816
 30
0.0
  0
VERTEX
  5
1F3
330
183
100
AcDbEntity
  8
Layer 1
 62
     7
420
 16777215
370
     9
100
AcDbVertex
100
AcDb2dVertex
 10
55.1954580055829
 20
-248.5158288557205
 30
0.0
  0
VERTEX
  5
1F4
330
183
100
AcDbEntity
  8
Layer 1
 62
     7
420
 16777215
370
     9
100
AcDbVertex
100
AcDb2dVertex
 10
55.41371350399206
 20
-248.841894343582
 30
0.0
  0
VERTEX
  5
1F5
330
183
100
AcDbEntity
  8
Layer 1
 62
     7
420
 16777215
370
     9
100
AcDbVertex
100
AcDb2dVertex
 10
55.66999628893088
 20
-249.2247711641463
 30
0.0
  0
VERTEX
  5
1F6
330
183
100
AcDbEntity
  8
Layer 1
 62
     7
420
 16777215
370
     9
100
AcDbVertex
100
AcDb2dVertex
 10
55.88508284679608
 20
-249.5461023742828
 30
0.0
  0
VERTEX
  5
1F7
330
183
100
AcDbEntity
  8
Layer 1
 62
     7
420
 16777215
370
     9
100
AcDbVertex
100
AcDb2dVertex
 10
55.95242019257473
 20
-249.6467018307124
 30
0.0
  0
VERTEX
  5
1F8
330
183
100
AcDbEntity
  8
Layer 1
 62
     7
420
 16777215
370
     9
100
AcDbVertex
100
AcDb2dVertex
 10
55.97974966398414
 20
-249.687531030861
 30
0.0
  0
VERTEX
  5
1F9
330
183
100
AcDbEntity
  8
Layer 1
 62
     7
420
 16777215
370
     9
100
AcDbVertex
100
AcDb2dVertex
 10
56.00356646990743
 20
-249.7146351924092
 30
0.0
  0
VERTEX
  5
1FA
330
183
100
AcDbEntity
  8
Layer 1
 62
     7
420
 16777215
370
     9
100
AcDbVertex
100
AcDb2dVertex
 10
56.07580457454895
 20
-249.7966686477812
 30
0.0
  0
VERTEX
  5
1FB
330
183
100
AcDbEntity
  8
Layer 1
 62
     7
420
 16777215
370
     9
100
AcDbVertex
100
AcDb2dVertex
 10
56.32015127187932
 20
-250.0741482963711
 30
0.0
  0
VERTEX
  5
1FC
330
183
100
AcDbEntity
  8
Layer 1
 62
     7
420
 16777215
370
     9
100
AcDbVertex
100
AcDb2dVertex
 10
56.62023963695732
 20
-250.4149280777125
 30
0.0
  0
VERTEX
  5
1FD
330
183
100
AcDbEntity
  8
Layer 1
 62
     7
420
 16777215
370
     9
100
AcDbVertex
100
AcDb2dVertex
 10
56.88316689020356
 20
-250.7135077705534
 30
0.0
  0
VERTEX
  5
1FE
330
183
100
AcDbEntity
  8
Layer 1
 62
     7
420
 16777215
370
     9
100
AcDbVertex
100
AcDb2dVertex
 10
56.97166298127144
 20
-250.8140037646444
 30
0.0
  0
VERTEX
  5
1FF
330
183
100
AcDbEntity
  8
Layer 1
 62
     7
420
 16777215
370
     9
100
AcDbVertex
100
AcDb2dVertex
 10
57.01603025203897
 20
-250.8643871536406
 30
0.0
  0
VERTEX
  5
200
330
183
100
AcDbEntity
  8
Layer 1
 62
     7
420
 16777215
370
     9
100
AcDbVertex
100
AcDb2dVertex
 10
57.03386235269259
 20
-250.8807471230894
 30
0.0
  0
VERTEX
  5
201
330
183
100
AcDbEntity
  8
Layer 1
 62
     7
420
 16777215
370
     9
100
AcDbVertex
100
AcDb2dVertex
 10
57.1034854039783
 20
-250.9415739366688
 30
0.0
  0
VERTEX
  5
202
330
183
100
AcDbEntity
  8
Layer 1
 62
     7
420
 16777215
370
     9
100
AcDbVertex
100
AcDb2dVertex
 10
57.36507680507866
 20
-251.1701156494289
 30
0.0
  0
VERTEX
  5
203
330
183
100
AcDbEntity
  8
Layer 1
 62
     7
420
 16777215
370
     9
100
AcDbVertex
100
AcDb2dVertex
 10
57.70228075119209
 20
-251.4647169515764
 30
0.0
  0
VERTEX
  5
204
330
183
100
AcDbEntity
  8
Layer 1
 62
     7
420
 16777215
370
     9
100
AcDbVertex
100
AcDb2dVertex
 10
58.01007981868938
 20
-251.7336284134067
 30
0.0
  0
VERTEX
  5
205
330
183
100
AcDbEntity
  8
Layer 1
 62
     7
420
 16777215
370
     9
100
AcDbVertex
100
AcDb2dVertex
 10
58.12013457807277
 20
-251.8297787574205
 30
0.0
  0
VERTEX
  5
206
330
183
100
AcDbEntity
  8
Layer 1
 62
     7
420
 16777215
370
     9
100
AcDbVertex
100
AcDb2dVertex
 10
58.18345658394065
 20
-251.8851006052169
 30
0.0
  0
VERTEX
  5
207
330
183
100
AcDbEntity
  8
Layer 1
 62
     7
420
 16777215
370
     9
100
AcDbVertex
100
AcDb2dVertex
 10
58.20056507136789
 20
-251.898611572698
 30
0.0
  0
VERTEX
  5
208
330
183
100
AcDbEntity
  8
Layer 1
 62
     7
420
 16777215
370
     9
100
AcDbVertex
100
AcDb2dVertex
 10
58.26310148235531
 20
-251.9403331566011
 30
0.0
  0
VERTEX
  5
209
330
183
100
AcDbEntity
  8
Layer 1
 62
     7
420
 16777215
370
     9
100
AcDbVertex
100
AcDb2dVertex
 10
58.53320022817805
 20
-252.1205313372762
 30
0.0
  0
VERTEX
  5
20A
330
183
100
AcDbEntity
  8
Layer 1
 62
     7
420
 16777215
370
     9
100
AcDbVertex
100
AcDb2dVertex
 10
58.90036811824991
 20
-252.3654898452911
 30
0.0
  0
VERTEX
  5
20B
330
183
100
AcDbEntity
  8
Layer 1
 62
     7
420
 16777215
370
     9
100
AcDbVertex
100
AcDb2dVertex
 10
59.24904664751269
 20
-252.5981130528604
 30
0.0
  0
VERTEX
  5
20C
330
183
100
AcDbEntity
  8
Layer 1
 62
     7
420
 16777215
370
     9
100
AcDbVertex
100
AcDb2dVertex
 10
59.38034036900964
 20
-252.6857065352954
 30
0.0
  0
VERTEX
  5
20D
330
183
100
AcDbEntity
  8
Layer 1
 62
     7
420
 16777215
370
     9
100
AcDbVertex
100
AcDb2dVertex
 10
59.46367731090753
 20
-252.7413053321988
 30
0.0
  0
VERTEX
  5
20E
330
183
100
AcDbEntity
  8
Layer 1
 62
     7
420
 16777215
370
     9
100
AcDbVertex
100
AcDb2dVertex
 10
59.53901731964309
 20
-252.7824100542221
 30
0.0
  0
VERTEX
  5
20F
330
183
100
AcDbEntity
  8
Layer 1
 62
     7
420
 16777215
370
     9
100
AcDbVertex
100
AcDb2dVertex
 10
59.65137667950357
 20
-252.8379202562727
 30
0.0
  0
VERTEX
  5
210
330
183
100
AcDbEntity
  8
Layer 1
 62
     7
420
 16777215
370
     9
100
AcDbVertex
100
AcDb2dVertex
 10
59.80919456478363
 20
-252.9158888626252
 30
0.0
  0
VERTEX
  5
211
330
183
100
AcDbEntity
  8
Layer 1
 62
     7
420
 16777215
370
     9
100
AcDbVertex
100
AcDb2dVertex
 10
60.58369159694875
 20
-253.2985226440579
 30
0.0
  0
VERTEX
  5
212
330
183
100
AcDbEntity
  8
Layer 1
 62
     7
420
 16777215
370
     9
100
AcDbVertex
100
AcDb2dVertex
 10
60.73528228696535
 20
-253.3734147566713
 30
0.0
  0
VERTEX
  5
213
330
183
100
AcDbEntity
  8
Layer 1
 62
     7
420
 16777215
370
     9
100
AcDbVertex
100
AcDb2dVertex
 10
60.83892357345827
 20
-253.4246178674854
 30
0.0
  0
VERTEX
  5
214
330
183
100
AcDbEntity
  8
Layer 1
 62
     7
420
 16777215
370
     9
100
AcDbVertex
100
AcDb2dVertex
 10
60.91559666439256
 20
-253.456933131424
 30
0.0
  0
VERTEX
  5
215
330
183
100
AcDbEntity
  8
Layer 1
 62
     7
420
 16777215
370
     9
100
AcDbVertex
100
AcDb2dVertex
 10
61.02063615366175
 20
-253.4928073905978
 30
0.0
  0
VERTEX
  5
216
330
183
100
AcDbEntity
  8
Layer 1
 62
     7
420
 16777215
370
     9
100
AcDbVertex
100
AcDb2dVertex
 10
61.17780169292658
 20
-253.5464843203692
 30
0.0
  0
VERTEX
  5
217
330
183
100
AcDbEntity
  8
Layer 1
 62
     7
420
 16777215
370
     9
100
AcDbVertex
100
AcDb2dVertex
 10
61.58252857967565
 20
-253.6847111656343
 30
0.0
  0
VERTEX
  5
218
330
183
100
AcDbEntity
  8
Layer 1
 62
     7
420
 16777215
370
     9
100
AcDbVertex
100
AcDb2dVertex
 10
61.99781264110767
 20
-253.8265436150702
 30
0.0
  0
VERTEX
  5
219
330
183
100
AcDbEntity
  8
Layer 1
 62
     7
420
 16777215
370
     9
100
AcDbVertex
100
AcDb2dVertex
 10
62.16817464872561
 20
-253.8847275500569
 30
0.0
  0
VERTEX
  5
21A
330
183
100
AcDbEntity
  8
Layer 1
 62
     7
420
 16777215
370
     9
100
AcDbVertex
100
AcDb2dVertex
 10
62.29168919368955
 20
-253.9269116165311
 30
0.0
  0
VERTEX
  5
21B
330
183
100
AcDbEntity
  8
Layer 1
 62
     7
420
 16777215
370
     9
100
AcDbVertex
100
AcDb2dVertex
 10
62.37690219732495
 20
-253.9529530072368
 30
0.0
  0
VERTEX
  5
21C
330
183
100
AcDbEntity
  8
Layer 1
 62
     7
420
 16777215
370
     9
100
AcDbVertex
100
AcDb2dVertex
 10
62.47097410860035
 20
-253.9718650314366
 30
0.0
  0
VERTEX
  5
21D
330
183
100
AcDbEntity
  8
Layer 1
 62
     7
420
 16777215
370
     9
100
AcDbVertex
100
AcDb2dVertex
 10
62.62361987682534
 20
-254.002552623764
 30
0.0
  0
VERTEX
  5
21E
330
183
100
AcDbEntity
  8
Layer 1
 62
     7
420
 16777215
370
     9
100
AcDbVertex
100
AcDb2dVertex
 10
63.47538941951955
 20
-254.1737906265409
 30
0.0
  0
VERTEX
  5
21F
330
183
100
AcDbEntity
  8
Layer 1
 62
     7
420
 16777215
370
     9
100
AcDbVertex
100
AcDb2dVertex
 10
63.80479960294937
 20
-254.2400145745427
 30
0.0
  0
VERTEX
  5
220
330
183
100
AcDbEntity
  8
Layer 1
 62
     7
420
 16777215
370
     9
100
AcDbVertex
100
AcDb2dVertex
 10
63.88508943023643
 20
-254.2561558768308
 30
0.0
  0
VERTEX
  5
221
330
183
100
AcDbEntity
  8
Layer 1
 62
     7
420
 16777215
370
     9
100
AcDbVertex
100
AcDb2dVertex
 10
63.89918955560885
 20
-254.2586433055073
 30
0.0
  0
VERTEX
  5
222
330
183
100
AcDbEntity
  8
Layer 1
 62
     7
420
 16777215
370
     9
100
AcDbVertex
100
AcDb2dVertex
 10
63.96089001145339
 20
-254.2627385543861
 30
0.0
  0
VERTEX
  5
223
330
183
100
AcDbEntity
  8
Layer 1
 62
     7
420
 16777215
370
     9
100
AcDbVertex
100
AcDb2dVertex
 10
64.0915149688361
 20
-254.2714085342558
 30
0.0
  0
VERTEX
  5
224
330
183
100
AcDbEntity
  8
Layer 1
 62
     7
420
 16777215
370
     9
100
AcDbVertex
100
AcDb2dVertex
 10
64.48848220106322
 20
-254.2977564694561
 30
0.0
  0
VERTEX
  5
225
330
183
100
AcDbEntity
  8
Layer 1
 62
     7
420
 16777215
370
     9
100
AcDbVertex
100
AcDb2dVertex
 10
64.94797887798529
 20
-254.3282546760712
 30
0.0
  0
VERTEX
  5
226
330
183
100
AcDbEntity
  8
Layer 1
 62
     7
420
 16777215
370
     9
100
AcDbVertex
100
AcDb2dVertex
 10
65.32789262529579
 20
-254.3534707190668
 30
0.0
  0
VERTEX
  5
227
330
183
100
AcDbEntity
  8
Layer 1
 62
     7
420
 16777215
370
     9
100
AcDbVertex
100
AcDb2dVertex
 10
65.44359578337648
 20
-254.3611502932582
 30
0.0
  0
VERTEX
  5
228
330
183
100
AcDbEntity
  8
Layer 1
 62
     7
420
 16777215
370
     9
100
AcDbVertex
100
AcDb2dVertex
 10
65.48611106868944
 20
-254.3639721634064
 30
0.0
  0
SEQEND
  5
229
330
183
100
AcDbEntity
  8
Layer 1
 62
     7
420
 16777215
370
     9
  0
ENDBLK
  5
182
330
17F
100
AcDbEntity
  8
0
100
AcDbBlockEnd
  0
BLOCK
  5
22C
330
22A
100
AcDbEntity
  8
0
100
AcDbBlockBegin
  2
block 20
 70
     0
 10
0.0
 20
0.0
 30
0.0
  3
block 20
  1

  0
POLYLINE
  5
22E
330
22A
100
AcDbEntity
  8
Layer 1
 62
     7
420
 16777215
370
     9
100
AcDb2dPolyline
 66
     1
 10
0.0
 20
0.0
 30
0.0
  0
VERTEX
  5
22F
330
22E
100
AcDbEntity
  8
Layer 1
 62
     7
420
 16777215
370
     9
100
AcDbVertex
100
AcDb2dVertex
 10
157.4861110686892
 20
-254.3639721634064
 30
0.0
  0
VERTEX
  5
230
330
22E
100
AcDbEntity
  8
Layer 1
 62
     7
420
 16777215
370
     9
100
AcDbVertex
100
AcDb2dVertex
 10
65.48611106868944
 20
-254.3639721634064
 30
0.0
  0
SEQEND
  5
231
330
22E
100
AcDbEntity
  8
Layer 1
 62
     7
420
 16777215
370
     9
  0
ENDBLK
  5
22D
330
22A
100
AcDbEntity
  8
0
100
AcDbBlockEnd
  0
BLOCK
  5
234
330
232
100
AcDbEntity
  8
0
100
AcDbBlockBegin
  2
block 21
 70
     0
 10
0.0
 20
0.0
 30
0.0
  3
block 21
  1

  0
POLYLINE
  5
236
330
232
100
AcDbEntity
  8
Layer 1
 62
     7
420
 16777215
370
     9
100
AcDb2dPolyline
 66
     1
 10
0.0
 20
0.0
 30
0.0
  0
VERTEX
  5
237
330
236
100
AcDbEntity
  8
Layer 1
 62
     7
420
 16777215
370
     9
100
AcDbVertex
100
AcDb2dVertex
 10
111.4861110686895
 20
-218.3639721634064
 30
0.0
  0
VERTEX
  5
238
330
236
100
AcDbEntity
  8
Layer 1
 62
     7
420
 16777215
370
     9
100
AcDbVertex
100
AcDb2dVertex
 10
41.48611106868956
 20
-218.3639721634064
 30
0.0
  0
SEQEND
  5
239
330
236
100
AcDbEntity
  8
Layer 1
 62
     7
420
 16777215
370
     9
  0
ENDBLK
  5
235
330
232
100
AcDbEntity
  8
0
100
AcDbBlockEnd
  0
BLOCK
  5
23C
330
23A
100
AcDbEntity
  8
0
100
AcDbBlockBegin
  2
block 22
 70
     0
 10
0.0
 20
0.0
 30
0.0
  3
block 22
  1

  0
SPLINE
  5
23E
330
23A
100
AcDbEntity
  8
Layer 1
 62
     7
420
 16777215
370
     9
100
AcDbSpline
210
0.0
220
0.0
230
1.0
 70
     8
 71
     3
 72
    53
 73
    49
 74
     0
 42
0.0000000001
 43
0.0000000001
 12
1.0
 22
0.0
 32
0.0
 13
1.0
 23
0.0
 33
0.0
 40
0.0
 40
0.0
 40
0.0
 40
0.0
 40
1.0
 40
1.0
 40
1.0
 40
2.0
 40
2.0
 40
2.0
 40
3.0
 40
3.0
 40
3.0
 40
4.0
 40
4.0
 40
4.0
 40
5.0
 40
5.0
 40
5.0
 40
6.0
 40
6.0
 40
6.0
 40
7.0
 40
7.0
 40
7.0
 40
8.0
 40
8.0
 40
8.0
 40
9.0
 40
9.0
 40
9.0
 40
10.0
 40
10.0
 40
10.0
 40
11.0
 40
11.0
 40
11.0
 40
12.0
 40
12.0
 40
12.0
 40
13.0
 40
13.0
 40
13.0
 40
14.0
 40
14.0
 40
14.0
 40
15.0
 40
15.0
 40
15.0
 40
16.0
 40
16.0
 40
16.0
 40
16.0
 10
41.48611106868956
 20
-218.3639721634064
 30
0.0
 10
41.48611106868956
 20
-218.3639721634064
 30
0.0
 10
39.5094110686893
 20
-218.4618721634064
 30
0.0
 10
39.5094110686893
 20
-218.4618721634064
 30
0.0
 10
39.5094110686893
 20
-218.4618721634064
 30
0.0
 10
39.5094110686893
 20
-218.4618721634064
 30
0.0
 10
37.56611106868935
 20
-218.7517721634065
 30
0.0
 10
35.66941106868935
 20
-219.2284721634065
 30
0.0
 10
35.66941106868935
 20
-219.2284721634065
 30
0.0
 10
35.66941106868935
 20
-219.2284721634065
 30
0.0
 10
35.66941106868935
 20
-219.2284721634065
 30
0.0
 10
33.83241106868936
 20
-219.8863721634063
 30
0.0
 10
33.83241106868936
 20
-219.8863721634063
 30
0.0
 10
33.83241106868936
 20
-219.8863721634063
 30
0.0
 10
33.83241106868936
 20
-219.8863721634063
 30
0.0
 10
32.06831106868931
 20
-220.7200721634063
 30
0.0
 10
30.39011106868944
 20
-221.7241721634061
 30
0.0
 10
30.39011106868944
 20
-221.7241721634061
 30
0.0
 10
30.39011106868944
 20
-221.7241721634061
 30
0.0
 10
30.39011106868944
 20
-221.7241721634061
 30
0.0
 10
28.81101106868934
 20
-222.8932721634064
 30
0.0
 10
28.81101106868934
 20
-222.8932721634064
 30
0.0
 10
28.81101106868934
 20
-222.8932721634064
 30
0.0
 10
28.81101106868934
 20
-222.8932721634064
 30
0.0
 10
27.34401106868959
 20
-224.2218721634065
 30
0.0
 10
26.01541106868954
 20
-225.6888721634062
 30
0.0
 10
26.01541106868954
 20
-225.6888721634062
 30
0.0
 10
26.01541106868954
 20
-225.6888721634062
 30
0.0
 10
26.01541106868954
 20
-225.6888721634062
 30
0.0
 10
24.8463110686895
 20
-227.267972163406
 30
0.0
 10
24.8463110686895
 20
-227.267972163406
 30
0.0
 10
24.8463110686895
 20
-227.267972163406
 30
0.0
 10
24.8463110686895
 20
-227.267972163406
 30
0.0
 10
23.84221106868934
 20
-228.9461721634065
 30
0.0
 10
23.00851106868945
 20
-230.7103721634064
 30
0.0
 10
23.00851106868945
 20
-230.7103721634064
 30
0.0
 10
23.00851106868945
 20
-230.7103721634064
 30
0.0
 10
23.00851106868945
 20
-230.7103721634064
 30
0.0
 10
22.35061106868954
 20
-232.5472721634066
 30
0.0
 10
22.35061106868954
 20
-232.5472721634066
 30
0.0
 10
22.35061106868954
 20
-232.5472721634066
 30
0.0
 10
22.35061106868954
 20
-232.5472721634066
 30
0.0
 10
21.87391106868933
 20
-234.4439721634059
 30
0.0
 10
21.58401106868952
 20
-236.3872721634062
 30
0.0
 10
21.58401106868952
 20
-236.3872721634062
 30
0.0
 10
21.58401106868952
 20
-236.3872721634062
 30
0.0
 10
21.58401106868952
 20
-236.3872721634062
 30
0.0
 10
21.48611106868949
 20
-238.3639721634065
 30
0.0
 10
21.48611106868949
 20
-238.3639721634065
 30
0.0
  0
ENDBLK
  5
23D
330
23A
100
AcDbEntity
  8
0
100
AcDbBlockEnd
  0
BLOCK
  5
241
330
23F
100
AcDbEntity
  8
0
100
AcDbBlockBegin
  2
block 23
 70
     0
 10
0.0
 20
0.0
 30
0.0
  3
block 23
  1

  0
POLYLINE
  5
243
330
23F
100
AcDbEntity
  8
Layer 1
 62
     7
420
 16777215
370
     9
100
AcDb2dPolyline
 66
     1
 10
0.0
 20
0.0
 30
0.0
  0
VERTEX
  5
244
330
243
100
AcDbEntity
  8
Layer 1
 62
     7
420
 16777215
370
     9
100
AcDbVertex
100
AcDb2dVertex
 10
21.48611106868949
 20
-238.3639721634065
 30
0.0
  0
VERTEX
  5
245
330
243
100
AcDbEntity
  8
Layer 1
 62
     7
420
 16777215
370
     9
100
AcDbVertex
100
AcDb2dVertex
 10
21.48611106868949
 20
-378.3639721634063
 30
0.0
  0
SEQEND
  5
246
330
243
100
AcDbEntity
  8
Layer 1
 62
     7
420
 16777215
370
     9
  0
ENDBLK
  5
242
330
23F
100
AcDbEntity
  8
0
100
AcDbBlockEnd
  0
BLOCK
  5
249
330
247
100
AcDbEntity
  8
0
100
AcDbBlockBegin
  2
block 24
 70
     0
 10
0.0
 20
0.0
 30
0.0
  3
block 24
  1

  0
SPLINE
  5
24B
330
247
100
AcDbEntity
  8
Layer 1
 62
     7
420
 16777215
370
     9
100
AcDbSpline
210
0.0
220
0.0
230
1.0
 70
     8
 71
     3
 72
    53
 73
    49
 74
     0
 42
0.0000000001
 43
0.0000000001
 12
1.0
 22
0.0
 32
0.0
 13
1.0
 23
0.0
 33
0.0
 40
0.0
 40
0.0
 40
0.0
 40
0.0
 40
1.0
 40
1.0
 40
1.0
 40
2.0
 40
2.0
 40
2.0
 40
3.0
 40
3.0
 40
3.0
 40
4.0
 40
4.0
 40
4.0
 40
5.0
 40
5.0
 40
5.0
 40
6.0
 40
6.0
 40
6.0
 40
7.0
 40
7.0
 40
7.0
 40
8.0
 40
8.0
 40
8.0
 40
9.0
 40
9.0
 40
9.0
 40
10.0
 40
10.0
 40
10.0
 40
11.0
 40
11.0
 40
11.0
 40
12.0
 40
12.0
 40
12.0
 40
13.0
 40
13.0
 40
13.0
 40
14.0
 40
14.0
 40
14.0
 40
15.0
 40
15.0
 40
15.0
 40
16.0
 40
16.0
 40
16.0
 40
16.0
 10
21.48611106868949
 20
-378.3639721634063
 30
0.0
 10
21.48611106868949
 20
-378.3639721634063
 30
0.0
 10
21.58401106868952
 20
-380.3406721634065
 30
0.0
 10
21.58401106868952
 20
-380.3406721634065
 30
0.0
 10
21.58401106868952
 20
-380.3406721634065
 30
0.0
 10
21.58401106868952
 20
-380.3406721634065
 30
0.0
 10
21.87391106868933
 20
-382.2839721634061
 30
0.0
 10
22.35061106868954
 20
-384.1806721634068
 30
0.0
 10
22.35061106868954
 20
-384.1806721634068
 30
0.0
 10
22.35061106868954
 20
-384.1806721634068
 30
0.0
 10
22.35061106868954
 20
-384.1806721634068
 30
0.0
 10
23.00851106868945
 20
-386.0176721634065
 30
0.0
 10
23.00851106868945
 20
-386.0176721634065
 30
0.0
 10
23.00851106868945
 20
-386.0176721634065
 30
0.0
 10
23.00851106868945
 20
-386.0176721634065
 30
0.0
 10
23.84221106868934
 20
-387.7817721634043
 30
0.0
 10
24.8463110686895
 20
-389.4599721634061
 30
0.0
 10
24.8463110686895
 20
-389.4599721634061
 30
0.0
 10
24.8463110686895
 20
-389.4599721634061
 30
0.0
 10
24.8463110686895
 20
-389.4599721634061
 30
0.0
 10
26.01541106868954
 20
-391.0390721634071
 30
0.0
 10
26.01541106868954
 20
-391.0390721634071
 30
0.0
 10
26.01541106868954
 20
-391.0390721634071
 30
0.0
 10
26.01541106868954
 20
-391.0390721634071
 30
0.0
 10
27.34401106868959
 20
-392.5060721634075
 30
0.0
 10
28.81101106868934
 20
-393.8346721634069
 30
0.0
 10
28.81101106868934
 20
-393.8346721634069
 30
0.0
 10
28.81101106868934
 20
-393.8346721634069
 30
0.0
 10
28.81101106868934
 20
-393.8346721634069
 30
0.0
 10
30.39011106868944
 20
-395.0037721634079
 30
0.0
 10
30.39011106868944
 20
-395.0037721634079
 30
0.0
 10
30.39011106868944
 20
-395.0037721634079
 30
0.0
 10
30.39011106868944
 20
-395.0037721634079
 30
0.0
 10
32.06831106868931
 20
-396.0078721634052
 30
0.0
 10
33.83241106868936
 20
-396.8415721634057
 30
0.0
 10
33.83241106868936
 20
-396.8415721634057
 30
0.0
 10
33.83241106868936
 20
-396.8415721634057
 30
0.0
 10
33.83241106868936
 20
-396.8415721634057
 30
0.0
 10
35.66941106868935
 20
-397.4994721634082
 30
0.0
 10
35.66941106868935
 20
-397.4994721634082
 30
0.0
 10
35.66941106868935
 20
-397.4994721634082
 30
0.0
 10
35.66941106868935
 20
-397.4994721634082
 30
0.0
 10
37.56611106868935
 20
-397.9761721634049
 30
0.0
 10
39.5094110686893
 20
-398.2660721634069
 30
0.0
 10
39.5094110686893
 20
-398.2660721634069
 30
0.0
 10
39.5094110686893
 20
-398.2660721634069
 30
0.0
 10
39.5094110686893
 20
-398.2660721634069
 30
0.0
 10
41.48611106868956
 20
-398.3639721634063
 30
0.0
 10
41.48611106868956
 20
-398.3639721634063
 30
0.0
  0
ENDBLK
  5
24A
330
247
100
AcDbEntity
  8
0
100
AcDbBlockEnd
  0
BLOCK
  5
24E
330
24C
100
AcDbEntity
  8
0
100
AcDbBlockBegin
  2
block 25
 70
     0
 10
0.0
 20
0.0
 30
0.0
  3
block 25
  1

  0
POLYLINE
  5
250
330
24C
100
AcDbEntity
  8
Layer 1
 62
     7
420
 16777215
370
     9
100
AcDb2dPolyline
 66
     1
 10
0.0
 20
0.0
 30
0.0
  0
VERTEX
  5
251
330
250
100
AcDbEntity
  8
Layer 1
 62
     7
420
 16777215
370
     9
100
AcDbVertex
100
AcDb2dVertex
 10
41.48611106868956
 20
-398.3639721634063
 30
0.0
  0
VERTEX
  5
252
330
250
100
AcDbEntity
  8
Layer 1
 62
     7
420
 16777215
370
     9
100
AcDbVertex
100
AcDb2dVertex
 10
111.4861110686895
 20
-398.3639721634063
 30
0.0
  0
SEQEND
  5
253
330
250
100
AcDbEntity
  8
Layer 1
 62
     7
420
 16777215
370
     9
  0
ENDBLK
  5
24F
330
24C
100
AcDbEntity
  8
0
100
AcDbBlockEnd
  0
BLOCK
  5
256
330
254
100
AcDbEntity
  8
0
100
AcDbBlockBegin
  2
block 26
 70
     0
 10
0.0
 20
0.0
 30
0.0
  3
block 26
  1

  0
POLYLINE
  5
258
330
254
100
AcDbEntity
  8
Layer 1
 62
     7
420
 16777215
370
     9
100
AcDb2dPolyline
 66
     1
 10
0.0
 20
0.0
 30
0.0
  0
VERTEX
  5
259
330
258
100
AcDbEntity
  8
Layer 1
 62
     7
420
 16777215
370
     9
100
AcDbVertex
100
AcDb2dVertex
 10
181.4861110686894
 20
-398.3639721634063
 30
0.0
  0
VERTEX
  5
25A
330
258
100
AcDbEntity
  8
Layer 1
 62
     7
420
 16777215
370
     9
100
AcDbVertex
100
AcDb2dVertex
 10
111.4861110686895
 20
-398.3639721634063
 30
0.0
  0
SEQEND
  5
25B
330
258
100
AcDbEntity
  8
Layer 1
 62
     7
420
 16777215
370
     9
  0
ENDBLK
  5
257
330
254
100
AcDbEntity
  8
0
100
AcDbBlockEnd
  0
BLOCK
  5
25E
330
25C
100
AcDbEntity
  8
0
100
AcDbBlockBegin
  2
block 27
 70
     0
 10
0.0
 20
0.0
 30
0.0
  3
block 27
  1

  0
SPLINE
  5
260
330
25C
100
AcDbEntity
  8
Layer 1
 62
     7
420
 16777215
370
     9
100
AcDbSpline
210
0.0
220
0.0
230
1.0
 70
     8
 71
     3
 72
    53
 73
    49
 74
     0
 42
0.0000000001
 43
0.0000000001
 12
1.0
 22
0.0
 32
0.0
 13
1.0
 23
0.0
 33
0.0
 40
0.0
 40
0.0
 40
0.0
 40
0.0
 40
1.0
 40
1.0
 40
1.0
 40
2.0
 40
2.0
 40
2.0
 40
3.0
 40
3.0
 40
3.0
 40
4.0
 40
4.0
 40
4.0
 40
5.0
 40
5.0
 40
5.0
 40
6.0
 40
6.0
 40
6.0
 40
7.0
 40
7.0
 40
7.0
 40
8.0
 40
8.0
 40
8.0
 40
9.0
 40
9.0
 40
9.0
 40
10.0
 40
10.0
 40
10.0
 40
11.0
 40
11.0
 40
11.0
 40
12.0
 40
12.0
 40
12.0
 40
13.0
 40
13.0
 40
13.0
 40
14.0
 40
14.0
 40
14.0
 40
15.0
 40
15.0
 40
15.0
 40
16.0
 40
16.0
 40
16.0
 40
16.0
 10
181.4861110686894
 20
-398.3639721634063
 30
0.0
 10
181.4861110686894
 20
-398.3639721634063
 30
0.0
 10
183.4628110686896
 20
-398.2660721634069
 30
0.0
 10
183.4628110686896
 20
-398.2660721634069
 30
0.0
 10
183.4628110686896
 20
-398.2660721634069
 30
0.0
 10
183.4628110686896
 20
-398.2660721634069
 30
0.0
 10
185.4061110686893
 20
-397.9761721634049
 30
0.0
 10
187.3028110686893
 20
-397.4994721634082
 30
0.0
 10
187.3028110686893
 20
-397.4994721634082
 30
0.0
 10
187.3028110686893
 20
-397.4994721634082
 30
0.0
 10
187.3028110686893
 20
-397.4994721634082
 30
0.0
 10
189.1398110686896
 20
-396.8415721634057
 30
0.0
 10
189.1398110686896
 20
-396.8415721634057
 30
0.0
 10
189.1398110686896
 20
-396.8415721634057
 30
0.0
 10
189.1398110686896
 20
-396.8415721634057
 30
0.0
 10
190.9039110686893
 20
-396.0078721634052
 30
0.0
 10
192.5821110686892
 20
-395.0037721634079
 30
0.0
 10
192.5821110686892
 20
-395.0037721634079
 30
0.0
 10
192.5821110686892
 20
-395.0037721634079
 30
0.0
 10
192.5821110686892
 20
-395.0037721634079
 30
0.0
 10
194.1612110686896
 20
-393.8346721634069
 30
0.0
 10
194.1612110686896
 20
-393.8346721634069
 30
0.0
 10
194.1612110686896
 20
-393.8346721634069
 30
0.0
 10
194.1612110686896
 20
-393.8346721634069
 30
0.0
 10
195.6282110686893
 20
-392.5060721634075
 30
0.0
 10
196.9568110686894
 20
-391.0390721634071
 30
0.0
 10
196.9568110686894
 20
-391.0390721634071
 30
0.0
 10
196.9568110686894
 20
-391.0390721634071
 30
0.0
 10
196.9568110686894
 20
-391.0390721634071
 30
0.0
 10
198.1259110686898
 20
-389.4599721634061
 30
0.0
 10
198.1259110686898
 20
-389.4599721634061
 30
0.0
 10
198.1259110686898
 20
-389.4599721634061
 30
0.0
 10
198.1259110686898
 20
-389.4599721634061
 30
0.0
 10
199.1300110686896
 20
-387.7817721634043
 30
0.0
 10
199.9637110686895
 20
-386.0176721634065
 30
0.0
 10
199.9637110686895
 20
-386.0176721634065
 30
0.0
 10
199.9637110686895
 20
-386.0176721634065
 30
0.0
 10
199.9637110686895
 20
-386.0176721634065
 30
0.0
 10
200.6216110686894
 20
-384.1806721634068
 30
0.0
 10
200.6216110686894
 20
-384.1806721634068
 30
0.0
 10
200.6216110686894
 20
-384.1806721634068
 30
0.0
 10
200.6216110686894
 20
-384.1806721634068
 30
0.0
 10
201.0983110686893
 20
-382.2839721634061
 30
0.0
 10
201.3882110686894
 20
-380.3406721634065
 30
0.0
 10
201.3882110686894
 20
-380.3406721634065
 30
0.0
 10
201.3882110686894
 20
-380.3406721634065
 30
0.0
 10
201.3882110686894
 20
-380.3406721634065
 30
0.0
 10
201.4861110686894
 20
-378.3639721634063
 30
0.0
 10
201.4861110686894
 20
-378.3639721634063
 30
0.0
  0
ENDBLK
  5
25F
330
25C
100
AcDbEntity
  8
0
100
AcDbBlockEnd
  0
BLOCK
  5
263
330
261
100
AcDbEntity
  8
0
100
AcDbBlockBegin
  2
block 28
 70
     0
 10
0.0
 20
0.0
 30
0.0
  3
block 28
  1

  0
POLYLINE
  5
265
330
261
100
AcDbEntity
  8
Layer 1
 62
     7
420
 16777215
370
     9
100
AcDb2dPolyline
 66
     1
 10
0.0
 20
0.0
 30
0.0
  0
VERTEX
  5
266
330
265
100
AcDbEntity
  8
Layer 1
 62
     7
420
 16777215
370
     9
100
AcDbVertex
100
AcDb2dVertex
 10
201.4861110686894
 20
-238.3639721634065
 30
0.0
  0
VERTEX
  5
267
330
265
100
AcDbEntity
  8
Layer 1
 62
     7
420
 16777215
370
     9
100
AcDbVertex
100
AcDb2dVertex
 10
201.4861110686894
 20
-378.3639721634063
 30
0.0
  0
SEQEND
  5
268
330
265
100
AcDbEntity
  8
Layer 1
 62
     7
420
 16777215
370
     9
  0
ENDBLK
  5
264
330
261
100
AcDbEntity
  8
0
100
AcDbBlockEnd
  0
BLOCK
  5
26B
330
269
100
AcDbEntity
  8
0
100
AcDbBlockBegin
  2
block 29
 70
     0
 10
0.0
 20
0.0
 30
0.0
  3
block 29
  1

  0
SPLINE
  5
26D
330
269
100
AcDbEntity
  8
Layer 1
 62
     7
420
 16777215
370
     9
100
AcDbSpline
210
0.0
220
0.0
230
1.0
 70
     8
 71
     3
 72
    53
 73
    49
 74
     0
 42
0.0000000001
 43
0.0000000001
 12
1.0
 22
0.0
 32
0.0
 13
1.0
 23
0.0
 33
0.0
 40
0.0
 40
0.0
 40
0.0
 40
0.0
 40
1.0
 40
1.0
 40
1.0
 40
2.0
 40
2.0
 40
2.0
 40
3.0
 40
3.0
 40
3.0
 40
4.0
 40
4.0
 40
4.0
 40
5.0
 40
5.0
 40
5.0
 40
6.0
 40
6.0
 40
6.0
 40
7.0
 40
7.0
 40
7.0
 40
8.0
 40
8.0
 40
8.0
 40
9.0
 40
9.0
 40
9.0
 40
10.0
 40
10.0
 40
10.0
 40
11.0
 40
11.0
 40
11.0
 40
12.0
 40
12.0
 40
12.0
 40
13.0
 40
13.0
 40
13.0
 40
14.0
 40
14.0
 40
14.0
 40
15.0
 40
15.0
 40
15.0
 40
16.0
 40
16.0
 40
16.0
 40
16.0
 10
201.4861110686894
 20
-238.3639721634065
 30
0.0
 10
201.4861110686894
 20
-238.3639721634065
 30
0.0
 10
201.3882110686894
 20
-236.3872721634062
 30
0.0
 10
201.3882110686894
 20
-236.3872721634062
 30
0.0
 10
201.3882110686894
 20
-236.3872721634062
 30
0.0
 10
201.3882110686894
 20
-236.3872721634062
 30
0.0
 10
201.0983110686893
 20
-234.4439721634059
 30
0.0
 10
200.6216110686894
 20
-232.5472721634066
 30
0.0
 10
200.6216110686894
 20
-232.5472721634066
 30
0.0
 10
200.6216110686894
 20
-232.5472721634066
 30
0.0
 10
200.6216110686894
 20
-232.5472721634066
 30
0.0
 10
199.9637110686895
 20
-230.7103721634064
 30
0.0
 10
199.9637110686895
 20
-230.7103721634064
 30
0.0
 10
199.9637110686895
 20
-230.7103721634064
 30
0.0
 10
199.9637110686895
 20
-230.7103721634064
 30
0.0
 10
199.1300110686896
 20
-228.9461721634065
 30
0.0
 10
198.1259110686898
 20
-227.267972163406
 30
0.0
 10
198.1259110686898
 20
-227.267972163406
 30
0.0
 10
198.1259110686898
 20
-227.267972163406
 30
0.0
 10
198.1259110686898
 20
-227.267972163406
 30
0.0
 10
196.9568110686894
 20
-225.6888721634062
 30
0.0
 10
196.9568110686894
 20
-225.6888721634062
 30
0.0
 10
196.9568110686894
 20
-225.6888721634062
 30
0.0
 10
196.9568110686894
 20
-225.6888721634062
 30
0.0
 10
195.6282110686893
 20
-224.2218721634065
 30
0.0
 10
194.1612110686896
 20
-222.8932721634064
 30
0.0
 10
194.1612110686896
 20
-222.8932721634064
 30
0.0
 10
194.1612110686896
 20
-222.8932721634064
 30
0.0
 10
194.1612110686896
 20
-222.8932721634064
 30
0.0
 10
192.5821110686892
 20
-221.7241721634061
 30
0.0
 10
192.5821110686892
 20
-221.7241721634061
 30
0.0
 10
192.5821110686892
 20
-221.7241721634061
 30
0.0
 10
192.5821110686892
 20
-221.7241721634061
 30
0.0
 10
190.9039110686893
 20
-220.7200721634063
 30
0.0
 10
189.1398110686896
 20
-219.8863721634063
 30
0.0
 10
189.1398110686896
 20
-219.8863721634063
 30
0.0
 10
189.1398110686896
 20
-219.8863721634063
 30
0.0
 10
189.1398110686896
 20
-219.8863721634063
 30
0.0
 10
187.3028110686893
 20
-219.2284721634065
 30
0.0
 10
187.3028110686893
 20
-219.2284721634065
 30
0.0
 10
187.3028110686893
 20
-219.2284721634065
 30
0.0
 10
187.3028110686893
 20
-219.2284721634065
 30
0.0
 10
185.4061110686893
 20
-218.7517721634065
 30
0.0
 10
183.4628110686896
 20
-218.4618721634064
 30
0.0
 10
183.4628110686896
 20
-218.4618721634064
 30
0.0
 10
183.4628110686896
 20
-218.4618721634064
 30
0.0
 10
183.4628110686896
 20
-218.4618721634064
 30
0.0
 10
181.4861110686894
 20
-218.3639721634064
 30
0.0
 10
181.4861110686894
 20
-218.3639721634064
 30
0.0
  0
ENDBLK
  5
26C
330
269
100
AcDbEntity
  8
0
100
AcDbBlockEnd
  0
BLOCK
  5
270
330
26E
100
AcDbEntity
  8
0
100
AcDbBlockBegin
  2
block 30
 70
     0
 10
0.0
 20
0.0
 30
0.0
  3
block 30
  1

  0
POLYLINE
  5
272
330
26E
100
AcDbEntity
  8
Layer 1
 62
     7
420
 16777215
370
     9
100
AcDb2dPolyline
 66
     1
 10
0.0
 20
0.0
 30
0.0
  0
VERTEX
  5
273
330
272
100
AcDbEntity
  8
Layer 1
 62
     7
420
 16777215
370
     9
100
AcDbVertex
100
AcDb2dVertex
 10
111.4861110686895
 20
-218.3639721634064
 30
0.0
  0
VERTEX
  5
274
330
272
100
AcDbEntity
  8
Layer 1
 62
     7
420
 16777215
370
     9
100
AcDbVertex
100
AcDb2dVertex
 10
181.4861110686894
 20
-218.3639721634064
 30
0.0
  0
SEQEND
  5
275
330
272
100
AcDbEntity
  8
Layer 1
 62
     7
420
 16777215
370
     9
  0
ENDBLK
  5
271
330
26E
100
AcDbEntity
  8
0
100
AcDbBlockEnd
  0
BLOCK
  5
278
330
276
100
AcDbEntity
  8
0
100
AcDbBlockBegin
  2
block 31
 70
     0
 10
0.0
 20
0.0
 30
0.0
  3
block 31
  1

  0
POLYLINE
  5
27A
330
276
100
AcDbEntity
  8
Layer 1
 62
     7
420
 16777215
370
     9
100
AcDb2dPolyline
 66
     1
 10
0.0
 20
0.0
 30
0.0
  0
VERTEX
  5
27B
330
27A
100
AcDbEntity
  8
Layer 1
 62
     7
420
 16777215
370
     9
100
AcDbVertex
100
AcDb2dVertex
 10
53.28611106868933
 20
-268.3639721634062
 30
0.0
  0
VERTEX
  5
27C
330
27A
100
AcDbEntity
  8
Layer 1
 62
     7
420
 16777215
370
     9
100
AcDbVertex
100
AcDb2dVertex
 10
59.48611106868955
 20
-268.3639721634062
 30
0.0
  0
SEQEND
  5
27D
330
27A
100
AcDbEntity
  8
Layer 1
 62
     7
420
 16777215
370
     9
  0
ENDBLK
  5
279
330
276
100
AcDbEntity
  8
0
100
AcDbBlockEnd
  0
BLOCK
  5
280
330
27E
100
AcDbEntity
  8
0
100
AcDbBlockBegin
  2
block 32
 70
     0
 10
0.0
 20
0.0
 30
0.0
  3
block 32
  1

  0
POLYLINE
  5
282
330
27E
100
AcDbEntity
  8
Layer 1
 62
     7
420
 16777215
370
     9
100
AcDb2dPolyline
 66
     1
 10
0.0
 20
0.0
 30
0.0
  0
VERTEX
  5
283
330
282
100
AcDbEntity
  8
Layer 1
 62
     7
420
 16777215
370
     9
100
AcDbVertex
100
AcDb2dVertex
 10
53.28611106868933
 20
-268.3639721634062
 30
0.0
  0
VERTEX
  5
284
330
282
100
AcDbEntity
  8
Layer 1
 62
     7
420
 16777215
370
     9
100
AcDbVertex
100
AcDb2dVertex
 10
53.28611106868933
 20
-378.3639721634063
 30
0.0
  0
SEQEND
  5
285
330
282
100
AcDbEntity
  8
Layer 1
 62
     7
420
 16777215
370
     9
  0
ENDBLK
  5
281
330
27E
100
AcDbEntity
  8
0
100
AcDbBlockEnd
  0
BLOCK
  5
288
330
286
100
AcDbEntity
  8
0
100
AcDbBlockBegin
  2
block 33
 70
     0
 10
0.0
 20
0.0
 30
0.0
  3
block 33
  1

  0
POLYLINE
  5
28A
330
286
100
AcDbEntity
  8
Layer 1
 62
     7
420
 16777215
370
     9
100
AcDb2dPolyline
 66
     1
 10
0.0
 20
0.0
 30
0.0
  0
VERTEX
  5
28B
330
28A
100
AcDbEntity
  8
Layer 1
 62
     7
420
 16777215
370
     9
100
AcDbVertex
100
AcDb2dVertex
 10
59.48611106868955
 20
-378.3639721634063
 30
0.0
  0
VERTEX
  5
28C
330
28A
100
AcDbEntity
  8
Layer 1
 62
     7
420
 16777215
370
     9
100
AcDbVertex
100
AcDb2dVertex
 10
53.28611106868933
 20
-378.3639721634063
 30
0.0
  0
SEQEND
  5
28D
330
28A
100
AcDbEntity
  8
Layer 1
 62
     7
420
 16777215
370
     9
  0
ENDBLK
  5
289
330
286
100
AcDbEntity
  8
0
100
AcDbBlockEnd
  0
BLOCK
  5
290
330
28E
100
AcDbEntity
  8
0
100
AcDbBlockBegin
  2
block 34
 70
     0
 10
0.0
 20
0.0
 30
0.0
  3
block 34
  1

  0
POLYLINE
  5
292
330
28E
100
AcDbEntity
  8
Layer 1
 62
     7
420
 16777215
370
     9
100
AcDb2dPolyline
 66
     1
 10
0.0
 20
0.0
 30
0.0
  0
VERTEX
  5
293
330
292
100
AcDbEntity
  8
Layer 1
 62
     7
420
 16777215
370
     9
100
AcDbVertex
100
AcDb2dVertex
 10
59.48611106868955
 20
-378.3639721634063
 30
0.0
  0
VERTEX
  5
294
330
292
100
AcDbEntity
  8
Layer 1
 62
     7
420
 16777215
370
     9
100
AcDbVertex
100
AcDb2dVertex
 10
59.48611106868955
 20
-268.3639721634062
 30
0.0
  0
SEQEND
  5
295
330
292
100
AcDbEntity
  8
Layer 1
 62
     7
420
 16777215
370
     9
  0
ENDBLK
  5
291
330
28E
100
AcDbEntity
  8
0
100
AcDbBlockEnd
  0
BLOCK
  5
298
330
296
100
AcDbEntity
  8
0
100
AcDbBlockBegin
  2
block 35
 70
     0
 10
0.0
 20
0.0
 30
0.0
  3
block 35
  1

  0
POLYLINE
  5
29A
330
296
100
AcDbEntity
  8
Layer 1
 62
     7
420
 16777215
370
     9
100
AcDb2dPolyline
 66
     1
 10
0.0
 20
0.0
 30
0.0
  0
VERTEX
  5
29B
330
29A
100
AcDbEntity
  8
Layer 1
 62
     7
420
 16777215
370
     9
100
AcDbVertex
100
AcDb2dVertex
 10
69.08611106868958
 20
-262.163972163406
 30
0.0
  0
VERTEX
  5
29C
330
29A
100
AcDbEntity
  8
Layer 1
 62
     7
420
 16777215
370
     9
100
AcDbVertex
100
AcDb2dVertex
 10
163.4861110686894
 20
-262.163972163406
 30
0.0
  0
SEQEND
  5
29D
330
29A
100
AcDbEntity
  8
Layer 1
 62
     7
420
 16777215
370
     9
  0
ENDBLK
  5
299
330
296
100
AcDbEntity
  8
0
100
AcDbBlockEnd
  0
BLOCK
  5
2A0
330
29E
100
AcDbEntity
  8
0
100
AcDbBlockBegin
  2
block 36
 70
     0
 10
0.0
 20
0.0
 30
0.0
  3
block 36
  1

  0
POLYLINE
  5
2A2
330
29E
100
AcDbEntity
  8
Layer 1
 62
     7
420
 16777215
370
     9
100
AcDb2dPolyline
 66
     1
 10
0.0
 20
0.0
 30
0.0
  0
VERTEX
  5
2A3
330
2A2
100
AcDbEntity
  8
Layer 1
 62
     7
420
 16777215
370
     9
100
AcDbVertex
100
AcDb2dVertex
 10
69.08611106868958
 20
-262.163972163406
 30
0.0
  0
VERTEX
  5
2A4
330
2A2
100
AcDbEntity
  8
Layer 1
 62
     7
420
 16777215
370
     9
100
AcDbVertex
100
AcDb2dVertex
 10
69.08611106868958
 20
-268.3639721634062
 30
0.0
  0
SEQEND
  5
2A5
330
2A2
100
AcDbEntity
  8
Layer 1
 62
     7
420
 16777215
370
     9
  0
ENDBLK
  5
2A1
330
29E
100
AcDbEntity
  8
0
100
AcDbBlockEnd
  0
BLOCK
  5
2A8
330
2A6
100
AcDbEntity
  8
0
100
AcDbBlockBegin
  2
block 37
 70
     0
 10
0.0
 20
0.0
 30
0.0
  3
block 37
  1

  0
POLYLINE
  5
2AA
330
2A6
100
AcDbEntity
  8
Layer 1
 62
     7
420
 16777215
370
     9
100
AcDb2dPolyline
 66
     1
 10
0.0
 20
0.0
 30
0.0
  0
VERTEX
  5
2AB
330
2AA
100
AcDbEntity
  8
Layer 1
 62
     7
420
 16777215
370
     9
100
AcDbVertex
100
AcDb2dVertex
 10
163.4861110686894
 20
-268.3639721634062
 30
0.0
  0
VERTEX
  5
2AC
330
2AA
100
AcDbEntity
  8
Layer 1
 62
     7
420
 16777215
370
     9
100
AcDbVertex
100
AcDb2dVertex
 10
69.08611106868958
 20
-268.3639721634062
 30
0.0
  0
SEQEND
  5
2AD
330
2AA
100
AcDbEntity
  8
Layer 1
 62
     7
420
 16777215
370
     9
  0
ENDBLK
  5
2A9
330
2A6
100
AcDbEntity
  8
0
100
AcDbBlockEnd
  0
BLOCK
  5
2B0
330
2AE
100
AcDbEntity
  8
0
100
AcDbBlockBegin
  2
block 38
 70
     0
 10
0.0
 20
0.0
 30
0.0
  3
block 38
  1

  0
POLYLINE
  5
2B2
330
2AE
100
AcDbEntity
  8
Layer 1
 62
     7
420
 16777215
370
     9
100
AcDb2dPolyline
 66
     1
 10
0.0
 20
0.0
 30
0.0
  0
VERTEX
  5
2B3
330
2B2
100
AcDbEntity
  8
Layer 1
 62
     7
420
 16777215
370
     9
100
AcDbVertex
100
AcDb2dVertex
 10
163.4861110686894
 20
-268.3639721634062
 30
0.0
  0
VERTEX
  5
2B4
330
2B2
100
AcDbEntity
  8
Layer 1
 62
     7
420
 16777215
370
     9
100
AcDbVertex
100
AcDb2dVertex
 10
163.4861110686894
 20
-262.163972163406
 30
0.0
  0
SEQEND
  5
2B5
330
2B2
100
AcDbEntity
  8
Layer 1
 62
     7
420
 16777215
370
     9
  0
ENDBLK
  5
2B1
330
2AE
100
AcDbEntity
  8
0
100
AcDbBlockEnd
  0
BLOCK
  5
2B8
330
2B6
100
AcDbEntity
  8
0
100
AcDbBlockBegin
  2
block 39
 70
     0
 10
0.0
 20
0.0
 30
0.0
  3
block 39
  1

  0
POLYLINE
  5
2BA
330
2B6
100
AcDbEntity
  8
Layer 1
 62
     7
420
 16777215
370
     9
100
AcDb2dPolyline
 66
     1
 10
0.0
 20
0.0
 30
0.0
  0
VERTEX
  5
2BB
330
2BA
100
AcDbEntity
  8
Layer 1
 62
     7
420
 16777215
370
     9
100
AcDbVertex
100
AcDb2dVertex
 10
69.08611106868958
 20
-378.3639721634063
 30
0.0
  0
VERTEX
  5
2BC
330
2BA
100
AcDbEntity
  8
Layer 1
 62
     7
420
 16777215
370
     9
100
AcDbVertex
100
AcDb2dVertex
 10
69.08611106868958
 20
-384.5639721634065
 30
0.0
  0
SEQEND
  5
2BD
330
2BA
100
AcDbEntity
  8
Layer 1
 62
     7
420
 16777215
370
     9
  0
ENDBLK
  5
2B9
330
2B6
100
AcDbEntity
  8
0
100
AcDbBlockEnd
  0
BLOCK
  5
2C0
330
2BE
100
AcDbEntity
  8
0
100
AcDbBlockBegin
  2
block 40
 70
     0
 10
0.0
 20
0.0
 30
0.0
  3
block 40
  1

  0
POLYLINE
  5
2C2
330
2BE
100
AcDbEntity
  8
Layer 1
 62
     7
420
 16777215
370
     9
100
AcDb2dPolyline
 66
     1
 10
0.0
 20
0.0
 30
0.0
  0
VERTEX
  5
2C3
330
2C2
100
AcDbEntity
  8
Layer 1
 62
     7
420
 16777215
370
     9
100
AcDbVertex
100
AcDb2dVertex
 10
163.4861110686894
 20
-384.5639721634065
 30
0.0
  0
VERTEX
  5
2C4
330
2C2
100
AcDbEntity
  8
Layer 1
 62
     7
420
 16777215
370
     9
100
AcDbVertex
100
AcDb2dVertex
 10
69.08611106868958
 20
-384.5639721634065
 30
0.0
  0
SEQEND
  5
2C5
330
2C2
100
AcDbEntity
  8
Layer 1
 62
     7
420
 16777215
370
     9
  0
ENDBLK
  5
2C1
330
2BE
100
AcDbEntity
  8
0
100
AcDbBlockEnd
  0
BLOCK
  5
2C8
330
2C6
100
AcDbEntity
  8
0
100
AcDbBlockBegin
  2
block 41
 70
     0
 10
0.0
 20
0.0
 30
0.0
  3
block 41
  1

  0
POLYLINE
  5
2CA
330
2C6
100
AcDbEntity
  8
Layer 1
 62
     7
420
 16777215
370
     9
100
AcDb2dPolyline
 66
     1
 10
0.0
 20
0.0
 30
0.0
  0
VERTEX
  5
2CB
330
2CA
100
AcDbEntity
  8
Layer 1
 62
     7
420
 16777215
370
     9
100
AcDbVertex
100
AcDb2dVertex
 10
163.4861110686894
 20
-384.5639721634065
 30
0.0
  0
VERTEX
  5
2CC
330
2CA
100
AcDbEntity
  8
Layer 1
 62
     7
420
 16777215
370
     9
100
AcDbVertex
100
AcDb2dVertex
 10
163.4861110686894
 20
-378.3639721634063
 30
0.0
  0
SEQEND
  5
2CD
330
2CA
100
AcDbEntity
  8
Layer 1
 62
     7
420
 16777215
370
     9
  0
ENDBLK
  5
2C9
330
2C6
100
AcDbEntity
  8
0
100
AcDbBlockEnd
  0
BLOCK
  5
2D0
330
2CE
100
AcDbEntity
  8
0
100
AcDbBlockBegin
  2
block 42
 70
     0
 10
0.0
 20
0.0
 30
0.0
  3
block 42
  1

  0
POLYLINE
  5
2D2
330
2CE
100
AcDbEntity
  8
Layer 1
 62
     7
420
 16777215
370
     9
100
AcDb2dPolyline
 66
     1
 10
0.0
 20
0.0
 30
0.0
  0
VERTEX
  5
2D3
330
2D2
100
AcDbEntity
  8
Layer 1
 62
     7
420
 16777215
370
     9
100
AcDbVertex
100
AcDb2dVertex
 10
160.2861110686893
 20
-283.3639721634067
 30
0.0
  0
VERTEX
  5
2D4
330
2D2
100
AcDbEntity
  8
Layer 1
 62
     7
420
 16777215
370
     9
100
AcDbVertex
100
AcDb2dVertex
 10
163.4861110686894
 20
-283.3639721634067
 30
0.0
  0
SEQEND
  5
2D5
330
2D2
100
AcDbEntity
  8
Layer 1
 62
     7
420
 16777215
370
     9
  0
ENDBLK
  5
2D1
330
2CE
100
AcDbEntity
  8
0
100
AcDbBlockEnd
  0
BLOCK
  5
2D8
330
2D6
100
AcDbEntity
  8
0
100
AcDbBlockBegin
  2
block 43
 70
     0
 10
0.0
 20
0.0
 30
0.0
  3
block 43
  1

  0
POLYLINE
  5
2DA
330
2D6
100
AcDbEntity
  8
Layer 1
 62
     7
420
 16777215
370
     9
100
AcDb2dPolyline
 66
     1
 10
0.0
 20
0.0
 30
0.0
  0
VERTEX
  5
2DB
330
2DA
100
AcDbEntity
  8
Layer 1
 62
     7
420
 16777215
370
     9
100
AcDbVertex
100
AcDb2dVertex
 10
160.2861110686893
 20
-283.3639721634067
 30
0.0
  0
VERTEX
  5
2DC
330
2DA
100
AcDbEntity
  8
Layer 1
 62
     7
420
 16777215
370
     9
100
AcDbVertex
100
AcDb2dVertex
 10
160.2861110686893
 20
-363.3639721634064
 30
0.0
  0
SEQEND
  5
2DD
330
2DA
100
AcDbEntity
  8
Layer 1
 62
     7
420
 16777215
370
     9
  0
ENDBLK
  5
2D9
330
2D6
100
AcDbEntity
  8
0
100
AcDbBlockEnd
  0
BLOCK
  5
2E0
330
2DE
100
AcDbEntity
  8
0
100
AcDbBlockBegin
  2
block 44
 70
     0
 10
0.0
 20
0.0
 30
0.0
  3
block 44
  1

  0
POLYLINE
  5
2E2
330
2DE
100
AcDbEntity
  8
Layer 1
 62
     7
420
 16777215
370
     9
100
AcDb2dPolyline
 66
     1
 10
0.0
 20
0.0
 30
0.0
  0
VERTEX
  5
2E3
330
2E2
100
AcDbEntity
  8
Layer 1
 62
     7
420
 16777215
370
     9
100
AcDbVertex
100
AcDb2dVertex
 10
163.4861110686894
 20
-363.3639721634064
 30
0.0
  0
VERTEX
  5
2E4
330
2E2
100
AcDbEntity
  8
Layer 1
 62
     7
420
 16777215
370
     9
100
AcDbVertex
100
AcDb2dVertex
 10
160.2861110686893
 20
-363.3639721634064
 30
0.0
  0
SEQEND
  5
2E5
330
2E2
100
AcDbEntity
  8
Layer 1
 62
     7
420
 16777215
370
     9
  0
ENDBLK
  5
2E1
330
2DE
100
AcDbEntity
  8
0
100
AcDbBlockEnd
  0
BLOCK
  5
2E8
330
2E6
100
AcDbEntity
  8
0
100
AcDbBlockBegin
  2
block 45
 70
     0
 10
0.0
 20
0.0
 30
0.0
  3
block 45
  1

  0
POLYLINE
  5
2EA
330
2E6
100
AcDbEntity
  8
Layer 1
 62
     7
420
 16777215
370
     9
100
AcDb2dPolyline
 66
     1
 10
0.0
 20
0.0
 30
0.0
  0
VERTEX
  5
2EB
330
2EA
100
AcDbEntity
  8
Layer 1
 62
     7
420
 16777215
370
     9
100
AcDbVertex
100
AcDb2dVertex
 10
163.4861110686894
 20
-363.3639721634064
 30
0.0
  0
VERTEX
  5
2EC
330
2EA
100
AcDbEntity
  8
Layer 1
 62
     7
420
 16777215
370
     9
100
AcDbVertex
100
AcDb2dVertex
 10
163.4861110686894
 20
-283.3639721634067
 30
0.0
  0
SEQEND
  5
2ED
330
2EA
100
AcDbEntity
  8
Layer 1
 62
     7
420
 16777215
370
     9
  0
ENDBLK
  5
2E9
330
2E6
100
AcDbEntity
  8
0
100
AcDbBlockEnd
  0
BLOCK
  5
2F0
330
2EE
100
AcDbEntity
  8
0
100
AcDbBlockBegin
  2
block 46
 70
     0
 10
0.0
 20
0.0
 30
0.0
  3
block 46
  1

  0
SPLINE
  5
2F2
330
2EE
100
AcDbEntity
  8
Layer 1
 62
     7
420
 16777215
370
     9
100
AcDbSpline
210
0.0
220
0.0
230
1.0
 70
     8
 71
     3
 72
    53
 73
    49
 74
     0
 42
0.0000000001
 43
0.0000000001
 12
1.0
 22
0.0
 32
0.0
 13
1.0
 23
0.0
 33
0.0
 40
0.0
 40
0.0
 40
0.0
 40
0.0
 40
1.0
 40
1.0
 40
1.0
 40
2.0
 40
2.0
 40
2.0
 40
3.0
 40
3.0
 40
3.0
 40
4.0
 40
4.0
 40
4.0
 40
5.0
 40
5.0
 40
5.0
 40
6.0
 40
6.0
 40
6.0
 40
7.0
 40
7.0
 40
7.0
 40
8.0
 40
8.0
 40
8.0
 40
9.0
 40
9.0
 40
9.0
 40
10.0
 40
10.0
 40
10.0
 40
11.0
 40
11.0
 40
11.0
 40
12.0
 40
12.0
 40
12.0
 40
13.0
 40
13.0
 40
13.0
 40
14.0
 40
14.0
 40
14.0
 40
15.0
 40
15.0
 40
15.0
 40
16.0
 40
16.0
 40
16.0
 40
16.0
 10
157.4861110686892
 20
-254.3639721634064
 30
0.0
 10
157.4861110686892
 20
-254.3639721634064
 30
0.0
 10
159.9045110686892
 20
-254.1201721634063
 30
0.0
 10
159.9045110686892
 20
-254.1201721634063
 30
0.0
 10
159.9045110686892
 20
-254.1201721634063
 30
0.0
 10
159.9045110686892
 20
-254.1201721634063
 30
0.0
 10
162.1570110686898
 20
-253.420972163406
 30
0.0
 10
164.1954110686892
 20
-252.3145721634065
 30
0.0
 10
164.1954110686892
 20
-252.3145721634065
 30
0.0
 10
164.1954110686892
 20
-252.3145721634065
 30
0.0
 10
164.1954110686892
 20
-252.3145721634065
 30
0.0
 10
165.9714110686896
 20
-250.8492721634064
 30
0.0
 10
165.9714110686896
 20
-250.8492721634064
 30
0.0
 10
165.9714110686896
 20
-250.8492721634064
 30
0.0
 10
165.9714110686896
 20
-250.8492721634064
 30
0.0
 10
167.4367110686897
 20
-249.073272163406
 30
0.0
 10
168.5431110686892
 20
-247.0348721634059
 30
0.0
 10
168.5431110686892
 20
-247.0348721634059
 30
0.0
 10
168.5431110686892
 20
-247.0348721634059
 30
0.0
 10
168.5431110686892
 20
-247.0348721634059
 30
0.0
 10
169.2423110686895
 20
-244.782372163406
 30
0.0
 10
169.2423110686895
 20
-244.782372163406
 30
0.0
 10
169.2423110686895
 20
-244.782372163406
 30
0.0
 10
169.2423110686895
 20
-244.782372163406
 30
0.0
 10
169.4861110686896
 20
-242.363972163406
 30
0.0
 10
169.2423110686895
 20
-239.9455721634059
 30
0.0
 10
169.2423110686895
 20
-239.9455721634059
 30
0.0
 10
169.2423110686895
 20
-239.9455721634059
 30
0.0
 10
169.2423110686895
 20
-239.9455721634059
 30
0.0
 10
168.5431110686892
 20
-237.693072163406
 30
0.0
 10
168.5431110686892
 20
-237.693072163406
 30
0.0
 10
168.5431110686892
 20
-237.693072163406
 30
0.0
 10
168.5431110686892
 20
-237.693072163406
 30
0.0
 10
167.4367110686897
 20
-235.6546721634065
 30
0.0
 10
165.9714110686896
 20
-233.8786721634068
 30
0.0
 10
165.9714110686896
 20
-233.8786721634068
 30
0.0
 10
165.9714110686896
 20
-233.8786721634068
 30
0.0
 10
165.9714110686896
 20
-233.8786721634068
 30
0.0
 10
164.1955110686894
 20
-232.4133721634061
 30
0.0
 10
164.1955110686894
 20
-232.4133721634061
 30
0.0
 10
164.1955110686894
 20
-232.4133721634061
 30
0.0
 10
164.1955110686894
 20
-232.4133721634061
 30
0.0
 10
162.1571110686893
 20
-231.3069721634066
 30
0.0
 10
159.9046110686894
 20
-230.6077721634063
 30
0.0
 10
159.9046110686894
 20
-230.6077721634063
 30
0.0
 10
159.9046110686894
 20
-230.6077721634063
 30
0.0
 10
159.9046110686894
 20
-230.6077721634063
 30
0.0
 10
157.4862110686893
 20
-230.3639721634068
 30
0.0
 10
157.4862110686893
 20
-230.3639721634068
 30
0.0
  0
ENDBLK
  5
2F1
330
2EE
100
AcDbEntity
  8
0
100
AcDbBlockEnd
  0
BLOCK
  5
2F5
330
2F3
100
AcDbEntity
  8
0
100
AcDbBlockBegin
  2
block 47
 70
     0
 10
0.0
 20
0.0
 30
0.0
  3
block 47
  1

  0
POLYLINE
  5
2F7
330
2F3
100
AcDbEntity
  8
Layer 1
 62
     7
420
 16777215
370
     9
100
AcDb2dPolyline
 66
     1
 10
0.0
 20
0.0
 30
0.0
  0
VERTEX
  5
2F8
330
2F7
100
AcDbEntity
  8
Layer 1
 62
     7
420
 16777215
370
     9
100
AcDbVertex
100
AcDb2dVertex
 10
69.08611106868958
 20
-378.3639721634063
 30
0.0
  0
VERTEX
  5
2F9
330
2F7
100
AcDbEntity
  8
Layer 1
 62
     7
420
 16777215
370
     9
100
AcDbVertex
100
AcDb2dVertex
 10
126.4861110686894
 20
-378.3639721634063
 30
0.0
  0
SEQEND
  5
2FA
330
2F7
100
AcDbEntity
  8
Layer 1
 62
     7
420
 16777215
370
     9
  0
ENDBLK
  5
2F6
330
2F3
100
AcDbEntity
  8
0
100
AcDbBlockEnd
  0
BLOCK
  5
2FD
330
2FB
100
AcDbEntity
  8
0
100
AcDbBlockBegin
  2
block 48
 70
     0
 10
0.0
 20
0.0
 30
0.0
  3
block 48
  1

  0
POLYLINE
  5
2FF
330
2FB
100
AcDbEntity
  8
Layer 1
 62
     7
420
 16777215
370
     9
100
AcDb2dPolyline
 66
     1
 10
0.0
 20
0.0
 30
0.0
  0
VERTEX
  5
300
330
2FF
100
AcDbEntity
  8
Layer 1
 62
     7
420
 16777215
370
     9
100
AcDbVertex
100
AcDb2dVertex
 10
129.4861110686895
 20
-378.3639721634063
 30
0.0
  0
VERTEX
  5
301
330
2FF
100
AcDbEntity
  8
Layer 1
 62
     7
420
 16777215
370
     9
100
AcDbVertex
100
AcDb2dVertex
 10
163.4861110686894
 20
-378.3639721634063
 30
0.0
  0
SEQEND
  5
302
330
2FF
100
AcDbEntity
  8
Layer 1
 62
     7
420
 16777215
370
     9
  0
ENDBLK
  5
2FE
330
2FB
100
AcDbEntity
  8
0
100
AcDbBlockEnd
  0
BLOCK
  5
305
330
303
100
AcDbEntity
  8
0
100
AcDbBlockBegin
  2
block 49
 70
     0
 10
0.0
 20
0.0
 30
0.0
  3
block 49
  1

  0
POLYLINE
  5
307
330
303
100
AcDbEntity
  8
Layer 1
 62
     7
420
 16777215
370
     9
100
AcDb2dPolyline
 66
     1
 10
0.0
 20
0.0
 30
0.0
  0
VERTEX
  5
308
330
307
100
AcDbEntity
  8
Layer 1
 62
     7
420
 16777215
370
     9
100
AcDbVertex
100
AcDb2dVertex
 10
126.4861110686894
 20
-318.3639721634061
 30
0.0
  0
VERTEX
  5
309
330
307
100
AcDbEntity
  8
Layer 1
 62
     7
420
 16777215
370
     9
100
AcDbVertex
100
AcDb2dVertex
 10
126.4861110686894
 20
-378.3639721634063
 30
0.0
  0
SEQEND
  5
30A
330
307
100
AcDbEntity
  8
Layer 1
 62
     7
420
 16777215
370
     9
  0
ENDBLK
  5
306
330
303
100
AcDbEntity
  8
0
100
AcDbBlockEnd
  0
BLOCK
  5
30D
330
30B
100
AcDbEntity
  8
0
100
AcDbBlockBegin
  2
block 50
 70
     0
 10
0.0
 20
0.0
 30
0.0
  3
block 50
  1

  0
POLYLINE
  5
30F
330
30B
100
AcDbEntity
  8
Layer 1
 62
     7
420
 16777215
370
     9
100
AcDb2dPolyline
 66
     1
 10
0.0
 20
0.0
 30
0.0
  0
VERTEX
  5
310
330
30F
100
AcDbEntity
  8
Layer 1
 62
     7
420
 16777215
370
     9
100
AcDbVertex
100
AcDb2dVertex
 10
126.4861110686894
 20
-318.3639721634061
 30
0.0
  0
VERTEX
  5
311
330
30F
100
AcDbEntity
  8
Layer 1
 62
     7
420
 16777215
370
     9
100
AcDbVertex
100
AcDb2dVertex
 10
129.4861110686895
 20
-318.3639721634061
 30
0.0
  0
SEQEND
  5
312
330
30F
100
AcDbEntity
  8
Layer 1
 62
     7
420
 16777215
370
     9
  0
ENDBLK
  5
30E
330
30B
100
AcDbEntity
  8
0
100
AcDbBlockEnd
  0
BLOCK
  5
315
330
313
100
AcDbEntity
  8
0
100
AcDbBlockBegin
  2
block 51
 70
     0
 10
0.0
 20
0.0
 30
0.0
  3
block 51
  1

  0
POLYLINE
  5
317
330
313
100
AcDbEntity
  8
Layer 1
 62
     7
420
 16777215
370
     9
100
AcDb2dPolyline
 66
     1
 10
0.0
 20
0.0
 30
0.0
  0
VERTEX
  5
318
330
317
100
AcDbEntity
  8
Layer 1
 62
     7
420
 16777215
370
     9
100
AcDbVertex
100
AcDb2dVertex
 10
129.4861110686895
 20
-378.3639721634063
 30
0.0
  0
VERTEX
  5
319
330
317
100
AcDbEntity
  8
Layer 1
 62
     7
420
 16777215
370
     9
100
AcDbVertex
100
AcDb2dVertex
 10
129.4861110686895
 20
-318.3639721634061
 30
0.0
  0
SEQEND
  5
31A
330
317
100
AcDbEntity
  8
Layer 1
 62
     7
420
 16777215
370
     9
  0
ENDBLK
  5
316
330
313
100
AcDbEntity
  8
0
100
AcDbBlockEnd
  0
ENDSEC
  0
SECTION
  2
ENTITIES
  0
INSERT
  5
42
330
1F
100
AcDbEntity
  8
Layer 1
100
AcDbBlockReference
  2
block 2
 10
0.0
 20
0.0
 30
0.0
  0
INSERT
  5
4A
330
1F
100
AcDbEntity
  8
Layer 1
100
AcDbBlockReference
  2
block 3
 10
0.0
 20
0.0
 30
0.0
  0
INSERT
  5
81
330
1F
100
AcDbEntity
  8
Layer 1
100
AcDbBlockReference
  2
block 4
 10
0.0
 20
0.0
 30
0.0
  0
INSERT
  5
89
330
1F
100
AcDbEntity
  8
Layer 1
100
AcDbBlockReference
  2
block 5
 10
0.0
 20
0.0
 30
0.0
  0
INSERT
  5
A9
330
1F
100
AcDbEntity
  8
Layer 1
100
AcDbBlockReference
  2
block 6
 10
0.0
 20
0.0
 30
0.0
  0
INSERT
  5
B1
330
1F
100
AcDbEntity
  8
Layer 1
100
AcDbBlockReference
  2
block 7
 10
0.0
 20
0.0
 30
0.0
  0
INSERT
  5
D1
330
1F
100
AcDbEntity
  8
Layer 1
100
AcDbBlockReference
  2
block 8
 10
0.0
 20
0.0
 30
0.0
  0
INSERT
  5
D9
330
1F
100
AcDbEntity
  8
Layer 1
100
AcDbBlockReference
  2
block 9
 10
0.0
 20
0.0
 30
0.0
  0
INSERT
  5
E1
330
1F
100
AcDbEntity
  8
Layer 1
100
AcDbBlockReference
  2
block 10
 10
0.0
 20
0.0
 30
0.0
  0
INSERT
  5
101
330
1F
100
AcDbEntity
  8
Layer 1
100
AcDbBlockReference
  2
block 11
 10
0.0
 20
0.0
 30
0.0
  0
INSERT
  5
109
330
1F
100
AcDbEntity
  8
Layer 1
100
AcDbBlockReference
  2
block 12
 10
0.0
 20
0.0
 30
0.0
  0
INSERT
  5
129
330
1F
100
AcDbEntity
  8
Layer 1
100
AcDbBlockReference
  2
block 13
 10
0.0
 20
0.0
 30
0.0
  0
INSERT
  5
131
330
1F
100
AcDbEntity
  8
Layer 1
100
AcDbBlockReference
  2
block 14
 10
0.0
 20
0.0
 30
0.0
  0
INSERT
  5
166
330
1F
100
AcDbEntity
  8
Layer 1
100
AcDbBlockReference
  2
block 15
 10
0.0
 20
0.0
 30
0.0
  0
INSERT
  5
16E
330
1F
100
AcDbEntity
  8
Layer 1
100
AcDbBlockReference
  2
block 16
 10
0.0
 20
0.0
 30
0.0
  0
INSERT
  5
173
330
1F
100
AcDbEntity
  8
Layer 1
100
AcDbBlockReference
  2
block 17
 10
0.0
 20
0.0
 30
0.0
  0
INSERT
  5
178
330
1F
100
AcDbEntity
  8
Layer 1
100
AcDbBlockReference
  2
block 18
 10
0.0
 20
0.0
 30
0.0
  0
INSERT
  5
180
330
1F
100
AcDbEntity
  8
Layer 1
100
AcDbBlockReference
  2
block 19
 10
0.0
 20
0.0
 30
0.0
  0
INSERT
  5
22B
330
1F
100
AcDbEntity
  8
Layer 1
100
AcDbBlockReference
  2
block 20
 10
0.0
 20
0.0
 30
0.0
  0
INSERT
  5
233
330
1F
100
AcDbEntity
  8
Layer 1
100
AcDbBlockReference
  2
block 21
 10
0.0
 20
0.0
 30
0.0
  0
INSERT
  5
23B
330
1F
100
AcDbEntity
  8
Layer 1
100
AcDbBlockReference
  2
block 22
 10
0.0
 20
0.0
 30
0.0
  0
INSERT
  5
240
330
1F
100
AcDbEntity
  8
Layer 1
100
AcDbBlockReference
  2
block 23
 10
0.0
 20
0.0
 30
0.0
  0
INSERT
  5
248
330
1F
100
AcDbEntity
  8
Layer 1
100
AcDbBlockReference
  2
block 24
 10
0.0
 20
0.0
 30
0.0
  0
INSERT
  5
24D
330
1F
100
AcDbEntity
  8
Layer 1
100
AcDbBlockReference
  2
block 25
 10
0.0
 20
0.0
 30
0.0
  0
INSERT
  5
255
330
1F
100
AcDbEntity
  8
Layer 1
100
AcDbBlockReference
  2
block 26
 10
0.0
 20
0.0
 30
0.0
  0
INSERT
  5
25D
330
1F
100
AcDbEntity
  8
Layer 1
100
AcDbBlockReference
  2
block 27
 10
0.0
 20
0.0
 30
0.0
  0
INSERT
  5
262
330
1F
100
AcDbEntity
  8
Layer 1
100
AcDbBlockReference
  2
block 28
 10
0.0
 20
0.0
 30
0.0
  0
INSERT
  5
26A
330
1F
100
AcDbEntity
  8
Layer 1
100
AcDbBlockReference
  2
block 29
 10
0.0
 20
0.0
 30
0.0
  0
INSERT
  5
26F
330
1F
100
AcDbEntity
  8
Layer 1
100
AcDbBlockReference
  2
block 30
 10
0.0
 20
0.0
 30
0.0
  0
INSERT
  5
277
330
1F
100
AcDbEntity
  8
Layer 1
100
AcDbBlockReference
  2
block 31
 10
0.0
 20
0.0
 30
0.0
  0
INSERT
  5
27F
330
1F
100
AcDbEntity
  8
Layer 1
100
AcDbBlockReference
  2
block 32
 10
0.0
 20
0.0
 30
0.0
  0
INSERT
  5
287
330
1F
100
AcDbEntity
  8
Layer 1
100
AcDbBlockReference
  2
block 33
 10
0.0
 20
0.0
 30
0.0
  0
INSERT
  5
28F
330
1F
100
AcDbEntity
  8
Layer 1
100
AcDbBlockReference
  2
block 34
 10
0.0
 20
0.0
 30
0.0
  0
INSERT
  5
297
330
1F
100
AcDbEntity
  8
Layer 1
100
AcDbBlockReference
  2
block 35
 10
0.0
 20
0.0
 30
0.0
  0
INSERT
  5
29F
330
1F
100
AcDbEntity
  8
Layer 1
100
AcDbBlockReference
  2
block 36
 10
0.0
 20
0.0
 30
0.0
  0
INSERT
  5
2A7
330
1F
100
AcDbEntity
  8
Layer 1
100
AcDbBlockReference
  2
block 37
 10
0.0
 20
0.0
 30
0.0
  0
INSERT
  5
2AF
330
1F
100
AcDbEntity
  8
Layer 1
100
AcDbBlockReference
  2
block 38
 10
0.0
 20
0.0
 30
0.0
  0
INSERT
  5
2B7
330
1F
100
AcDbEntity
  8
Layer 1
100
AcDbBlockReference
  2
block 39
 10
0.0
 20
0.0
 30
0.0
  0
INSERT
  5
2BF
330
1F
100
AcDbEntity
  8
Layer 1
100
AcDbBlockReference
  2
block 40
 10
0.0
 20
0.0
 30
0.0
  0
INSERT
  5
2C7
330
1F
100
AcDbEntity
  8
Layer 1
100
AcDbBlockReference
  2
block 41
 10
0.0
 20
0.0
 30
0.0
  0
INSERT
  5
2CF
330
1F
100
AcDbEntity
  8
Layer 1
100
AcDbBlockReference
  2
block 42
 10
0.0
 20
0.0
 30
0.0
  0
INSERT
  5
2D7
330
1F
100
AcDbEntity
  8
Layer 1
100
AcDbBlockReference
  2
block 43
 10
0.0
 20
0.0
 30
0.0
  0
INSERT
  5
2DF
330
1F
100
AcDbEntity
  8
Layer 1
100
AcDbBlockReference
  2
block 44
 10
0.0
 20
0.0
 30
0.0
  0
INSERT
  5
2E7
330
1F
100
AcDbEntity
  8
Layer 1
100
AcDbBlockReference
  2
block 45
 10
0.0
 20
0.0
 30
0.0
  0
INSERT
  5
2EF
330
1F
100
AcDbEntity
  8
Layer 1
100
AcDbBlockReference
  2
block 46
 10
0.0
 20
0.0
 30
0.0
  0
INSERT
  5
2F4
330
1F
100
AcDbEntity
  8
Layer 1
100
AcDbBlockReference
  2
block 47
 10
0.0
 20
0.0
 30
0.0
  0
INSERT
  5
2FC
330
1F
100
AcDbEntity
  8
Layer 1
100
AcDbBlockReference
  2
block 48
 10
0.0
 20
0.0
 30
0.0
  0
INSERT
  5
304
330
1F
100
AcDbEntity
  8
Layer 1
100
AcDbBlockReference
  2
block 49
 10
0.0
 20
0.0
 30
0.0
  0
INSERT
  5
30C
330
1F
100
AcDbEntity
  8
Layer 1
100
AcDbBlockReference
  2
block 50
 10
0.0
 20
0.0
 30
0.0
  0
INSERT
  5
314
330
1F
100
AcDbEntity
  8
Layer 1
100
AcDbBlockReference
  2
block 51
 10
0.0
 20
0.0
 30
0.0
  0
ENDSEC
  0
SECTION
  2
OBJECTS
  0
DICTIONARY
  5
C
330
0
100
AcDbDictionary
281
     1
  3
ACAD_GROUP
350
D
  3
ACAD_LAYOUT
350
1A
  3
ACAD_MATERIAL
350
3B
  3
ACAD_MLEADERSTYLE
350
31C
  3
ACAD_MLINESTYLE
350
17
  3
ACAD_PLOTSETTINGS
350
19
  3
ACAD_PLOTSTYLENAME
350
E
  3
ACAD_TABLESTYLE
350
31B
  3
ACAD_VISUALSTYLE
350
2A
  0
SUN
  5
3F
330
29
100
AcDbSun
 90
        1
290
     0
 63
     7
421
 16777215
 40
1.0
291
     1
 91
  2455826
 92
 54000000
292
     0
 70
     2
 71
   256
280
     1
  0
DICTIONARY
  5
D
102
{ACAD_REACTORS
330
C
102
}
330
C
100
AcDbDictionary
281
     1
  0
DICTIONARY
  5
1A
102
{ACAD_REACTORS
330
C
102
}
330
C
100
AcDbDictionary
281
     1
  3
Layout1
350
1E
  3
Layout2
350
26
  3
Model
350
22
  0
DICTIONARY
  5
3B
102
{ACAD_REACTORS
330
C
102
}
330
C
100
AcDbDictionary
281
     1
  3
ByBlock
350
3D
  3
ByLayer
350
3C
  3
Global
350
3E
  0
DICTIONARY
  5
31C
102
{ACAD_REACTORS
330
C
102
}
330
C
100
AcDbDictionary
281
     1
  0
DICTIONARY
  5
17
102
{ACAD_REACTORS
330
C
102
}
330
C
100
AcDbDictionary
281
     1
  3
Standard
350
18
  0
DICTIONARY
  5
19
102
{ACAD_REACTORS
330
C
102
}
330
C
100
AcDbDictionary
281
     1
  0
ACDBDICTIONARYWDFLT
  5
E
102
{ACAD_REACTORS
330
C
102
}
330
C
100
AcDbDictionary
281
     1
  3
Normal
350
F
100
AcDbDictionaryWithDefault
340
F
  0
DICTIONARY
  5
31B
102
{ACAD_REACTORS
330
C
102
}
330
C
100
AcDbDictionary
281
     1
  0
DICTIONARY
  5
2A
102
{ACAD_REACTORS
330
C
102
}
330
C
100
AcDbDictionary
281
     1
  3
2dWireframe
350
2F
  3
3D Hidden
350
31
  3
3dWireframe
350
30
  3
Basic
350
32
  3
Brighten
350
36
  3
ColorChange
350
3A
  3
Conceptual
350
34
  3
Dim
350
35
  3
Facepattern
350
39
  3
Flat
350
2B
  3
FlatWithEdges
350
2C
  3
Gouraud
350
2D
  3
GouraudWithEdges
350
2E
  3
Linepattern
350
38
  3
Realistic
350
33
  3
Thicken
350
37
  0
LAYOUT
  5
1E
102
{ACAD_REACTORS
330
1A
102
}
330
1A
100
AcDbPlotSettings
  1

  2
none_device
  4

  6

 40
0.0
 41
0.0
 42
0.0
 43
0.0
 44
0.0
 45
0.0
 46
0.0
 47
0.0
 48
0.0
 49
0.0
140
0.0
141
0.0
142
1.0
143
1.0
 70
   688
 72
     0
 73
     0
 74
     5
  7

 75
    16
 76
     0
 77
     2
 78
   300
147
1.0
148
0.0
149
0.0
100
AcDbLayout
  1
Layout1
 70
     1
 71
     1
 10
0.0
 20
0.0
 11
12.0
 21
9.0
 12
0.0
 22
0.0
 32
0.0
 14
1.000000000000000E+20
 24
1.000000000000000E+20
 34
1.000000000000000E+20
 15
-1.000000000000000E+20
 25
-1.000000000000000E+20
 35
-1.000000000000000E+20
146
0.0
 13
0.0
 23
0.0
 33
0.0
 16
1.0
 26
0.0
 36
0.0
 17
0.0
 27
1.0
 37
0.0
 76
     0
330
1B
  0
LAYOUT
  5
26
102
{ACAD_REACTORS
330
1A
102
}
330
1A
100
AcDbPlotSettings
  1

  2
none_device
  4

  6

 40
0.0
 41
0.0
 42
0.0
 43
0.0
 44
0.0
 45
0.0
 46
0.0
 47
0.0
 48
0.0
 49
0.0
140
0.0
141
0.0
142
1.0
143
1.0
 70
   688
 72
     0
 73
     0
 74
     5
  7

 75
    16
 76
     0
 77
     2
 78
   300
147
1.0
148
0.0
149
0.0
100
AcDbLayout
  1
Layout2
 70
     1
 71
     2
 10
0.0
 20
0.0
 11
0.0
 21
0.0
 12
0.0
 22
0.0
 32
0.0
 14
0.0
 24
0.0
 34
0.0
 15
0.0
 25
0.0
 35
0.0
146
0.0
 13
0.0
 23
0.0
 33
0.0
 16
1.0
 26
0.0
 36
0.0
 17
0.0
 27
1.0
 37
0.0
 76
     0
330
23
  0
LAYOUT
  5
22
102
{ACAD_REACTORS
330
1A
102
}
330
1A
100
AcDbPlotSettings
  1

  2
none_device
  4

  6

 40
0.0
 41
0.0
 42
0.0
 43
0.0
 44
0.0
 45
0.0
 46
0.0
 47
0.0
 48
0.0
 49
0.0
140
0.0
141
0.0
142
1.0
143
1.0
 70
  1712
 72
     0
 73
     0
 74
     0
  7

 75
     0
 76
     0
 77
     2
 78
   300
147
1.0
148
0.0
149
0.0
100
AcDbLayout
  1
Model
 70
     1
 71
     0
 10
0.0
 20
0.0
 11
12.0
 21
9.0
 12
0.0
 22
0.0
 32
0.0
 14
1.000000000000000E+20
 24
1.000000000000000E+20
 34
1.000000000000000E+20
 15
-1.000000000000000E+20
 25
-1.000000000000000E+20
 35
-1.000000000000000E+20
146
0.0
 13
0.0
 23
0.0
 33
0.0
 16
1.0
 26
0.0
 36
0.0
 17
0.0
 27
1.0
 37
0.0
 76
     0
330
1F
331
29
  0
MATERIAL
  5
3D
102
{ACAD_REACTORS
330
3B
102
}
330
3B
100
AcDbMaterial
  1
ByBlock
 72
     1
 94
      127
  0
MATERIAL
  5
3C
102
{ACAD_REACTORS
330
3B
102
}
330
3B
100
AcDbMaterial
  1
ByLayer
 72
     1
 94
      127
  0
MATERIAL
  5
3E
102
{ACAD_REACTORS
330
3B
102
}
330
3B
100
AcDbMaterial
  1
Global
 72
     1
 94
      127
  0
MLINESTYLE
  5
18
102
{ACAD_REACTORS
330
17
102
}
330
17
100
AcDbMlineStyle
  2
Standard
 70
     0
  3

 62
   256
 51
90.0
 52
90.0
 71
     2
 49
0.5
 62
   256
  6
BYLAYER
 49
-0.5
 62
   256
  6
BYLAYER
  0
ACDBPLACEHOLDER
  5
F
102
{ACAD_REACTORS
330
E
102
}
330
E
  0
VISUALSTYLE
  5
2F
102
{ACAD_REACTORS
330
2A
102
}
330
2A
100
AcDbVisualStyle
  2
2dWireframe
 70
     4
177
     2
291
     0
 71
     0
176
     1
 72
     2
176
     1
 73
     0
176
     1
 90
        0
176
     1
 40
-0.6
176
     1
 41
-30.0
176
     1
 62
     5
 63
     7
421
 16777215
176
     1
 74
     1
176
     1
 91
        4
176
     1
 64
     7
176
     1
 65
   257
176
     1
 75
     1
176
     1
175
     1
176
     1
 42
1.0
176
     1
 92
        0
176
     1
 66
   257
176
     1
 43
1.0
176
     1
 76
     1
176
     1
 77
     6
176
     1
 78
     2
176
     1
 67
     7
176
     1
 79
     5
176
     1
170
     0
176
     1
171
     0
176
     1
290
     0
176
     1
 93
        1
176
     1
 44
0.0
176
     1
173
     0
176
     1
  0
VISUALSTYLE
  5
31
102
{ACAD_REACTORS
330
2A
102
}
330
2A
100
AcDbVisualStyle
  2
3D Hidden
 70
     6
177
     2
291
     0
 71
     1
176
     1
 72
     2
176
     1
 73
     2
176
     1
 90
        0
176
     1
 40
-0.6
176
     1
 41
-30.0
176
     1
 62
     5
 63
     7
421
 16777215
176
     1
 74
     2
176
     1
 91
        2
176
     1
 64
     7
176
     1
 65
   257
176
     1
 75
     2
176
     1
175
     1
176
     1
 42
40.0
176
     1
 92
        0
176
     1
 66
   257
176
     1
 43
1.0
176
     1
 76
     1
176
     1
 77
     6
176
     1
 78
     2
176
     1
 67
     7
176
     1
 79
     3
176
     1
170
     0
176
     1
171
     0
176
     1
290
     0
176
     1
 93
        1
176
     1
 44
0.0
176
     1
173
     0
176
     1
  0
VISUALSTYLE
  5
30
102
{ACAD_REACTORS
330
2A
102
}
330
2A
100
AcDbVisualStyle
  2
3dWireframe
 70
     5
177
     2
291
     0
 71
     0
176
     1
 72
     2
176
     1
 73
     0
176
     1
 90
        0
176
     1
 40
-0.6
176
     1
 41
-30.0
176
     1
 62
     5
 63
     7
421
 16777215
176
     1
 74
     1
176
     1
 91
        4
176
     1
 64
     7
176
     1
 65
   257
176
     1
 75
     1
176
     1
175
     1
176
     1
 42
1.0
176
     1
 92
        0
176
     1
 66
   257
176
     1
 43
1.0
176
     1
 76
     1
176
     1
 77
     6
176
     1
 78
     2
176
     1
 67
     7
176
     1
 79
     5
176
     1
170
     0
176
     1
171
     0
176
     1
290
     0
176
     1
 93
        1
176
     1
 44
0.0
176
     1
173
     0
176
     1
  0
VISUALSTYLE
  5
32
102
{ACAD_REACTORS
330
2A
102
}
330
2A
100
AcDbVisualStyle
  2
Basic
 70
     7
177
     2
291
     1
 71
     1
176
     1
 72
     0
176
     1
 73
     1
176
     1
 90
        0
176
     1
 40
-0.6
176
     1
 41
-30.0
176
     1
 62
     5
 63
     7
421
 16777215
176
     1
 74
     0
176
     1
 91
        4
176
     1
 64
     7
176
     1
 65
   257
176
     1
 75
     1
176
     1
175
     1
176
     1
 42
1.0
176
     1
 92
        8
176
     1
 66
     7
176
     1
 43
1.0
176
     1
 76
     1
176
     1
 77
     6
176
     1
 78
     2
176
     1
 67
     7
176
     1
 79
     5
176
     1
170
     0
176
     1
171
     0
176
     1
290
     0
176
     1
 93
        1
176
     1
 44
0.0
176
     1
173
     0
176
     1
  0
VISUALSTYLE
  5
36
102
{ACAD_REACTORS
330
2A
102
}
330
2A
100
AcDbVisualStyle
  2
Brighten
 70
    12
177
     2
291
     1
 71
     2
176
     1
 72
     2
176
     1
 73
     0
176
     1
 90
        0
176
     1
 40
-0.6
176
     1
 41
-30.0
176
     1
 62
     5
 63
     7
421
 16777215
176
     1
 74
     1
176
     1
 91
        4
176
     1
 64
     7
176
     1
 65
   257
176
     1
 75
     1
176
     1
175
     1
176
     1
 42
1.0
176
     1
 92
        8
176
     1
 66
     7
176
     1
 43
1.0
176
     1
 76
     1
176
     1
 77
     6
176
     1
 78
     2
176
     1
 67
     7
176
     1
 79
     5
176
     1
170
     0
176
     1
171
     0
176
     1
290
     0
176
     1
 93
        1
176
     1
 44
50.0
176
     1
173
     0
176
     1
  0
VISUALSTYLE
  5
3A
102
{ACAD_REACTORS
330
2A
102
}
330
2A
100
AcDbVisualStyle
  2
ColorChange
 70
    16
177
     2
291
     1
 71
     2
176
     1
 72
     2
176
     1
 73
     3
176
     1
 90
        0
176
     1
 40
-0.6
176
     1
 41
-30.0
176
     1
 62
     5
 63
     8
421
  8421504
176
     1
 74
     1
176
     1
 91
        4
176
     1
 64
     7
176
     1
 65
   257
176
     1
 75
     1
176
     1
175
     1
176
     1
 42
1.0
176
     1
 92
        8
176
     1
 66
     8
424
  8421504
176
     1
 43
1.0
176
     1
 76
     1
176
     1
 77
     6
176
     1
 78
     2
176
     1
 67
     7
176
     1
 79
     5
176
     1
170
     0
176
     1
171
     0
176
     1
290
     0
176
     1
 93
        1
176
     1
 44
0.0
176
     1
173
     0
176
     1
  0
VISUALSTYLE
  5
34
102
{ACAD_REACTORS
330
2A
102
}
330
2A
100
AcDbVisualStyle
  2
Conceptual
 70
     9
177
     2
291
     0
 71
     3
176
     1
 72
     2
176
     1
 73
     0
176
     1
 90
        0
176
     1
 40
-0.6
176
     1
 41
-30.0
176
     1
 62
     5
 63
     7
421
 16777215
176
     1
 74
     2
176
     1
 91
        2
176
     1
 64
     7
176
     1
 65
   257
176
     1
 75
     1
176
     1
175
     1
176
     1
 42
40.0
176
     1
 92
        8
176
     1
 66
     7
176
     1
 43
1.0
176
     1
 76
     1
176
     1
 77
     6
176
     1
 78
     2
176
     1
 67
     7
176
     1
 79
     3
176
     1
170
     0
176
     1
171
     0
176
     1
290
     0
176
     1
 93
        1
176
     1
 44
0.0
176
     1
173
     0
176
     1
  0
VISUALSTYLE
  5
35
102
{ACAD_REACTORS
330
2A
102
}
330
2A
100
AcDbVisualStyle
  2
Dim
 70
    11
177
     2
291
     1
 71
     2
176
     1
 72
     2
176
     1
 73
     0
176
     1
 90
        0
176
     1
 40
-0.6
176
     1
 41
-30.0
176
     1
 62
     5
 63
     7
421
 16777215
176
     1
 74
     1
176
     1
 91
        4
176
     1
 64
     7
176
     1
 65
   257
176
     1
 75
     1
176
     1
175
     1
176
     1
 42
1.0
176
     1
 92
        8
176
     1
 66
     7
176
     1
 43
1.0
176
     1
 76
     1
176
     1
 77
     6
176
     1
 78
     2
176
     1
 67
     7
176
     1
 79
     5
176
     1
170
     0
176
     1
171
     0
176
     1
290
     0
176
     1
 93
        1
176
     1
 44
-50.0
176
     1
173
     0
176
     1
  0
VISUALSTYLE
  5
39
102
{ACAD_REACTORS
330
2A
102
}
330
2A
100
AcDbVisualStyle
  2
Facepattern
 70
    15
177
     2
291
     1
 71
     2
176
     1
 72
     2
176
     1
 73
     0
176
     1
 90
        0
176
     1
 40
-0.6
176
     1
 41
-30.0
176
     1
 62
     5
 63
     7
421
 16777215
176
     1
 74
     1
176
     1
 91
        4
176
     1
 64
     7
176
     1
 65
   257
176
     1
 75
     1
176
     1
175
     1
176
     1
 42
1.0
176
     1
 92
        8
176
     1
 66
     7
176
     1
 43
1.0
176
     1
 76
     1
176
     1
 77
     6
176
     1
 78
     2
176
     1
 67
     7
176
     1
 79
     5
176
     1
170
     0
176
     1
171
     0
176
     1
290
     0
176
     1
 93
        1
176
     1
 44
0.0
176
     1
173
     0
176
     1
  0
VISUALSTYLE
  5
2B
102
{ACAD_REACTORS
330
2A
102
}
330
2A
100
AcDbVisualStyle
  2
Flat
 70
     0
177
     2
291
     1
 71
     2
176
     1
 72
     1
176
     1
 73
     1
176
     1
 90
        2
176
     1
 40
-0.6
176
     1
 41
30.0
176
     1
 62
     5
 63
     7
421
 16777215
176
     1
 74
     0
176
     1
 91
        4
176
     1
 64
     7
176
     1
 65
   257
176
     1
 75
     1
176
     1
175
     1
176
     1
 42
1.0
176
     1
 92
        8
176
     1
 66
     7
176
     1
 43
1.0
176
     1
 76
     1
176
     1
 77
     6
176
     1
 78
     2
176
     1
 67
     7
176
     1
 79
     5
176
     1
170
     0
176
     1
171
     0
176
     1
290
     0
176
     1
 93
       13
176
     1
 44
0.0
176
     1
173
     0
176
     1
  0
VISUALSTYLE
  5
2C
102
{ACAD_REACTORS
330
2A
102
}
330
2A
100
AcDbVisualStyle
  2
FlatWithEdges
 70
     1
177
     2
291
     1
 71
     2
176
     1
 72
     1
176
     1
 73
     1
176
     1
 90
        2
176
     1
 40
-0.6
176
     1
 41
30.0
176
     1
 62
     5
 63
     7
421
 16777215
176
     1
 74
     1
176
     1
 91
        4
176
     1
 64
     7
176
     1
 65
   257
176
     1
 75
     1
176
     1
175
     1
176
     1
 42
1.0
176
     1
 92
        0
176
     1
 66
   257
176
     1
 43
1.0
176
     1
 76
     1
176
     1
 77
     6
176
     1
 78
     2
176
     1
 67
     7
176
     1
 79
     5
176
     1
170
     0
176
     1
171
     0
176
     1
290
     0
176
     1
 93
       13
176
     1
 44
0.0
176
     1
173
     0
176
     1
  0
VISUALSTYLE
  5
2D
102
{ACAD_REACTORS
330
2A
102
}
330
2A
100
AcDbVisualStyle
  2
Gouraud
 70
     2
177
     2
291
     1
 71
     2
176
     1
 72
     2
176
     1
 73
     1
176
     1
 90
        2
176
     1
 40
-0.6
176
     1
 41
30.0
176
     1
 62
     5
 63
     7
421
 16777215
176
     1
 74
     0
176
     1
 91
        4
176
     1
 64
     7
176
     1
 65
   257
176
     1
 75
     1
176
     1
175
     1
176
     1
 42
1.0
176
     1
 92
        0
176
     1
 66
     7
176
     1
 43
1.0
176
     1
 76
     1
176
     1
 77
     6
176
     1
 78
     2
176
     1
 67
     7
176
     1
 79
     5
176
     1
170
     0
176
     1
171
     0
176
     1
290
     0
176
     1
 93
       13
176
     1
 44
0.0
176
     1
173
     0
176
     1
  0
VISUALSTYLE
  5
2E
102
{ACAD_REACTORS
330
2A
102
}
330
2A
100
AcDbVisualStyle
  2
GouraudWithEdges
 70
     3
177
     2
291
     1
 71
     2
176
     1
 72
     2
176
     1
 73
     1
176
     1
 90
        2
176
     1
 40
-0.6
176
     1
 41
30.0
176
     1
 62
     5
 63
     7
421
 16777215
176
     1
 74
     1
176
     1
 91
        4
176
     1
 64
     7
176
     1
 65
   257
176
     1
 75
     1
176
     1
175
     1
176
     1
 42
1.0
176
     1
 92
        0
176
     1
 66
   257
176
     1
 43
1.0
176
     1
 76
     1
176
     1
 77
     6
176
     1
 78
     2
176
     1
 67
     7
176
     1
 79
     5
176
     1
170
     0
176
     1
171
     0
176
     1
290
     0
176
     1
 93
       13
176
     1
 44
0.0
176
     1
173
     0
176
     1
  0
VISUALSTYLE
  5
38
102
{ACAD_REACTORS
330
2A
102
}
330
2A
100
AcDbVisualStyle
  2
Linepattern
 70
    14
177
     2
291
     1
 71
     2
176
     1
 72
     2
176
     1
 73
     0
176
     1
 90
        0
176
     1
 40
-0.6
176
     1
 41
-30.0
176
     1
 62
     5
 63
     7
421
 16777215
176
     1
 74
     1
176
     1
 91
        4
176
     1
 64
     7
176
     1
 65
   257
176
     1
 75
     7
176
     1
175
     7
176
     1
 42
1.0
176
     1
 92
        8
176
     1
 66
     7
176
     1
 43
1.0
176
     1
 76
     1
176
     1
 77
     6
176
     1
 78
     2
176
     1
 67
     7
176
     1
 79
     5
176
     1
170
     0
176
     1
171
     0
176
     1
290
     0
176
     1
 93
        1
176
     1
 44
0.0
176
     1
173
     0
176
     1
  0
VISUALSTYLE
  5
33
102
{ACAD_REACTORS
330
2A
102
}
330
2A
100
AcDbVisualStyle
  2
Realistic
 70
     8
177
     2
291
     0
 71
     2
176
     1
 72
     2
176
     1
 73
     0
176
     1
 90
        0
176
     1
 40
-0.6
176
     1
 41
-30.0
176
     1
 62
     5
 63
     7
421
 16777215
176
     1
 74
     1
176
     1
 91
        0
176
     1
 64
     7
176
     1
 65
   257
176
     1
 75
     1
176
     1
175
     1
176
     1
 42
1.0
176
     1
 92
        8
176
     1
 66
     8
424
  7895160
176
     1
 43
1.0
176
     1
 76
     1
176
     1
 77
     6
176
     1
 78
     2
176
     1
 67
     7
176
     1
 79
     5
176
     1
170
     0
176
     1
171
     0
176
     1
290
     0
176
     1
 93
       13
176
     1
 44
0.0
176
     1
173
     0
176
     1
  0
VISUALSTYLE
  5
37
102
{ACAD_REACTORS
330
2A
102
}
330
2A
100
AcDbVisualStyle
  2
Thicken
 70
    13
177
     2
291
     1
 71
     2
176
     1
 72
     2
176
     1
 73
     0
176
     1
 90
        0
176
     1
 40
-0.6
176
     1
 41
-30.0
176
     1
 62
     5
 63
     7
421
 16777215
176
     1
 74
     1
176
     1
 91
        4
176
     1
 64
     7
176
     1
 65
   257
176
     1
 75
     1
176
     1
175
     1
176
     1
 42
1.0
176
     1
 92
       12
176
     1
 66
     7
176
     1
 43
1.0
176
     1
 76
     1
176
     1
 77
     6
176
     1
 78
     2
176
     1
 67
     7
176
     1
 79
     5
176
     1
170
     0
176
     1
171
     0
176
     1
290
     0
176
     1
 93
        1
176
     1
 44
0.0
176
     1
173
     0
176
     1
  0
ENDSEC
  0
EOF
